<svg id="Capa_1" enable-background="new 0 0 512 512" height="512" viewBox="0 0 512 512" width="512" xmlns="http://www.w3.org/2000/svg"><g><g><path d="m354.961 7.5h-198.797c-6.262 0-11.865 3.89-14.054 9.757l-36.774 98.575h300.453l-36.774-98.575c-2.189-5.867-7.792-9.757-14.054-9.757z" fill="#838383"/><path d="m104.544 115.832 24.683 371.408c.645 9.712 8.711 17.26 18.445 17.26 6.388 0 221.586 0 214.789 0 9.734 0 17.8-7.548 18.445-17.26l24.683-371.408c-14.187 0-284.678 0-301.045 0z" fill="#ebebeb"/><path d="m368.738 115.832-24.682 371.408c-.645 9.712-8.711 17.26-18.445 17.26h36.85c9.734 0 17.799-7.548 18.445-17.26l24.683-371.408z" fill="#e2e2e2"/><path d="m424 141.109h-336c-3.866 0-7-3.134-7-7v-36.554c0-3.866 3.134-7 7-7h336c3.866 0 7 3.134 7 7v36.554c0 3.866-3.134 7-7 7z" fill="#bfbfbf"/><path d="m424 90.555h-36.85c3.866 0 7 3.134 7 7v36.553c0 3.866-3.134 7-7 7h36.85c3.866 0 7-3.134 7-7v-36.553c0-3.866-3.134-7-7-7z" fill="#acacac"/><path d="m397.361 390.44 10.625-159.886c.192-2.886-2.097-5.332-4.989-5.332h-295.861c-2.892 0-5.181 2.446-4.989 5.332l10.625 159.886c.175 2.627 2.356 4.668 4.989 4.668h274.611c2.633.001 4.815-2.041 4.989-4.668z" fill="#09a76d"/><circle cx="255.067" cy="310.166" fill="#98d5b9" r="48.481"/><path d="m402.998 225.223h-36.85c2.892 0 5.181 2.446 4.989 5.332l-10.626 159.885c-.175 2.627-2.356 4.668-4.989 4.668h36.85c2.633 0 4.814-2.042 4.989-4.668l10.625-159.886c.193-2.885-2.096-5.331-4.988-5.331z" fill="#02905d"/></g><g><path d="m424 83.055h-22.434l-25.524-68.42c-3.266-8.754-11.738-14.635-21.081-14.635h-198.797c-9.343 0-17.815 5.881-21.081 14.635l-25.524 68.42h-21.559c-7.995 0-14.5 6.505-14.5 14.5v36.554c0 7.995 6.505 14.5 14.5 14.5h11.206l4.624 69.572c-5.291 1.454-9.194 6.292-9.194 12.036 0 .261.008.525.027.835l10.625 159.886c.398 5.974 5.002 10.753 10.789 11.543l2.195 33.037c.274 4.134 3.856 7.27 7.98 6.986 4.133-.274 7.261-3.848 6.986-7.98l-2.121-31.915h247.895l-5.591 84.134c-.382 5.752-5.197 10.257-10.961 10.257h-214.79c-5.764 0-10.579-4.505-10.961-10.257l-1.149-17.296c-.274-4.133-3.845-7.258-7.98-6.986-4.133.274-7.261 3.848-6.986 7.98l1.149 17.297c.905 13.605 12.294 24.262 25.929 24.262h214.79c13.635 0 25.024-10.657 25.928-24.262l5.666-85.257c5.788-.79 10.391-5.569 10.789-11.543l4.178-62.861c.275-4.133-2.853-7.707-6.986-7.981-4.146-.278-7.707 2.854-7.981 6.986l-4.022 60.527h-3.004-263.926-3.004l-10.293-154.886h2.007 286.505 2.007l-3.95 59.436c-.275 4.133 2.853 7.706 6.986 7.98 4.126.271 7.706-2.854 7.98-6.986l4.128-62.115c.018-.275.027-.55.027-.822 0-5.744-3.903-10.582-9.194-12.036l4.623-69.572h13.074c7.995 0 14.5-6.505 14.5-14.5v-36.553c0-7.995-6.505-14.5-14.5-14.5zm-274.863-63.177c1.089-2.918 3.913-4.878 7.027-4.878h198.797c3.115 0 5.938 1.96 7.027 4.878l23.568 63.176h-259.988zm242.164 197.845h-272.468l-4.593-69.114h281.655zm32.199-84.114c-11.057 0-318.407 0-335 0v-35.554h335z"/><path d="m199.086 310.166c0 30.868 25.113 55.98 55.98 55.98 30.868 0 55.981-25.113 55.981-55.98 0-30.868-25.113-55.981-55.981-55.981-30.867 0-55.98 25.113-55.98 55.981zm96.961 0c0 22.597-18.384 40.98-40.981 40.98s-40.98-18.384-40.98-40.98c0-22.597 18.384-40.981 40.98-40.981 22.598 0 40.981 18.384 40.981 40.981z"/></g></g></svg>