<svg xmlns="http://www.w3.org/2000/svg" xmlns:xlink="http://www.w3.org/1999/xlink" xmlns:lucid="lucid" width="1054" height="484"><g transform="translate(-698 -88)" lucid:page-tab-id="0_0"><path d="M708 106c0-3.3 2.7-6 6-6h1020c3.3 0 6 2.7 6 6v448c0 3.3-2.7 6-6 6H714c-3.3 0-6-2.7-6-6z" stroke="#19967d" stroke-width="3" fill="#99d5ca"/><path d="M724 266c0-3.3 2.7-6 6-6h724c3.3 0 6 2.7 6 6v194.9c0 3.3-2.7 6-6 6H730c-3.3 0-6-2.7-6-6z" fill-opacity="0"/><path d="M770.22 260h40.22m20.12 0h40.22m20.1 0h40.23m20.12 0h40.22m20.12 0h40.22m20.1 0h40.23m20.12 0h40.22m20.12 0h40.22m20.1 0h40.23m20.12 0h40.22m20.12 0h40.22m20.1 0H1454l3.03.82 2.15 2.15.82 3.03v21.65m0 21.66v43.32m0 21.65v43.3m0 21.67v21.65l-.82 3.02-2.15 2.16-3.03.8h-20.1m-20.12 0h-40.22m-20.12 0h-40.22m-20.1 0h-40.23m-20.12 0h-40.22m-20.12 0h-40.22m-20.1 0h-40.23m-20.12 0h-40.22m-20.12 0h-40.22m-20.1 0h-40.23m-20.12 0h-40.22m-20.12 0h-40.22m-20.1 0H730l-3.03-.8-2.15-2.16-.82-3.03v-21.66m0-21.65v-43.32m0-21.66v-43.3m0-21.66V266l.82-3.03 2.15-2.15L730 260h20.1" stroke="#19967d" stroke-width="4" fill="none"/><path d="M1380.28 352.3l-20.9-35.92c-1.63-2.9-4.47-4.5-7.82-4.6h-41.62c-3.35.1-6.2 1.7-7.8 4.6l-20.92 35.82c-1.63 2.8-1.63 6.05 0 8.94l20.9 36.1c1.63 2.97 4.37 4.68 7.82 4.77h41.62c3.35-.08 6.2-1.8 7.8-4.77l20.92-35.82c1.63-2.97 1.63-6.22 0-9.1z" stroke="#000" stroke-opacity="0" fill="#4285f4"/><path d="M1347.8 340.14l-16.6-5.75-15.6 6.42-6.9 14.33 4.93 18.86 27.5 28h10.45c3.38-.14 6.2-1.83 7.84-4.74l16.8-29z" stroke="#000" stroke-opacity="0" fill-opacity=".07"/><path d="M1330.75 333.16c-13.35 0-24.2 10.73-24.2 23.94 0 13.22 10.85 23.94 24.2 23.94s24.18-10.72 24.18-23.94c0-13.2-10.83-23.94-24.18-23.94zm0 43.14c-3.73 0-6.92-.9-10.1-2.82l8.65-4.98v-10.73l-9.44-5.4v10.77l6.68 3.83-8.37 4.78c-8.17-6.9-9.14-19-2.22-27.05 1.6-1.82 3.2-3.16 5.32-4.3v9.57l9.48 5.4 9.43-5.4-9.43-5.4-6.68 3.82v-9.3c10-3.74 21.2 1.3 24.9 11.2.88 2.3 1.27 4.36 1.27 6.8v.2l-8.7-4.94-9.44 5.37v10.82l9.43-5.4v-7.63l8.32 4.8c-1.55 9.33-9.53 15.98-19.1 16.03z" stroke="#000" stroke-opacity="0" fill="#fff"/><use xlink:href="#a" transform="matrix(1,0,0,1,1280,407.01203125) translate(27.828342013888893 20.1171875)"/><use xlink:href="#b" transform="matrix(1,0,0,1,1280,407.01203125) translate(21.94184027777778 44.943576388888886)"/><path d="M1619 440h-83c-3.3 0-6-2.7-6-6v-45.13c0-3.32-2.7-6-6-6h-137.74" stroke="#19967d" stroke-width="2" fill="none"/><path d="M1620 441h-1.03v-2h1.03z" fill="#19967d"/><path d="M1371 382.87l14.26-4.64v9.27z" stroke="#19967d" stroke-width="2" fill="#19967d"/><path d="M1619 280h-83c-3.3 0-6 2.7-6 6v36.03c0 3.32-2.7 6-6 6h-139.34" stroke="#19967d" stroke-width="2" fill="none"/><path d="M1620 281h-1.03v-2h1.03z" fill="#19967d"/><path d="M1369.4 328.03l14.26-4.63v9.27z" stroke="#19967d" stroke-width="2" fill="#19967d"/><path d="M1620 240h80v80h-80v-80z" stroke="#fff" stroke-opacity="0" stroke-width="2" fill="#ffc374"/><path d="M1676.9 302.6c-2.86 0-5.16-2.32-5.15-5.16 0-2.84 2.33-5.14 5.18-5.13 2.84.02 5.14 2.34 5.13 5.18 0 1.42-.5 2.63-1.52 3.63-1 1.02-2.22 1.52-3.65 1.5zm0-8.2c-1.7 0-3.05 1.37-3.05 3.05 0 .84.3 1.55.9 2.13 1.18 1.17 3.07 1.17 4.26 0 1.17-1.18 1.17-3.08 0-4.26-.58-.6-1.28-.9-2.1-.92zM1684.16 285.24c-2.85 0-5.17-2.33-5.16-5.2 0-2.84 2.33-5.16 5.18-5.15 2.86 0 5.18 2.32 5.17 5.17 0 1.43-.52 2.65-1.54 3.67-1 1-2.2 1.5-3.64 1.5zm0-8.22c-.84 0-1.56.3-2.15.9-1.2 1.17-1.2 3.1 0 4.3 1.18 1.18 3.1 1.2 4.3 0 .58-.6.88-1.3.9-2.14-.02-1.67-1.37-3.03-3.05-3.04zM1676.9 266.67c-2.87 0-5.2-2.32-5.2-5.18s2.33-5.18 5.2-5.18c2.84 0 5.16 2.32 5.16 5.17 0 1.42-.5 2.64-1.52 3.66-1 1-2.23 1.5-3.65 1.5zm0-8.22c-.85 0-1.57.3-2.16.9-1.2 1.2-1.17 3.12.02 4.3.58.6 1.3.87 2.12.9 1.67 0 3.05-1.36 3.06-3.04 0-.82-.3-1.53-.9-2.12-.58-.6-1.3-.9-2.15-.9zM1649.74 279.25l-3.62-3.63-1.52 1.5 1.8 1.82h-5.52c-.23-1-.68-1.8-1.4-2.53-2-2-5.28-2-7.3.02-2 2-2 5.28 0 7.3.76.76 1.6 1.2 2.64 1.4 2.8.58 5.52-1.24 6.08-4.04h5.5l-1.8 1.8 1.52 1.5 3.62-3.62c.4-.42.4-1.1 0-1.5zm-11.73 2.97c-1.03 1.32-2.93 1.56-4.27.52-1.32-1.03-1.55-2.93-.52-4.26.16-.2.34-.37.53-.53 1.2-1.16 3.08-1.16 4.28 0 1.16 1.2 1.16 3.1-.02 4.27z" stroke="#fff" stroke-opacity="0" stroke-width="2" fill="#fff"/><path d="M1676.33 279.26l-.33-.32-3.3-3.3-1.5 1.5 1.8 1.8h-6.4c.12-3 1.15-5.52 3.2-7.73.42-.4.42-1.07 0-1.47-.4-.43-1.08-.43-1.5 0-4.35 4.35-13.26 4.35-17.62 0-.42-.43-1.08-.43-1.5 0-.42.4-.42 1.08 0 1.48 4.36 4.4 4.36 13.27 0 17.64-.2.2-.3.45-.3.74 0 .3.1.56.3.75.42.42 1.08.42 1.5 0 4.36-4.36 13.27-4.36 17.63 0 .42.42 1.1.42 1.5 0 .2-.2.3-.45.3-.75s-.1-.55-.3-.74c-2.05-2.23-3.08-4.76-3.2-7.77h6.4l-1.8 1.8 1.5 1.5 3.63-3.62c.42-.4.42-1.08 0-1.5zm-10.83 6.8c-4.05-1.57-8.05-1.57-12.1 0 1.58-4.04 1.58-8.03 0-12.07 4.05 1.57 8.05 1.57 12.1 0-1.55 4.05-1.55 8.02 0 12.08zM1670.13 259.1c-6.65-3.38-13.75-3.53-20.53-.4l-.9-1.93c3.54-1.64 6.86-2.37 10.77-2.36 4.23.02 7.84.9 11.62 2.8zM1636.9 273.13l-2.04-.63c.68-2.23 1.5-4.04 2.74-6l1.8 1.12c-1.13 1.8-1.88 3.47-2.5 5.5zM1681.72 272.32c-.53-1.53-1.1-2.8-1.92-4.18l1.83-1.07c.9 1.52 1.55 2.9 2.14 4.57zM1681.93 292.13l-1.83-1.07c.8-1.4 1.4-2.65 1.92-4.18l2 .7c-.56 1.67-1.2 3.03-2.1 4.55zM1659.46 305.6c-4.13 0-7.67-.82-11.36-2.67l.94-1.9c6.93 3.4 14.3 3.34 21.17-.2l1 1.92c-3.8 1.95-7.44 2.83-11.74 2.84zM1637.2 292.83c-1.04-1.77-1.74-3.37-2.34-5.33l2.03-.63c.55 1.8 1.2 3.27 2.13 4.9zM1643.1 302.6c-2.84 0-5.14-2.32-5.13-5.16 0-2.84 2.33-5.14 5.18-5.13 2.84.02 5.14 2.34 5.13 5.18 0 1.42-.5 2.63-1.52 3.63-1 1.02-2.23 1.5-3.66 1.5zm0-8.2c-.84 0-1.56.3-2.16.9-1.18 1.2-1.18 3.12 0 4.3 1.2 1.2 3.12 1.2 4.3 0 1.2-1.2 1.2-3.12 0-4.3-.6-.6-1.3-.9-2.14-.9zM1643.1 266.67c-1.42 0-2.65-.5-3.65-1.5-2.03-2.04-2.03-5.3 0-7.33 2.02-2.03 5.3-2.03 7.3 0 2.03 2.02 2.03 5.3.02 7.3-1.02 1.02-2.24 1.53-3.67 1.53zm-2.13-3.02c.6.6 1.3.87 2.12.9 1.67 0 3.04-1.36 3.06-3.04-.02-.8-.3-1.52-.9-2.1-1.17-1.2-3.1-1.2-4.3-.02-1.16 1.18-1.16 3.1 0 4.27z" stroke="#fff" stroke-opacity="0" stroke-width="2" fill="#fff"/><use xlink:href="#c" transform="matrix(1,0,0,1,1590,329) translate(19.305555555555557 20.1171875)"/><use xlink:href="#d" transform="matrix(1,0,0,1,1590,329) translate(90.92013888888889 20.1171875)"/><path d="M1620 400h80v80h-80v-80z" stroke="#fff" stroke-opacity="0" stroke-width="2" fill="#ffc374"/><path d="M1676.9 462.6c-2.86 0-5.16-2.32-5.15-5.16 0-2.84 2.33-5.14 5.18-5.13 2.84.02 5.14 2.34 5.13 5.18 0 1.42-.5 2.63-1.52 3.63-1 1.02-2.22 1.52-3.65 1.5zm0-8.2c-1.7 0-3.05 1.37-3.05 3.05 0 .84.3 1.55.9 2.13 1.18 1.17 3.07 1.17 4.26 0 1.17-1.18 1.17-3.08 0-4.26-.58-.6-1.28-.9-2.1-.92zM1684.16 445.24c-2.85 0-5.17-2.33-5.16-5.2 0-2.84 2.33-5.16 5.18-5.15 2.86 0 5.18 2.32 5.17 5.17 0 1.43-.52 2.65-1.54 3.67-1 1-2.2 1.5-3.64 1.5zm0-8.22c-.84 0-1.56.3-2.15.9-1.2 1.17-1.2 3.1 0 4.3 1.18 1.18 3.1 1.2 4.3 0 .58-.6.88-1.3.9-2.14-.02-1.67-1.37-3.03-3.05-3.04zM1676.9 426.67c-2.87 0-5.2-2.32-5.2-5.18s2.33-5.18 5.2-5.18c2.84 0 5.16 2.32 5.16 5.17 0 1.42-.5 2.64-1.52 3.66-1 1-2.23 1.5-3.65 1.5zm0-8.22c-.85 0-1.57.3-2.16.9-1.2 1.2-1.17 3.12.02 4.3.58.6 1.3.87 2.12.9 1.67 0 3.05-1.36 3.06-3.04 0-.82-.3-1.53-.9-2.12-.58-.6-1.3-.9-2.15-.9zM1649.74 439.25l-3.62-3.63-1.52 1.5 1.8 1.82h-5.52c-.23-1-.68-1.8-1.4-2.53-2-2-5.28-2-7.3.02-2 2-2 5.28 0 7.3.76.76 1.6 1.2 2.64 1.4 2.8.58 5.52-1.24 6.08-4.04h5.5l-1.8 1.8 1.52 1.5 3.62-3.62c.4-.42.4-1.1 0-1.5zm-11.73 2.97c-1.03 1.32-2.93 1.56-4.27.52-1.32-1.03-1.55-2.93-.52-4.26.16-.2.34-.37.53-.53 1.2-1.16 3.08-1.16 4.28 0 1.16 1.2 1.16 3.1-.02 4.27z" stroke="#fff" stroke-opacity="0" stroke-width="2" fill="#fff"/><path d="M1676.33 439.26l-.33-.32-3.3-3.3-1.5 1.5 1.8 1.8h-6.4c.12-3 1.15-5.52 3.2-7.73.42-.4.42-1.07 0-1.47-.4-.43-1.08-.43-1.5 0-4.35 4.35-13.26 4.35-17.62 0-.42-.43-1.08-.43-1.5 0-.42.4-.42 1.08 0 1.48 4.36 4.4 4.36 13.27 0 17.64-.2.2-.3.45-.3.74 0 .3.1.56.3.75.42.42 1.08.42 1.5 0 4.36-4.36 13.27-4.36 17.63 0 .42.42 1.1.42 1.5 0 .2-.2.3-.45.3-.75s-.1-.55-.3-.74c-2.05-2.23-3.08-4.76-3.2-7.77h6.4l-1.8 1.8 1.5 1.5 3.63-3.62c.42-.4.42-1.08 0-1.5zm-10.83 6.8c-4.05-1.57-8.05-1.57-12.1 0 1.58-4.04 1.58-8.03 0-12.07 4.05 1.57 8.05 1.57 12.1 0-1.55 4.05-1.55 8.02 0 12.08zM1670.13 419.1c-6.65-3.38-13.75-3.53-20.53-.4l-.9-1.93c3.54-1.64 6.86-2.37 10.77-2.36 4.23.02 7.84.9 11.62 2.8zM1636.9 433.13l-2.04-.63c.68-2.23 1.5-4.04 2.74-6l1.8 1.12c-1.13 1.8-1.88 3.47-2.5 5.5zM1681.72 432.32c-.53-1.53-1.1-2.8-1.92-4.18l1.83-1.07c.9 1.52 1.55 2.9 2.14 4.57zM1681.93 452.13l-1.83-1.07c.8-1.4 1.4-2.65 1.92-4.18l2 .7c-.56 1.67-1.2 3.03-2.1 4.55zM1659.46 465.6c-4.13 0-7.67-.82-11.36-2.67l.94-1.9c6.93 3.4 14.3 3.34 21.17-.2l1 1.92c-3.8 1.95-7.44 2.83-11.74 2.84zM1637.2 452.83c-1.04-1.77-1.74-3.37-2.34-5.33l2.03-.63c.55 1.8 1.2 3.27 2.13 4.9zM1643.1 462.6c-2.84 0-5.14-2.32-5.13-5.16 0-2.84 2.33-5.14 5.18-5.13 2.84.02 5.14 2.34 5.13 5.18 0 1.42-.5 2.63-1.52 3.63-1 1.02-2.23 1.5-3.66 1.5zm0-8.2c-.84 0-1.56.3-2.16.9-1.18 1.2-1.18 3.12 0 4.3 1.2 1.2 3.12 1.2 4.3 0 1.2-1.2 1.2-3.12 0-4.3-.6-.6-1.3-.9-2.14-.9zM1643.1 426.67c-1.42 0-2.65-.5-3.65-1.5-2.03-2.04-2.03-5.3 0-7.33 2.02-2.03 5.3-2.03 7.3 0 2.03 2.02 2.03 5.3.02 7.3-1.02 1.02-2.24 1.53-3.67 1.53zm-2.13-3.02c.6.6 1.3.87 2.12.9 1.67 0 3.04-1.36 3.06-3.04-.02-.8-.3-1.52-.9-2.1-1.17-1.2-3.1-1.2-4.3-.02-1.16 1.18-1.16 3.1 0 4.27z" stroke="#fff" stroke-opacity="0" stroke-width="2" fill="#fff"/><use xlink:href="#c" transform="matrix(1,0,0,1,1590,489) translate(11.845703125 20.1171875)"/><use xlink:href="#e" transform="matrix(1,0,0,1,1590,489) translate(83.46028645833333 20.1171875)"/><path d="M1129.53 352.3l-20.9-35.92c-1.63-2.9-4.47-4.5-7.82-4.6h-41.6c-3.36.1-6.2 1.7-7.82 4.6l-20.9 35.82c-1.64 2.8-1.64 6.05 0 8.94l20.9 36.1c1.62 2.97 4.36 4.68 7.8 4.77h41.63c3.36-.08 6.2-1.8 7.82-4.77l20.9-35.82c1.64-2.97 1.64-6.22 0-9.1z" stroke="#000" stroke-opacity="0" fill="#4285f4"/><path d="M1097.05 340.14l-16.6-5.75-15.6 6.42-6.9 14.33 4.93 18.86 27.48 28h10.47c3.38-.14 6.2-1.83 7.83-4.74l16.82-29z" stroke="#000" stroke-opacity="0" fill-opacity=".07"/><path d="M1080 333.16c-13.35 0-24.2 10.73-24.2 23.94 0 13.22 10.85 23.94 24.2 23.94 13.34 0 24.18-10.72 24.18-23.94 0-13.2-10.84-23.94-24.18-23.94zm0 43.14c-3.73 0-6.92-.9-10.1-2.82l8.64-4.98v-10.73l-9.43-5.4v10.77l6.7 3.83-8.38 4.78c-8.17-6.9-9.14-19-2.22-27.05 1.6-1.82 3.2-3.16 5.32-4.3v9.57l9.48 5.4 9.43-5.4-9.43-5.4-6.68 3.82v-9.3c10-3.74 21.2 1.3 24.9 11.2.88 2.3 1.27 4.36 1.27 6.8v.2l-8.72-4.94-9.43 5.37v10.82l9.43-5.4v-7.63l8.32 4.8c-1.55 9.33-9.53 15.98-19.1 16.03z" stroke="#000" stroke-opacity="0" fill="#fff"/><use xlink:href="#f" transform="matrix(1,0,0,1,1029.2487916337113,407.01203124999995) translate(10.711371527777786 20.1171875)"/><use xlink:href="#g" transform="matrix(1,0,0,1,1029.2487916337113,407.01203124999995) translate(62.56684027777778 20.1171875)"/><path d="M1279.06 356.9H1149.2" stroke="#19967d" stroke-width="2" fill="none"/><path d="M1280 356.16l.12 1.73h-1.1v-2h1.04z" fill="#19967d"/><path d="M1133.95 356.9l14.26-4.64v9.27z" stroke="#19967d" stroke-width="2" fill="#19967d"/><path d="M1200 120h80v80h-80v-80z" stroke="#fff" stroke-opacity="0" stroke-width="2" fill="#0c7cba"/><path d="M1224 149.07h-9.6c-.6 0-1.07.47-1.07 1.05v34.16c0 .58.48 1.05 1.07 1.05h9.6c.6 0 1.07-.47 1.07-1.05v-34.16c0-.58-.48-1.05-1.07-1.05zm-1.07 34.12h-7.46v-32h7.46zM1238.93 178.3v5.96c0 .6-.48 1.07-1.06 1.07h-9.6c-.6 0-1.07-.48-1.07-1.07v-18.4c.36 2.1 1.02 3.8 2.14 5.6v11.73h7.46v-5.6c.73.32 1.37.53 2.13.7zM1238.93 143.74v3.78c-.77.2-1.4.43-2.13.74v-3.46h-7.46v9.6c-1.12 1.8-1.78 3.5-2.14 5.6v-16.26c0-.6.48-1.07 1.07-1.07h9.6c.58 0 1.06.48 1.06 1.07zM1250.66 179.2v3.98h-7.46v-4.25c-.75 0-1.38-.05-2.13-.15v5.48c0 .6.48 1.07 1.06 1.07h9.6c.6 0 1.07-.46 1.07-1.07v-2.97zm1.07-45.07h-9.6c-.58 0-1.06.46-1.06 1.08v11.9c.75-.12 1.38-.17 2.13-.17v-10.65h7.46v12.5c.8.46 1.44.87 2.14 1.38V135.2c0-.6-.48-1.07-1.07-1.07zM1265.6 139.47h-9.6c-.6 0-1.07.48-1.07 1.07v11.57c.87.93 1.5 1.82 2.14 2.93v-13.4h7.46v32.75l2.14 2.15v-36c0-.58-.48-1.06-1.07-1.06z" stroke="#fff" stroke-opacity="0" stroke-width="2" fill="#fff"/><path d="M1265.37 178.3l-9.6-9.6c1.86-4.07 1.75-8.3-.34-12.3-3.6-6.73-11.96-9.3-18.73-5.74-6.76 3.58-9.38 11.94-5.8 18.73 3.6 6.77 11.97 9.35 18.77 5.77l9.42 9.44c1.74 1.74 4.55 1.74 6.27 0 1.75-1.72 1.75-4.52 0-6.26zm-33.9-15.4c0-6.45 5.23-11.72 11.74-11.72 6.47 0 11.74 5.27 11.74 11.72 0 6.5-5.27 11.76-11.73 11.76-6.5 0-11.73-5.27-11.73-11.76zm32.4 20.16c-.9.9-2.35.9-3.3 0l-9.07-9.1c1.3-.96 2.28-2 3.22-3.36l9.15 9.22c.9.88.9 2.36 0 3.24z" stroke="#fff" stroke-opacity="0" stroke-width="2" fill="#fff"/><path d="M1238.47 168c-3.1-2.2-3.8-6.52-1.6-9.6 2.23-3.1 6.53-3.82 9.62-1.6l.18.13-1.28 1.7c-2.1-1.55-5.1-1.1-6.65 1-1.56 2.12-1.12 5.1 1 6.66z" stroke="#fff" stroke-opacity="0" stroke-width="2" fill="#fff"/><use xlink:href="#h" transform="matrix(1,0,0,1,1170,209) translate(4.619140625 20.1171875)"/><path d="M1082.94 310.78V166c0-3.3 2.68-6 6-6h92.56" stroke="#19967d" stroke-width="2" fill="none"/><path d="M1083.94 311.78h-2v-1.03h2z" fill="#19967d"/><path d="M1196.76 160l-14.26 4.64v-9.28z" stroke="#19967d" stroke-width="2" fill="#19967d"/><path d="M866.78 352.3l-20.9-35.92c-1.63-2.9-4.47-4.5-7.82-4.6h-41.62c-3.35.1-6.2 1.7-7.8 4.6L767.7 352.2c-1.63 2.8-1.63 6.05 0 8.94l20.9 36.1c1.63 2.97 4.37 4.68 7.82 4.77h41.62c3.35-.08 6.2-1.8 7.8-4.77l20.92-35.82c1.63-2.97 1.63-6.22 0-9.1z" stroke="#000" stroke-opacity="0" fill="#4285f4"/><path d="M825.87 338.76l-9.2-3.25-8.14 9.85 5.56 5.5-3.05 2.87-5.57-5.45-10.03 8.05 3.5 9.1 36.9 36.57h2.25c3.37-.14 6.15-1.8 7.83-4.8l14.24-24.46z" stroke="#000" stroke-opacity="0" fill-opacity=".07"/><path d="M817.24 330.2l-8.7 8.65v6.5l8.7-8.62 8.72 8.63v-6.5l-8.72-8.65zM817.24 383.55l-8.7-8.63v-6.5l8.7 8.62 8.72-8.63v6.52l-8.72 8.63zM790.3 356.88l8.72 8.63h6.58l-8.72-8.62 8.72-8.63h-6.58l-8.72 8.63zM844.2 356.88l-8.74 8.63h-6.58l8.73-8.62-8.72-8.63h6.58l8.73 8.63zM809.3 348.25h15.88c.52 0 .78.26.78.78v15.7c0 .52-.26.78-.78.78H809.3c-.5 0-.77-.25-.77-.76v-15.7c0-.53.26-.8.78-.8z" stroke="#000" stroke-opacity="0" fill="#fff"/><use xlink:href="#f" transform="matrix(1,0,0,1,766.4975832674224,407.01203124999995) translate(4.927951388888893 20.1171875)"/><use xlink:href="#i" transform="matrix(1,0,0,1,766.4975832674224,407.01203124999995) translate(56.783420138888886 20.1171875)"/><path d="M1028.3 356.9H886.47" stroke="#19967d" stroke-width="2" fill="none"/><path d="M1029.26 356.16l.1 1.73h-1.08v-2h1.03z" fill="#19967d"/><path d="M871.2 356.9l14.26-4.64v9.27z" stroke="#19967d" stroke-width="2" fill="#19967d"/><path d="M960 472.9c0-3.32 2.7-6 6-6h228c3.3 0 6 2.68 6 6v48c0 3.3-2.7 6-6 6H966c-3.3 0-6-2.7-6-6z" stroke="#000" stroke-opacity="0" stroke-width="3" fill="#fff" fill-opacity="0"/><g><use xlink:href="#j" transform="matrix(1,0,0,1,965,471.895) translate(84.87684461805556 35.52734375)"/></g><defs><path fill="#333" d="M0-1352c11-81 42-121 112-111 64 9 95 43 95 90v1196h587c58 0 92 37 103 111-19 64-54 96-103 96H102C47 30 0-3 0-73v-1279" id="k"/><path fill="#333" d="M281-987c298-161 591-47 744 229 46 83 69 171 60 275-6 69-46 102-101 102H235c19 66 70 131 163 171 131 56 208 38 340-26 85-2 126 39 126 109 0 79-98 142-297 157C349 47 192-51 71-243 19-326 0-419 0-513c0-199 87-369 281-474zm-64 400h655c0-25-28-74-83-149-92-80-150-106-261-106-109 0-201 53-270 162-26 42-38 74-41 93" id="l"/><path fill="#333" d="M410-518l-125 80v370c0 55-35 98-106 98-51 0-85-31-102-94v-1302c18-73 47-108 112-99s96 44 96 91v690c326-216 521-342 586-379 79-6 129 24 129 107 0 44-49 84-136 138-152 95-241 164-276 189l406 514c19 80-31 141-103 141-40 0-86-51-157-140" id="m"/><g id="a"><use transform="matrix(0.010850694444444444,0,0,0.010850694444444444,0,0)" xlink:href="#k"/><use transform="matrix(0.010850694444444444,0,0,0.010850694444444444,10.319010416666666,0)" xlink:href="#l"/><use transform="matrix(0.010850694444444444,0,0,0.010850694444444444,22.60199652777778,0)" xlink:href="#l"/><use transform="matrix(0.010850694444444444,0,0,0.010850694444444444,34.884982638888886,0)" xlink:href="#m"/></g><path fill="#333" d="M709-744l-121-317-117 317h238zm-214-661c95-105 169-42 222 107 284 794 457 1194 459 1217 5 66-30 111-105 111-60 0-86-54-123-149L787-537H389L187-4c-36 25-56 39-89 34C29 20-3-17 0-80c134-370 513-1345 495-1325" id="n"/><path fill="#333" d="M237-952c245-171 548-124 724 101 118 151 118 245 118 443V41c0 94-63 202-206 299C588 534 246 452 58 181-3 92 2 6 114-15c62-11 93 31 125 108 81 102 183 153 305 153 146 0 255-65 328-196 9-39 5-90 6-137C789-5 676 27 525 27c-145 0-291-59-405-204C-82-434-22-771 237-952zm-7 321c-78 197 8 368 199 436 201 72 343-17 433-201 51-212-19-344-205-434-209-51-353 12-427 199" id="o"/><path fill="#333" d="M187-1053c70 20 101 48 97 109 80-73 188-109 324-109 149 0 286 59 397 186 88 101 126 214 126 329v475c0 51-37 86-108 93-65-12-98-46-98-101v-418c0-173-71-297-221-341-185-54-308 18-394 179-20 37-26 102-26 192v392c0 54-35 97-105 97C124 30 78-3 78-72v-867c8-76 44-114 109-114" id="p"/><path fill="#333" d="M194-1311c10-79 41-119 110-109 63 9 93 43 93 89v300c51-1 107-4 152-4 51 0 85 33 101 100 0 50-29 86-88 107-51-5-109-4-165-4v509c0 80 23 128 68 143 39 3 75 8 119 7 50-1 84 36 92 106-14 96-76 97-177 97-129 0-228-69-288-210-14-34-17-76-17-121v-531c-38-1-72 2-106 4-59-21-88-56-88-106 0-66 33-97 66-97v-7c40 5 81 9 128 7v-280" id="q"/><g id="b"><use transform="matrix(0.010850694444444444,0,0,0.010850694444444444,0,0)" xlink:href="#n"/><use transform="matrix(0.010850694444444444,0,0,0.010850694444444444,12.923177083333332,0)" xlink:href="#o"/><use transform="matrix(0.010850694444444444,0,0,0.010850694444444444,25.34722222222222,0)" xlink:href="#l"/><use transform="matrix(0.010850694444444444,0,0,0.010850694444444444,37.63020833333333,0)" xlink:href="#p"/><use transform="matrix(0.010850694444444444,0,0,0.010850694444444444,50.61848958333333,0)" xlink:href="#q"/></g><path fill="#333" d="M347-1459c197 0 403 169 403 396 0 93-28 172-85 237 152 83 228 217 228 400 0 184-91 334-286 424C465 63 284 21 99 30 33 18 0-16 0-72v-1287c10-67 34-100 72-100v-8c79 15 184 8 275 8zm-31 570c139-1 223-57 223-189 0-83-48-139-145-170-59-5-123-4-187-4v363h109zM207-682v505h166c133 0 219-38 265-110 29-45 44-90 44-146 0-121-64-212-198-242-84-19-182-7-277-7" id="r"/><path fill="#333" d="M208-1061c71 21 102 48 98 110 136-120 364-147 555-56 30 33 48 58 43 92-9 69-46 101-110 98-220-79-380-21-468 177-16 36-20 79-20 128v444c0 55-35 98-106 98C145 30 99-3 99-72v-874c8-77 44-115 109-115" id="s"/><path fill="#333" d="M232-949c224-158 497-128 685 59 110 110 161 240 161 381 0 202-92 366-286 476-93 52-171 63-272 63-145 0-291-59-405-204C-87-431-26-767 232-949zm637 447c0-173-142-337-334-337-141 0-258 69-310 222-62 180 11 319 165 405 49 27 97 33 160 33 129 0 231-65 296-201 19-40 23-82 23-122" id="t"/><g id="c"><use transform="matrix(0.010850694444444444,0,0,0.010850694444444444,0,0)" xlink:href="#r"/><use transform="matrix(0.010850694444444444,0,0,0.010850694444444444,10.23220486111111,0)" xlink:href="#s"/><use transform="matrix(0.010850694444444444,0,0,0.010850694444444444,20.26909722222222,0)" xlink:href="#t"/><use transform="matrix(0.010850694444444444,0,0,0.010850694444444444,32.32421875,0)" xlink:href="#m"/><use transform="matrix(0.010850694444444444,0,0,0.010850694444444444,43.78255208333333,0)" xlink:href="#l"/><use transform="matrix(0.010850694444444444,0,0,0.010850694444444444,56.06553819444444,0)" xlink:href="#s"/></g><path fill="#333" d="M748-1258c-270 0-541 237-541 548 0 173 75 321 230 437 174 131 456 131 622-2-89-97-141-157-156-181-3-88 37-133 109-133 35 0 84 39 147 116l47 47c55-90 82-187 82-292 0-195-88-353-269-465-86-53-178-75-271-75zm600 985c103 105 151 160 151 201 0 53-34 87-103 102-41 0-96-43-167-130-19-14-28-21-29-21C1066-18 918 30 740 30 483 30 270-87 111-328 33-447 0-580 0-721c0-239 101-444 314-602 134-99 282-142 434-142 252 0 476 108 633 350 176 269 151 590-33 842" id="u"/><g id="d"><use transform="matrix(0.010850694444444444,0,0,0.010850694444444444,0,0)" xlink:href="#u"/><use transform="matrix(0.010850694444444444,0,0,0.010850694444444444,16.85112847222222,0)" xlink:href="#n"/></g><path fill="#333" d="M94-1468h346c145 0 282 67 371 224 124 220 63 440-126 585-80 61-165 86-245 86H208v505c0 54-35 98-106 98C47 30 0-3 0-73v-1283c8-75 39-112 94-112zm114 208v479h205c113 0 197-52 234-163 45-137-14-244-141-300-74-32-199-10-298-16" id="v"/><path fill="#333" d="M884-1371c24-67 51-100 112-91 64 9 95 44 95 91 2 291 4 591 4 876 0 105-36 221-128 329-232 271-623 276-850-11C-90-439-24-775 236-965c192-141 487-131 652 18-2-141 4-290-4-424zM228-639c-80 201 7 376 202 445 205 73 349-17 441-205 54-215-19-350-209-442-211-53-359 12-434 202" id="w"/><g id="e"><use transform="matrix(0.010850694444444444,0,0,0.010850694444444444,0,0)" xlink:href="#v"/><use transform="matrix(0.010850694444444444,0,0,0.010850694444444444,9.950086805555555,0)" xlink:href="#s"/><use transform="matrix(0.010850694444444444,0,0,0.010850694444444444,19.986979166666664,0)" xlink:href="#t"/><use transform="matrix(0.010850694444444444,0,0,0.010850694444444444,32.04210069444444,0)" xlink:href="#w"/></g><g id="f"><use transform="matrix(0.010850694444444444,0,0,0.010850694444444444,0,0)" xlink:href="#k"/><use transform="matrix(0.010850694444444444,0,0,0.010850694444444444,10.319010416666666,0)" xlink:href="#l"/><use transform="matrix(0.010850694444444444,0,0,0.010850694444444444,22.60199652777778,0)" xlink:href="#l"/><use transform="matrix(0.010850694444444444,0,0,0.010850694444444444,34.884982638888886,0)" xlink:href="#m"/></g><path fill="#333" d="M160-1479c46 8 107 2 160 4l18-4c71 15 106 52 106 110 0 70-46 103-102 103h14v1087h-7c51 0 87 38 95 110-12 66-46 99-102 99H159C91 17 52-18 60-79c8-67 46-100 95-100h-7v-1087h14c-61 0-102-38-102-114 0-47 33-80 100-99" id="x"/><g id="g"><use transform="matrix(0.010850694444444444,0,0,0.010850694444444444,0,0)" xlink:href="#n"/><use transform="matrix(0.010850694444444444,0,0,0.010850694444444444,12.923177083333332,0)" xlink:href="#v"/><use transform="matrix(0.010850694444444444,0,0,0.010850694444444444,22.87326388888889,0)" xlink:href="#x"/></g><path fill="#333" d="M72-1479l52 11h737c70-14 115 30 125 110-14 65-52 98-113 98H208v452c159-2 326-4 478-4 51 0 84 34 99 103 0 49-29 85-86 109-157-8-328-2-491-4v426h683c53 0 85 37 96 112-19 64-52 96-99 96H99C33 18 0-16 0-72v-1296c10-67 34-100 72-100v-11" id="y"/><path fill="#333" d="M65-1347c11-80 42-120 112-110 64 9 95 43 95 90v1190c90-8 127 15 143 107C404-3 370 30 313 30H167C112 30 65-3 65-72v-1275" id="z"/><path fill="#333" d="M226-631c-73 195 7 356 186 431 181 75 336 15 425-147 103-187 31-388-155-470-197-87-383-8-456 186zM878-84C790-3 678 30 527 30 343 30 172-52 67-246-95-543 9-849 296-994c299-151 579-34 732 241 44 78 55 166 55 253v433c0 54-35 97-105 97-45 0-79-27-101-80 0-12 1-23 1-34" id="A"/><path fill="#333" d="M700-313c14-22-4-31-37-38-338-72-516-125-540-144C56-549 20-611 20-688c0-104 67-213 218-296 260-144 526-47 670 190 16 82-12 143-98 143-45 0-87-32-126-96-134-136-364-117-450 55-13 27 22 23 84 37 288 64 445 110 475 121 83 55 124 123 123 208 0 114-74 230-242 309C426 99 196 19 48-194c-51-73-21-170 89-173 35 0 77 34 125 103 59 55 127 82 206 82 93 0 174-42 232-131" id="B"/><path fill="#333" d="M211-1316c74 22 99 48 99 116 0 53-35 94-107 94-51 0-85-35-101-105 14-70 50-105 109-105zm0 256c66 17 99 48 99 94v898c0 55-35 98-106 98-55 0-101-33-101-102v-874c8-76 44-114 108-114" id="C"/><path fill="#333" d="M234-957c228-160 497-124 693 61 45 72-11 162-88 162-25 0-66-31-136-75-54-34-106-38-171-38-133 0-245 65-302 210-78 198 3 357 187 437 144 63 254 21 374-79 78-25 153 1 153 95 0 65-85 141-262 198-73 23-102 16-158 16-147 0-293-60-408-206C-88-436-27-774 234-957" id="D"/><path fill="#333" d="M852-420c0 229-201 450-454 450-155 0-284-68-387-204L0-217c13-69 47-103 104-103 36 0 77 29 123 88 151 103 319 72 403-96 39-160-3-249-141-328l-195-54C129-809 58-921 58-1093c0-145 72-270 231-340 206-91 373-15 499 151 22 76-4 143-94 143-31 0-72-29-125-88-133-85-306-18-305 165 0 83 50 143 150 180 87 0 188 36 287 126 106 96 151 214 151 336" id="E"/><path fill="#333" d="M48-1362c18-72 47-107 112-98 64 9 95 43 95 90v396c69-60 163-90 280-90 179 0 325 82 429 253 44 73 61 147 61 215v528c0 55-35 98-105 98-51 0-85-31-102-94v-510c0-123-60-224-191-266-173-56-297 25-359 190-11 28-13 78-13 148v434c0 55-35 98-105 98C99 30 65-1 48-64v-1298" id="F"/><g id="h"><use transform="matrix(0.010850694444444444,0,0,0.010850694444444444,0,0)" xlink:href="#y"/><use transform="matrix(0.010850694444444444,0,0,0.010850694444444444,11.187065972222221,0)" xlink:href="#z"/><use transform="matrix(0.010850694444444444,0,0,0.010850694444444444,16.319444444444443,0)" xlink:href="#A"/><use transform="matrix(0.010850694444444444,0,0,0.010850694444444444,29.361979166666664,0)" xlink:href="#B"/><use transform="matrix(0.010850694444444444,0,0,0.010850694444444444,39.865451388888886,0)" xlink:href="#q"/><use transform="matrix(0.010850694444444444,0,0,0.010850694444444444,47.36328125,0)" xlink:href="#C"/><use transform="matrix(0.010850694444444444,0,0,0.010850694444444444,52.03993055555556,0)" xlink:href="#D"/><use transform="matrix(0.010850694444444444,0,0,0.010850694444444444,62.912326388888886,0)" xlink:href="#E"/><use transform="matrix(0.010850694444444444,0,0,0.010850694444444444,72.59114583333333,0)" xlink:href="#l"/><use transform="matrix(0.010850694444444444,0,0,0.010850694444444444,84.87413194444444,0)" xlink:href="#A"/><use transform="matrix(0.010850694444444444,0,0,0.010850694444444444,97.91666666666666,0)" xlink:href="#s"/><use transform="matrix(0.010850694444444444,0,0,0.010850694444444444,107.95355902777777,0)" xlink:href="#D"/><use transform="matrix(0.010850694444444444,0,0,0.010850694444444444,118.8259548611111,0)" xlink:href="#F"/></g><path fill="#333" d="M850-993L570-20c-33 37-57 50-103 50-59 0-84-58-114-167C150-876 19-1283 0-1364c19-74 47-102 111-102 59 0 86 48 112 137l254 885c180-633 277-961 292-985 28-27 51-37 88-37 62 0 101 53 116 159 17 46 100 333 250 861l282-970c33-38 53-58 98-50 73 13 101 45 95 113L1311-14c-96 91-173 34-211-120-109-441-212-724-250-859" id="G"/><g id="i"><use transform="matrix(0.010850694444444444,0,0,0.010850694444444444,0,0)" xlink:href="#G"/><use transform="matrix(0.010850694444444444,0,0,0.010850694444444444,18.86935763888889,0)" xlink:href="#y"/><use transform="matrix(0.010850694444444444,0,0,0.010850694444444444,30.05642361111111,0)" xlink:href="#r"/></g><g id="j"><use transform="matrix(0.014105902777777776,0,0,0.014105902777777776,0,0)" xlink:href="#k"/><use transform="matrix(0.014105902777777776,0,0,0.014105902777777776,13.414713541666666,0)" xlink:href="#l"/><use transform="matrix(0.014105902777777776,0,0,0.014105902777777776,29.382595486111107,0)" xlink:href="#l"/><use transform="matrix(0.014105902777777776,0,0,0.014105902777777776,45.35047743055555,0)" xlink:href="#m"/></g></defs></g></svg>