<svg xmlns="http://www.w3.org/2000/svg" xmlns:xlink="http://www.w3.org/1999/xlink" xmlns:lucid="lucid" width="1036" height="472"><g transform="translate(-704 -80)" lucid:page-tab-id="0_0"><path d="M724 266c0-3.3 2.7-6 6-6h724c3.3 0 6 2.7 6 6v194.9c0 3.3-2.7 6-6 6H730c-3.3 0-6-2.7-6-6z" stroke="#5e5e5e" stroke-width="3" fill="#fff"/><path d="M1406.46 351.1l-26.36-45.3c-2.05-3.64-5.64-5.7-9.86-5.8h-52.48c-4.22.1-7.8 2.16-9.86 5.8l-26.36 45.18c-2.05 3.53-2.05 7.62 0 11.26l26.36 45.52c2.05 3.75 5.5 5.92 9.86 6.03h52.48c4.22-.12 7.8-2.3 9.86-6.04l26.36-45.18c2.05-3.75 2.05-7.85 0-11.5z" stroke="#000" stroke-opacity="0" fill="#4285f4"/><path d="M1365.5 335.77l-20.95-7.25-19.67 8.1-8.68 18.07 6.2 23.78 34.67 35.3h13.2c4.26-.18 7.83-2.3 9.88-5.98l21.2-36.57z" stroke="#000" stroke-opacity="0" fill-opacity=".07"/><path d="M1344 326.97c-16.84 0-30.5 13.52-30.5 30.2 0 16.65 13.66 30.18 30.5 30.18 16.83 0 30.5-13.53 30.5-30.2 0-16.66-13.67-30.18-30.5-30.18zm0 54.4c-4.7 0-8.73-1.15-12.75-3.56l10.9-6.27V358l-11.88-6.82v13.6l8.42 4.82-10.56 6.03c-10.3-8.7-11.53-23.97-2.8-34.1 2-2.3 4.02-4 6.7-5.45v12.08l11.95 6.82 11.9-6.82-11.9-6.82-8.42 4.83v-11.72c12.62-4.7 26.7 1.63 31.4 14.13 1.1 2.9 1.6 5.5 1.6 8.58v.24l-10.98-6.22-11.9 6.76v13.65l11.9-6.83v-9.6l10.5 6.03c-1.97 11.78-12.03 20.17-24.1 20.23z" stroke="#000" stroke-opacity="0" fill="#fff"/><use xlink:href="#a" transform="matrix(1,0,0,1,1280,418.79) translate(9.014105902777786 20.1171875)"/><use xlink:href="#b" transform="matrix(1,0,0,1,1280,418.79) translate(60.86957465277778 20.1171875)"/><path d="M1599 440h-63c-3.3 0-6-2.7-6-6v-38.35c0-3.32-2.7-6-6-6h-114.83" stroke="#5e5e5e" stroke-width="2" fill="none"/><path d="M1600 441h-1.03v-2h1.03z" fill="#5e5e5e"/><path d="M1393.9 389.65l14.27-4.64v9.28z" stroke="#5e5e5e" stroke-width="2" fill="#5e5e5e"/><path d="M1599 260h-63c-3.3 0-6 2.7-6 6v48.5c0 3.3-2.7 6-6 6h-116.85" stroke="#5e5e5e" stroke-width="2" fill="none"/><path d="M1600 261h-1.03v-2h1.03z" fill="#5e5e5e"/><path d="M1391.9 320.5l14.25-4.64v9.27z" stroke="#5e5e5e" stroke-width="2" fill="#5e5e5e"/><path d="M1600 200h120v120h-120V200z" stroke="#fff" stroke-opacity="0" stroke-width="2" fill="#cc2264"/><path d="M1685.33 293.92c-4.27-.02-7.7-3.5-7.7-7.76.02-4.26 3.5-7.7 7.76-7.7 4.26.02 7.7 3.5 7.7 7.76-.03 2.14-.77 3.94-2.3 5.44-1.5 1.52-3.32 2.28-5.47 2.26zm0-12.3c-2.52 0-4.56 2.04-4.56 4.56 0 1.25.45 2.32 1.34 3.2 1.8 1.74 4.63 1.74 6.4 0 1.76-1.78 1.76-4.63 0-6.4-.87-.9-1.92-1.35-3.17-1.38zM1696.24 267.86c-4.28-.02-7.76-3.5-7.74-7.78 0-4.28 3.5-7.76 7.77-7.74 4.3 0 7.76 3.5 7.75 7.77 0 2.15-.78 3.98-2.3 5.5-1.52 1.5-3.34 2.26-5.48 2.26zm0-12.33c-1.25 0-2.34.44-3.23 1.34-1.8 1.77-1.8 4.65 0 6.44 1.77 1.8 4.65 1.8 6.44.02.88-.88 1.33-1.94 1.35-3.2-.03-2.5-2.06-4.54-4.57-4.56zM1685.33 240c-4.28 0-7.76-3.48-7.76-7.76 0-4.28 3.48-7.76 7.76-7.76 4.28 0 7.76 3.48 7.76 7.76 0 2.14-.77 3.97-2.3 5.5-1.5 1.5-3.33 2.26-5.47 2.26zm0-12.32c-1.26 0-2.33.45-3.2 1.35-1.8 1.78-1.78 4.67 0 6.44.9.88 1.94 1.32 3.18 1.33 2.53.02 4.6-2 4.6-4.53 0-1.26-.44-2.3-1.33-3.2-.88-.9-1.97-1.35-3.24-1.35zM1644.6 258.88l-5.43-5.44-2.26 2.26 2.7 2.7h-8.28c-.34-1.5-1-2.7-2.1-3.8-3-3-7.92-3-10.95.03-3.02 3.02-3.02 7.92 0 10.96 1.14 1.12 2.4 1.8 3.96 2.1 4.2.85 8.28-1.88 9.12-6.08h8.26l-2.7 2.7 2.27 2.26 5.44-5.44c.62-.64.62-1.64 0-2.26zm-17.58 4.45c-1.57 1.98-4.42 2.34-6.42.8-1.98-1.56-2.33-4.42-.8-6.42.25-.3.5-.53.8-.78 1.8-1.73 4.62-1.73 6.42 0 1.72 1.8 1.72 4.64-.06 6.4z" stroke="#fff" stroke-opacity="0" stroke-width="2" fill="#fff"/><path d="M1684.5 258.9l-.5-.48-4.96-4.97-2.25 2.26 2.7 2.72h-9.58c.17-4.5 1.7-8.3 4.8-11.6.6-.6.6-1.63 0-2.23-.64-.65-1.63-.65-2.26 0-6.54 6.52-19.9 6.52-26.44 0-.63-.65-1.63-.65-2.25 0-.63.6-.63 1.6 0 2.22 6.54 6.56 6.54 19.88 0 26.44-.3.3-.46.67-.46 1.12 0 .44.18.82.47 1.1.62.65 1.62.65 2.25 0 6.54-6.52 19.9-6.52 26.44 0 .63.65 1.62.65 2.25 0 .3-.28.47-.66.47-1.1 0-.45-.17-.83-.46-1.12-3.07-3.34-4.6-7.13-4.78-11.66h9.58l-2.7 2.7 2.24 2.27 5.46-5.45c.62-.6.62-1.62 0-2.23zm-16.25 10.2c-6.08-2.37-12.07-2.37-18.15 0 2.37-6.07 2.37-12.05 0-18.1 6.08 2.35 12.07 2.35 18.15 0-2.33 6.08-2.33 12.03 0 18.12zM1675.2 228.67c-9.98-5.1-20.62-5.3-30.8-.62l-1.34-2.9c5.3-2.46 10.27-3.56 16.15-3.53 6.36 0 11.76 1.3 17.44 4.2zM1625.34 249.7l-3.05-.95c1-3.34 2.24-6.06 4.1-9.02l2.7 1.7c-1.7 2.7-2.82 5.2-3.76 8.27zM1692.58 248.48c-.8-2.3-1.65-4.18-2.88-6.27l2.75-1.6c1.36 2.3 2.32 4.34 3.2 6.86zM1692.9 278.2l-2.76-1.6c1.23-2.1 2.1-3.98 2.9-6.28l3 1.04c-.85 2.5-1.8 4.55-3.14 6.83zM1659.2 298.38c-6.2.03-11.5-1.2-17.06-3.98l1.42-2.87c10.4 5.12 21.46 5.02 31.75-.27l1.5 2.87c-5.72 2.92-11.16 4.25-17.6 4.25zM1625.78 279.25c-1.55-2.66-2.6-5.06-3.5-8l3.06-.95c.83 2.7 1.8 4.9 3.2 7.35zM1634.66 293.92c-4.27-.02-7.72-3.5-7.7-7.76 0-4.26 3.5-7.7 7.76-7.7 4.26.02 7.7 3.5 7.7 7.76-.02 2.14-.76 3.94-2.28 5.44-1.5 1.52-3.35 2.26-5.48 2.26zm0-12.3c-1.27 0-2.35.45-3.25 1.34-1.77 1.78-1.77 4.67.03 6.45 1.77 1.78 4.66 1.78 6.44 0 1.78-1.8 1.78-4.68 0-6.45-.9-.9-1.96-1.35-3.2-1.35zM1634.65 240c-2.14 0-3.97-.76-5.47-2.27-3.05-3.04-3.05-7.94-.02-10.97 3.04-3.04 7.95-3.04 10.97 0 3.04 3.03 3.04 7.93.02 10.96-1.52 1.52-3.35 2.28-5.5 2.28zm-3.2-4.53c.9.88 1.95 1.32 3.2 1.33 2.5.02 4.57-2 4.58-4.53 0-1.24-.45-2.3-1.33-3.18-1.77-1.8-4.66-1.8-6.44-.03-1.76 1.77-1.76 4.63 0 6.4z" stroke="#fff" stroke-opacity="0" stroke-width="2" fill="#fff"/><use xlink:href="#c" transform="matrix(1,0,0,1,1570,329) translate(39.30555555555556 20.1171875)"/><use xlink:href="#d" transform="matrix(1,0,0,1,1570,329) translate(110.92013888888889 20.1171875)"/><path d="M1600 380h120v120h-120V380z" stroke="#fff" stroke-opacity="0" stroke-width="2" fill="#cc2264"/><path d="M1685.33 473.92c-4.27-.02-7.7-3.5-7.7-7.76.02-4.26 3.5-7.7 7.76-7.7 4.26.02 7.7 3.5 7.7 7.76-.03 2.14-.77 3.94-2.3 5.44-1.5 1.52-3.32 2.28-5.47 2.26zm0-12.3c-2.52 0-4.56 2.04-4.56 4.56 0 1.25.45 2.32 1.34 3.2 1.8 1.74 4.63 1.74 6.4 0 1.76-1.78 1.76-4.63 0-6.4-.87-.9-1.92-1.35-3.17-1.38zM1696.24 447.86c-4.28-.02-7.76-3.5-7.74-7.78 0-4.28 3.5-7.76 7.77-7.74 4.3 0 7.76 3.5 7.75 7.77 0 2.15-.78 3.98-2.3 5.5-1.52 1.5-3.34 2.26-5.48 2.26zm0-12.33c-1.25 0-2.34.44-3.23 1.34-1.8 1.77-1.8 4.65 0 6.44 1.77 1.8 4.65 1.8 6.44.02.88-.88 1.33-1.94 1.35-3.2-.03-2.5-2.06-4.54-4.57-4.56zM1685.33 420c-4.28 0-7.76-3.48-7.76-7.76 0-4.28 3.48-7.76 7.76-7.76 4.28 0 7.76 3.48 7.76 7.76 0 2.14-.77 3.97-2.3 5.5-1.5 1.5-3.33 2.26-5.47 2.26zm0-12.32c-1.26 0-2.33.45-3.2 1.35-1.8 1.78-1.78 4.67 0 6.44.9.88 1.94 1.32 3.18 1.33 2.53.02 4.6-2 4.6-4.53 0-1.26-.44-2.3-1.33-3.2-.88-.9-1.97-1.35-3.24-1.35zM1644.6 438.88l-5.43-5.44-2.26 2.26 2.7 2.7h-8.28c-.34-1.5-1-2.7-2.1-3.8-3-3-7.92-3-10.95.03-3.02 3.02-3.02 7.92 0 10.96 1.14 1.12 2.4 1.8 3.96 2.1 4.2.85 8.28-1.88 9.12-6.08h8.26l-2.7 2.7 2.27 2.26 5.44-5.44c.62-.64.62-1.64 0-2.26zm-17.58 4.45c-1.57 1.98-4.42 2.34-6.42.8-1.98-1.56-2.33-4.42-.8-6.42.25-.3.5-.53.8-.78 1.8-1.73 4.62-1.73 6.42 0 1.72 1.8 1.72 4.64-.06 6.4z" stroke="#fff" stroke-opacity="0" stroke-width="2" fill="#fff"/><path d="M1684.5 438.9l-.5-.48-4.96-4.97-2.25 2.26 2.7 2.72h-9.58c.17-4.5 1.7-8.3 4.8-11.6.6-.6.6-1.63 0-2.23-.64-.65-1.63-.65-2.26 0-6.54 6.52-19.9 6.52-26.44 0-.63-.65-1.63-.65-2.25 0-.63.6-.63 1.6 0 2.22 6.54 6.56 6.54 19.88 0 26.44-.3.3-.46.67-.46 1.12 0 .44.18.82.47 1.1.62.65 1.62.65 2.25 0 6.54-6.52 19.9-6.52 26.44 0 .63.65 1.62.65 2.25 0 .3-.28.47-.66.47-1.1 0-.45-.17-.83-.46-1.12-3.07-3.34-4.6-7.13-4.78-11.66h9.58l-2.7 2.7 2.24 2.27 5.46-5.45c.62-.6.62-1.62 0-2.23zm-16.25 10.2c-6.08-2.37-12.07-2.37-18.15 0 2.37-6.07 2.37-12.05 0-18.1 6.08 2.35 12.07 2.35 18.15 0-2.33 6.08-2.33 12.03 0 18.12zM1675.2 408.67c-9.98-5.1-20.62-5.3-30.8-.62l-1.34-2.9c5.3-2.46 10.27-3.56 16.15-3.53 6.36 0 11.76 1.3 17.44 4.2zM1625.34 429.7l-3.05-.95c1-3.34 2.24-6.06 4.1-9.02l2.7 1.7c-1.7 2.7-2.82 5.2-3.76 8.27zM1692.58 428.48c-.8-2.3-1.65-4.18-2.88-6.27l2.75-1.6c1.36 2.3 2.32 4.34 3.2 6.86zM1692.9 458.2l-2.76-1.6c1.23-2.1 2.1-3.98 2.9-6.28l3 1.04c-.85 2.5-1.8 4.55-3.14 6.83zM1659.2 478.38c-6.2.03-11.5-1.2-17.06-3.98l1.42-2.87c10.4 5.12 21.46 5.02 31.75-.27l1.5 2.87c-5.72 2.92-11.16 4.25-17.6 4.25zM1625.78 459.25c-1.55-2.66-2.6-5.06-3.5-8l3.06-.95c.83 2.7 1.8 4.9 3.2 7.35zM1634.66 473.92c-4.27-.02-7.72-3.5-7.7-7.76 0-4.26 3.5-7.7 7.76-7.7 4.26.02 7.7 3.5 7.7 7.76-.02 2.14-.76 3.94-2.28 5.44-1.5 1.52-3.35 2.26-5.48 2.26zm0-12.3c-1.27 0-2.35.45-3.25 1.34-1.77 1.78-1.77 4.67.03 6.45 1.77 1.78 4.66 1.78 6.44 0 1.78-1.8 1.78-4.68 0-6.45-.9-.9-1.96-1.35-3.2-1.35zM1634.65 420c-2.14 0-3.97-.76-5.47-2.27-3.05-3.04-3.05-7.94-.02-10.97 3.04-3.04 7.95-3.04 10.97 0 3.04 3.03 3.04 7.93.02 10.96-1.52 1.52-3.35 2.28-5.5 2.28zm-3.2-4.53c.9.88 1.95 1.32 3.2 1.33 2.5.02 4.57-2 4.58-4.53 0-1.24-.45-2.3-1.33-3.18-1.77-1.8-4.66-1.8-6.44-.03-1.76 1.77-1.76 4.63 0 6.4z" stroke="#fff" stroke-opacity="0" stroke-width="2" fill="#fff"/><use xlink:href="#c" transform="matrix(1,0,0,1,1570,509) translate(31.845703125 20.1171875)"/><use xlink:href="#e" transform="matrix(1,0,0,1,1570,509) translate(103.46028645833333 20.1171875)"/><path d="M1146.46 351.1l-26.36-45.3c-2.05-3.64-5.64-5.7-9.86-5.8h-52.48c-4.22.1-7.8 2.16-9.86 5.8l-26.36 45.18c-2.05 3.53-2.05 7.62 0 11.26l26.36 45.52c2.05 3.75 5.5 5.92 9.86 6.03h52.48c4.22-.12 7.8-2.3 9.86-6.04l26.36-45.18c2.05-3.75 2.05-7.85 0-11.5z" stroke="#000" stroke-opacity="0" fill="#4285f4"/><path d="M1105.5 335.77l-20.95-7.25-19.67 8.1-8.68 18.07 6.2 23.78 34.67 35.3h13.2c4.26-.18 7.83-2.3 9.88-5.98l21.2-36.57z" stroke="#000" stroke-opacity="0" fill-opacity=".07"/><path d="M1084 326.97c-16.84 0-30.5 13.52-30.5 30.2 0 16.65 13.66 30.18 30.5 30.18 16.83 0 30.5-13.53 30.5-30.2 0-16.66-13.67-30.18-30.5-30.18zm0 54.4c-4.7 0-8.73-1.15-12.75-3.56l10.9-6.27V358l-11.88-6.82v13.6l8.42 4.82-10.56 6.03c-10.3-8.7-11.53-23.97-2.8-34.1 2-2.3 4.02-4 6.7-5.45v12.08l11.95 6.82 11.9-6.82-11.9-6.82-8.42 4.83v-11.72c12.62-4.7 26.7 1.63 31.4 14.13 1.1 2.9 1.6 5.5 1.6 8.58v.24l-10.98-6.22-11.9 6.76v13.65l11.9-6.83v-9.6l10.5 6.03c-1.97 11.78-12.03 20.17-24.1 20.23z" stroke="#000" stroke-opacity="0" fill="#fff"/><use xlink:href="#a" transform="matrix(1,0,0,1,1020,418.79) translate(23.711371527777786 20.1171875)"/><use xlink:href="#f" transform="matrix(1,0,0,1,1020,418.79) translate(75.56684027777777 20.1171875)"/><path d="M1279.05 356.9h-112.6" stroke="#5e5e5e" stroke-width="2" fill="none"/><path d="M1280 356.54l.18 1.35h-1.16v-2h1.07z" fill="#5e5e5e"/><path d="M1151.2 356.9l14.26-4.64v9.27z" stroke="#5e5e5e" stroke-width="2" fill="#5e5e5e"/><path d="M1200 100h120v120h-120V100z" stroke="#fff" stroke-opacity="0" stroke-width="2" fill="#693cc5"/><path d="M1236 143.6h-14.4c-.88 0-1.6.7-1.6 1.58v51.24c0 .87.72 1.58 1.6 1.58h14.4c.88 0 1.6-.7 1.6-1.58v-51.24c0-.87-.72-1.58-1.6-1.58zm-1.6 51.2h-11.2v-48h11.2zM1258.4 187.46v8.93c0 .87-.72 1.6-1.6 1.6h-14.4c-.88 0-1.6-.73-1.6-1.6v-27.6c.55 3.12 1.53 5.7 3.2 8.38v17.6h11.2v-8.37c1.1.47 2.06.8 3.2 1.06zM1258.4 135.6v5.68c-1.16.3-2.1.65-3.2 1.1v-5.18H1244v14.4c-1.67 2.7-2.65 5.27-3.2 8.38V135.6c0-.87.72-1.6 1.6-1.6h14.4c.88 0 1.6.73 1.6 1.6zM1276 188.78v6h-11.2v-6.38c-1.12 0-2.07-.08-3.2-.23v8.22c0 .9.72 1.6 1.6 1.6h14.4c.88 0 1.6-.7 1.6-1.6v-4.47zm1.6-67.58h-14.4c-.88 0-1.6.7-1.6 1.6v17.83c1.13-.15 2.08-.23 3.2-.23v-15.97h11.2v18.73c1.18.7 2.14 1.3 3.2 2.08V122.8c0-.9-.72-1.6-1.6-1.6zM1298.4 129.2H1284c-.88 0-1.6.72-1.6 1.6v17.36c1.3 1.4 2.25 2.72 3.2 4.4V132.4h11.2v49.16l3.2 3.22v-54c0-.88-.72-1.6-1.6-1.6z" stroke="#fff" stroke-opacity="0" stroke-width="2" fill="#fff"/><path d="M1298.05 187.46l-14.4-14.43c2.8-6.08 2.63-12.44-.5-18.4-5.4-10.13-17.95-14-28.1-8.64-10.14 5.35-14.06 17.9-8.68 28.08 5.38 10.17 17.93 14.04 28.14 8.68l14.13 14.15c2.64 2.6 6.84 2.6 9.42 0 2.63-2.58 2.63-6.8 0-9.38zm-50.84-23.1c0-9.7 7.85-17.6 17.6-17.6 9.7 0 17.6 7.9 17.6 17.6 0 9.72-7.9 17.63-17.6 17.63-9.75 0-17.6-7.92-17.6-17.65zm48.6 30.23c-1.34 1.32-3.53 1.32-4.93 0l-13.62-13.66c1.96-1.44 3.42-3 4.82-5.04l13.74 13.83c1.35 1.32 1.35 3.54 0 4.86z" stroke="#fff" stroke-opacity="0" stroke-width="2" fill="#fff"/><path d="M1257.7 172c-4.63-3.32-5.7-9.78-2.38-14.4 3.32-4.66 9.77-5.73 14.4-2.4.1.06.2.12.3.2l-1.92 2.56c-3.16-2.34-7.63-1.67-9.97 1.5-2.35 3.17-1.68 7.63 1.48 9.97z" stroke="#fff" stroke-opacity="0" stroke-width="2" fill="#fff"/><use xlink:href="#g" transform="matrix(1,0,0,1,1170,229) translate(24.619140625 20.1171875)"/><path d="M1087.7 299V166c0-3.3 2.7-6 6-6h87.8" stroke="#5e5e5e" stroke-width="2" fill="none"/><path d="M1088.7 300h-2v-1.03h2z" fill="#5e5e5e"/><path d="M1196.76 160l-14.26 4.64v-9.28z" stroke="#5e5e5e" stroke-width="2" fill="#5e5e5e"/><path d="M866.46 351.1l-26.36-45.3c-2.05-3.64-5.64-5.7-9.86-5.8h-52.48c-4.22.1-7.8 2.16-9.86 5.8l-26.36 45.18c-2.05 3.53-2.05 7.62 0 11.26l26.36 45.52c2.05 3.75 5.5 5.92 9.86 6.03h52.48c4.22-.12 7.8-2.3 9.86-6.04l26.36-45.18c2.05-3.75 2.05-7.85 0-11.5z" stroke="#000" stroke-opacity="0" fill="#4285f4"/><path d="M814.87 334.03l-11.6-4.1-10.27 12.4 7.02 6.96-3.84 3.6-7.02-6.88-12.64 10.14 4.4 11.5 46.52 46.1h2.85c4.24-.17 7.75-2.26 9.87-6.04l17.95-30.85z" stroke="#000" stroke-opacity="0" fill-opacity=".07"/><path d="M804 323.25l-11 10.88v8.22l11-10.9 11 10.9v-8.22l-11-10.88zM804 390.5l-11-10.87v-8.22l11 10.9 11-10.9v8.23l-11 10.88zM770.02 356.88l11 10.88h8.3l-11-10.88 11-10.88h-8.3l-11 10.88zM837.97 356.88l-11 10.88h-8.3l11-10.88-11-10.88h8.3l11 10.88zM794 346h20c.66 0 1 .33 1 .98v19.8c0 .66-.34.98-1 .98h-20c-.67 0-1-.32-1-.98v-19.8c0-.65.33-.98 1-.98z" stroke="#000" stroke-opacity="0" fill="#fff"/><use xlink:href="#a" transform="matrix(1,0,0,1,740,418.79) translate(17.927951388888893 20.1171875)"/><use xlink:href="#h" transform="matrix(1,0,0,1,740,418.79) translate(69.78342013888889 20.1171875)"/><path d="M1019.05 356.9h-132.6" stroke="#5e5e5e" stroke-width="2" fill="none"/><path d="M1020 356.54l.18 1.35h-1.16v-2h1.07z" fill="#5e5e5e"/><path d="M871.2 356.9l14.26-4.64v9.27z" stroke="#5e5e5e" stroke-width="2" fill="#5e5e5e"/><path d="M960 472.9c0-3.32 2.7-6 6-6h228c3.3 0 6 2.68 6 6v48c0 3.3-2.7 6-6 6H966c-3.3 0-6-2.7-6-6z" stroke="#000" stroke-opacity="0" stroke-width="3" fill="#fff" fill-opacity="0"/><g><use xlink:href="#i" transform="matrix(1,0,0,1,965,471.895) translate(84.87684461805556 35.52734375)"/></g><defs><path fill="#333" d="M0-1352c11-81 42-121 112-111 64 9 95 43 95 90v1196h587c58 0 92 37 103 111-19 64-54 96-103 96H102C47 30 0-3 0-73v-1279" id="j"/><path fill="#333" d="M281-987c298-161 591-47 744 229 46 83 69 171 60 275-6 69-46 102-101 102H235c19 66 70 131 163 171 131 56 208 38 340-26 85-2 126 39 126 109 0 79-98 142-297 157C349 47 192-51 71-243 19-326 0-419 0-513c0-199 87-369 281-474zm-64 400h655c0-25-28-74-83-149-92-80-150-106-261-106-109 0-201 53-270 162-26 42-38 74-41 93" id="k"/><path fill="#333" d="M410-518l-125 80v370c0 55-35 98-106 98-51 0-85-31-102-94v-1302c18-73 47-108 112-99s96 44 96 91v690c326-216 521-342 586-379 79-6 129 24 129 107 0 44-49 84-136 138-152 95-241 164-276 189l406 514c19 80-31 141-103 141-40 0-86-51-157-140" id="l"/><g id="a"><use transform="matrix(0.010850694444444444,0,0,0.010850694444444444,0,0)" xlink:href="#j"/><use transform="matrix(0.010850694444444444,0,0,0.010850694444444444,10.319010416666666,0)" xlink:href="#k"/><use transform="matrix(0.010850694444444444,0,0,0.010850694444444444,22.60199652777778,0)" xlink:href="#k"/><use transform="matrix(0.010850694444444444,0,0,0.010850694444444444,34.884982638888886,0)" xlink:href="#l"/></g><path fill="#333" d="M709-744l-121-317-117 317h238zm-214-661c95-105 169-42 222 107 284 794 457 1194 459 1217 5 66-30 111-105 111-60 0-86-54-123-149L787-537H389L187-4c-36 25-56 39-89 34C29 20-3-17 0-80c134-370 513-1345 495-1325" id="m"/><path fill="#333" d="M237-952c245-171 548-124 724 101 118 151 118 245 118 443V41c0 94-63 202-206 299C588 534 246 452 58 181-3 92 2 6 114-15c62-11 93 31 125 108 81 102 183 153 305 153 146 0 255-65 328-196 9-39 5-90 6-137C789-5 676 27 525 27c-145 0-291-59-405-204C-82-434-22-771 237-952zm-7 321c-78 197 8 368 199 436 201 72 343-17 433-201 51-212-19-344-205-434-209-51-353 12-427 199" id="n"/><path fill="#333" d="M187-1053c70 20 101 48 97 109 80-73 188-109 324-109 149 0 286 59 397 186 88 101 126 214 126 329v475c0 51-37 86-108 93-65-12-98-46-98-101v-418c0-173-71-297-221-341-185-54-308 18-394 179-20 37-26 102-26 192v392c0 54-35 97-105 97C124 30 78-3 78-72v-867c8-76 44-114 109-114" id="o"/><path fill="#333" d="M194-1311c10-79 41-119 110-109 63 9 93 43 93 89v300c51-1 107-4 152-4 51 0 85 33 101 100 0 50-29 86-88 107-51-5-109-4-165-4v509c0 80 23 128 68 143 39 3 75 8 119 7 50-1 84 36 92 106-14 96-76 97-177 97-129 0-228-69-288-210-14-34-17-76-17-121v-531c-38-1-72 2-106 4-59-21-88-56-88-106 0-66 33-97 66-97v-7c40 5 81 9 128 7v-280" id="p"/><g id="b"><use transform="matrix(0.010850694444444444,0,0,0.010850694444444444,0,0)" xlink:href="#m"/><use transform="matrix(0.010850694444444444,0,0,0.010850694444444444,12.923177083333332,0)" xlink:href="#n"/><use transform="matrix(0.010850694444444444,0,0,0.010850694444444444,25.34722222222222,0)" xlink:href="#k"/><use transform="matrix(0.010850694444444444,0,0,0.010850694444444444,37.63020833333333,0)" xlink:href="#o"/><use transform="matrix(0.010850694444444444,0,0,0.010850694444444444,50.61848958333333,0)" xlink:href="#p"/></g><path fill="#333" d="M347-1459c197 0 403 169 403 396 0 93-28 172-85 237 152 83 228 217 228 400 0 184-91 334-286 424C465 63 284 21 99 30 33 18 0-16 0-72v-1287c10-67 34-100 72-100v-8c79 15 184 8 275 8zm-31 570c139-1 223-57 223-189 0-83-48-139-145-170-59-5-123-4-187-4v363h109zM207-682v505h166c133 0 219-38 265-110 29-45 44-90 44-146 0-121-64-212-198-242-84-19-182-7-277-7" id="q"/><path fill="#333" d="M208-1061c71 21 102 48 98 110 136-120 364-147 555-56 30 33 48 58 43 92-9 69-46 101-110 98-220-79-380-21-468 177-16 36-20 79-20 128v444c0 55-35 98-106 98C145 30 99-3 99-72v-874c8-77 44-115 109-115" id="r"/><path fill="#333" d="M232-949c224-158 497-128 685 59 110 110 161 240 161 381 0 202-92 366-286 476-93 52-171 63-272 63-145 0-291-59-405-204C-87-431-26-767 232-949zm637 447c0-173-142-337-334-337-141 0-258 69-310 222-62 180 11 319 165 405 49 27 97 33 160 33 129 0 231-65 296-201 19-40 23-82 23-122" id="s"/><g id="c"><use transform="matrix(0.010850694444444444,0,0,0.010850694444444444,0,0)" xlink:href="#q"/><use transform="matrix(0.010850694444444444,0,0,0.010850694444444444,10.23220486111111,0)" xlink:href="#r"/><use transform="matrix(0.010850694444444444,0,0,0.010850694444444444,20.26909722222222,0)" xlink:href="#s"/><use transform="matrix(0.010850694444444444,0,0,0.010850694444444444,32.32421875,0)" xlink:href="#l"/><use transform="matrix(0.010850694444444444,0,0,0.010850694444444444,43.78255208333333,0)" xlink:href="#k"/><use transform="matrix(0.010850694444444444,0,0,0.010850694444444444,56.06553819444444,0)" xlink:href="#r"/></g><path fill="#333" d="M748-1258c-270 0-541 237-541 548 0 173 75 321 230 437 174 131 456 131 622-2-89-97-141-157-156-181-3-88 37-133 109-133 35 0 84 39 147 116l47 47c55-90 82-187 82-292 0-195-88-353-269-465-86-53-178-75-271-75zm600 985c103 105 151 160 151 201 0 53-34 87-103 102-41 0-96-43-167-130-19-14-28-21-29-21C1066-18 918 30 740 30 483 30 270-87 111-328 33-447 0-580 0-721c0-239 101-444 314-602 134-99 282-142 434-142 252 0 476 108 633 350 176 269 151 590-33 842" id="t"/><g id="d"><use transform="matrix(0.010850694444444444,0,0,0.010850694444444444,0,0)" xlink:href="#t"/><use transform="matrix(0.010850694444444444,0,0,0.010850694444444444,16.85112847222222,0)" xlink:href="#m"/></g><path fill="#333" d="M94-1468h346c145 0 282 67 371 224 124 220 63 440-126 585-80 61-165 86-245 86H208v505c0 54-35 98-106 98C47 30 0-3 0-73v-1283c8-75 39-112 94-112zm114 208v479h205c113 0 197-52 234-163 45-137-14-244-141-300-74-32-199-10-298-16" id="u"/><path fill="#333" d="M884-1371c24-67 51-100 112-91 64 9 95 44 95 91 2 291 4 591 4 876 0 105-36 221-128 329-232 271-623 276-850-11C-90-439-24-775 236-965c192-141 487-131 652 18-2-141 4-290-4-424zM228-639c-80 201 7 376 202 445 205 73 349-17 441-205 54-215-19-350-209-442-211-53-359 12-434 202" id="v"/><g id="e"><use transform="matrix(0.010850694444444444,0,0,0.010850694444444444,0,0)" xlink:href="#u"/><use transform="matrix(0.010850694444444444,0,0,0.010850694444444444,9.950086805555555,0)" xlink:href="#r"/><use transform="matrix(0.010850694444444444,0,0,0.010850694444444444,19.986979166666664,0)" xlink:href="#s"/><use transform="matrix(0.010850694444444444,0,0,0.010850694444444444,32.04210069444444,0)" xlink:href="#v"/></g><path fill="#333" d="M160-1479c46 8 107 2 160 4l18-4c71 15 106 52 106 110 0 70-46 103-102 103h14v1087h-7c51 0 87 38 95 110-12 66-46 99-102 99H159C91 17 52-18 60-79c8-67 46-100 95-100h-7v-1087h14c-61 0-102-38-102-114 0-47 33-80 100-99" id="w"/><g id="f"><use transform="matrix(0.010850694444444444,0,0,0.010850694444444444,0,0)" xlink:href="#m"/><use transform="matrix(0.010850694444444444,0,0,0.010850694444444444,12.923177083333332,0)" xlink:href="#u"/><use transform="matrix(0.010850694444444444,0,0,0.010850694444444444,22.87326388888889,0)" xlink:href="#w"/></g><path fill="#333" d="M72-1479l52 11h737c70-14 115 30 125 110-14 65-52 98-113 98H208v452c159-2 326-4 478-4 51 0 84 34 99 103 0 49-29 85-86 109-157-8-328-2-491-4v426h683c53 0 85 37 96 112-19 64-52 96-99 96H99C33 18 0-16 0-72v-1296c10-67 34-100 72-100v-11" id="x"/><path fill="#333" d="M65-1347c11-80 42-120 112-110 64 9 95 43 95 90v1190c90-8 127 15 143 107C404-3 370 30 313 30H167C112 30 65-3 65-72v-1275" id="y"/><path fill="#333" d="M226-631c-73 195 7 356 186 431 181 75 336 15 425-147 103-187 31-388-155-470-197-87-383-8-456 186zM878-84C790-3 678 30 527 30 343 30 172-52 67-246-95-543 9-849 296-994c299-151 579-34 732 241 44 78 55 166 55 253v433c0 54-35 97-105 97-45 0-79-27-101-80 0-12 1-23 1-34" id="z"/><path fill="#333" d="M700-313c14-22-4-31-37-38-338-72-516-125-540-144C56-549 20-611 20-688c0-104 67-213 218-296 260-144 526-47 670 190 16 82-12 143-98 143-45 0-87-32-126-96-134-136-364-117-450 55-13 27 22 23 84 37 288 64 445 110 475 121 83 55 124 123 123 208 0 114-74 230-242 309C426 99 196 19 48-194c-51-73-21-170 89-173 35 0 77 34 125 103 59 55 127 82 206 82 93 0 174-42 232-131" id="A"/><path fill="#333" d="M211-1316c74 22 99 48 99 116 0 53-35 94-107 94-51 0-85-35-101-105 14-70 50-105 109-105zm0 256c66 17 99 48 99 94v898c0 55-35 98-106 98-55 0-101-33-101-102v-874c8-76 44-114 108-114" id="B"/><path fill="#333" d="M234-957c228-160 497-124 693 61 45 72-11 162-88 162-25 0-66-31-136-75-54-34-106-38-171-38-133 0-245 65-302 210-78 198 3 357 187 437 144 63 254 21 374-79 78-25 153 1 153 95 0 65-85 141-262 198-73 23-102 16-158 16-147 0-293-60-408-206C-88-436-27-774 234-957" id="C"/><path fill="#333" d="M852-420c0 229-201 450-454 450-155 0-284-68-387-204L0-217c13-69 47-103 104-103 36 0 77 29 123 88 151 103 319 72 403-96 39-160-3-249-141-328l-195-54C129-809 58-921 58-1093c0-145 72-270 231-340 206-91 373-15 499 151 22 76-4 143-94 143-31 0-72-29-125-88-133-85-306-18-305 165 0 83 50 143 150 180 87 0 188 36 287 126 106 96 151 214 151 336" id="D"/><path fill="#333" d="M48-1362c18-72 47-107 112-98 64 9 95 43 95 90v396c69-60 163-90 280-90 179 0 325 82 429 253 44 73 61 147 61 215v528c0 55-35 98-105 98-51 0-85-31-102-94v-510c0-123-60-224-191-266-173-56-297 25-359 190-11 28-13 78-13 148v434c0 55-35 98-105 98C99 30 65-1 48-64v-1298" id="E"/><g id="g"><use transform="matrix(0.010850694444444444,0,0,0.010850694444444444,0,0)" xlink:href="#x"/><use transform="matrix(0.010850694444444444,0,0,0.010850694444444444,11.187065972222221,0)" xlink:href="#y"/><use transform="matrix(0.010850694444444444,0,0,0.010850694444444444,16.319444444444443,0)" xlink:href="#z"/><use transform="matrix(0.010850694444444444,0,0,0.010850694444444444,29.361979166666664,0)" xlink:href="#A"/><use transform="matrix(0.010850694444444444,0,0,0.010850694444444444,39.865451388888886,0)" xlink:href="#p"/><use transform="matrix(0.010850694444444444,0,0,0.010850694444444444,47.36328125,0)" xlink:href="#B"/><use transform="matrix(0.010850694444444444,0,0,0.010850694444444444,52.03993055555556,0)" xlink:href="#C"/><use transform="matrix(0.010850694444444444,0,0,0.010850694444444444,62.912326388888886,0)" xlink:href="#D"/><use transform="matrix(0.010850694444444444,0,0,0.010850694444444444,72.59114583333333,0)" xlink:href="#k"/><use transform="matrix(0.010850694444444444,0,0,0.010850694444444444,84.87413194444444,0)" xlink:href="#z"/><use transform="matrix(0.010850694444444444,0,0,0.010850694444444444,97.91666666666666,0)" xlink:href="#r"/><use transform="matrix(0.010850694444444444,0,0,0.010850694444444444,107.95355902777777,0)" xlink:href="#C"/><use transform="matrix(0.010850694444444444,0,0,0.010850694444444444,118.8259548611111,0)" xlink:href="#E"/></g><path fill="#333" d="M850-993L570-20c-33 37-57 50-103 50-59 0-84-58-114-167C150-876 19-1283 0-1364c19-74 47-102 111-102 59 0 86 48 112 137l254 885c180-633 277-961 292-985 28-27 51-37 88-37 62 0 101 53 116 159 17 46 100 333 250 861l282-970c33-38 53-58 98-50 73 13 101 45 95 113L1311-14c-96 91-173 34-211-120-109-441-212-724-250-859" id="F"/><g id="h"><use transform="matrix(0.010850694444444444,0,0,0.010850694444444444,0,0)" xlink:href="#F"/><use transform="matrix(0.010850694444444444,0,0,0.010850694444444444,18.86935763888889,0)" xlink:href="#x"/><use transform="matrix(0.010850694444444444,0,0,0.010850694444444444,30.05642361111111,0)" xlink:href="#q"/></g><g id="i"><use transform="matrix(0.014105902777777776,0,0,0.014105902777777776,0,0)" xlink:href="#j"/><use transform="matrix(0.014105902777777776,0,0,0.014105902777777776,13.414713541666666,0)" xlink:href="#k"/><use transform="matrix(0.014105902777777776,0,0,0.014105902777777776,29.382595486111107,0)" xlink:href="#k"/><use transform="matrix(0.014105902777777776,0,0,0.014105902777777776,45.35047743055555,0)" xlink:href="#l"/></g></defs></g></svg>