<?xml version="1.0" encoding="iso-8859-1"?>
<!-- Generator: Adobe Illustrator 18.0.0, SVG Export Plug-In . SVG Version: 6.00 Build 0)  -->
<!DOCTYPE svg PUBLIC "-//W3C//DTD SVG 1.1//EN" "http://www.w3.org/Graphics/SVG/1.1/DTD/svg11.dtd">
<svg version="1.1" id="Capa_1" xmlns="http://www.w3.org/2000/svg" xmlns:xlink="http://www.w3.org/1999/xlink" x="0px" y="0px"
	 viewBox="0 0 348.041 348.041" style="enable-background:new 0 0 348.041 348.041;" xml:space="preserve">
<g>
	<path style="fill:#FFFFFF;" d="M237.417,208.259c0.088-0.066,0.18-0.131,0.268-0.197c-0.325-0.259-0.663-0.502-0.994-0.753
		C236.931,207.628,237.183,207.935,237.417,208.259z"/>
	<path style="fill:#FFFFFF;" d="M302.052,124.057l-0.011,0.397c-0.049,2.252,0.915,4.408,2.626,5.874
		c1.71,1.465,3.986,2.086,6.205,1.694c1.607-0.285,3.22-0.429,4.795-0.429c4.975,0,9.639,1.341,13.663,3.671
		c-4.737-8.18-13.578-13.698-23.691-13.698c-1.248,0-2.521,0.116-3.794,0.296C301.974,122.575,302.052,123.307,302.052,124.057z"/>
	<path style="fill:#FFFFFF;" d="M272.826,105.451c-0.382,2.797,0.834,5.572,3.15,7.187c2.316,1.616,5.34,1.797,7.833,0.47
		c1.81-0.963,3.77-1.45,5.827-1.45c0.747,0,1.475,0.078,2.186,0.205c-1.032-5.802-6.11-10.232-12.213-10.232
		c-2.057,0-4.017,0.488-5.827,1.45c-0.242,0.129-0.493,0.231-0.745,0.332C272.973,104.09,272.919,104.765,272.826,105.451z"/>
	<path style="fill:#FFFFFF;" d="M54.346,215.448c-0.205-2.507-1.65-4.746-3.85-5.966c-2.179-1.207-4.238-2.57-6.177-4.062
		c0.749,9.155,6.081,17.017,13.607,21.395C55.952,223.419,54.683,219.566,54.346,215.448z"/>
	<path style="fill:#FFFFFF;" d="M204.481,49.103c0.402,2.083,1.663,3.901,3.475,5.003c1.814,1.104,4.007,1.389,6.04,0.789
		c4.264-1.258,8.671-1.897,13.101-1.897c10.176,0,19.588,3.316,27.228,8.914c-8.408-11.473-21.973-18.942-37.255-18.942
		c-4.429,0-8.837,0.639-13.101,1.897c-0.208,0.061-0.418,0.107-0.628,0.15C203.814,46.335,204.21,47.694,204.481,49.103z"/>
	<g>
		<path style="fill:#84BD93;" d="M29.311,190.978c0.28,0.283,0.557,0.569,0.844,0.846C29.868,191.547,29.591,191.261,29.311,190.978
			z"/>
		<path style="fill:#84BD93;" d="M16.208,166.913c-0.089-0.406-0.176-0.812-0.256-1.221
			C16.032,166.101,16.119,166.507,16.208,166.913z"/>
		<path style="fill:#84BD93;" d="M15.239,160.512c-0.029-0.338-0.068-0.674-0.09-1.014C15.17,159.838,15.21,160.173,15.239,160.512z
			"/>
		<path style="fill:#84BD93;" d="M174.932,17.934c1.012,0.283,1.997,0.636,2.961,1.03C176.928,18.57,175.945,18.217,174.932,17.934z
			"/>
		<path style="fill:#84BD93;" d="M15.63,163.801c-0.061-0.396-0.126-0.791-0.177-1.189C15.504,163.01,15.569,163.405,15.63,163.801z
			"/>
		<path style="fill:#84BD93;" d="M171.65,17.248c1.071,0.161,2.13,0.365,3.16,0.647C173.78,17.613,172.722,17.409,171.65,17.248z"/>
		<path style="fill:#84BD93;" d="M189.219,27.559c-1.392-1.796-2.996-3.407-4.778-4.801
			C186.221,24.152,187.828,25.763,189.219,27.559z"/>
		<path style="fill:#84BD93;" d="M189.343,27.715c0.703,0.921,1.353,1.886,1.937,2.897C190.695,29.6,190.046,28.636,189.343,27.715z
			"/>
		<path style="fill:#84BD93;" d="M181.422,20.691c0.941,0.553,1.84,1.17,2.706,1.83C183.261,21.862,182.364,21.244,181.422,20.691z"
			/>
		<path style="fill:#84BD93;" d="M178.467,19.202c1,0.435,1.977,0.915,2.913,1.462C180.443,20.117,179.467,19.636,178.467,19.202z"
			/>
		<path style="fill:#84BD93;" d="M167.596,16.924c1.114,0,2.208,0.091,3.291,0.222C169.804,17.015,168.71,16.924,167.596,16.924z"/>
		<path style="fill:#84BD93;" d="M34.877,195.845c-0.021-0.016-0.041-0.033-0.062-0.049
			C34.836,195.812,34.855,195.829,34.877,195.845z"/>
		<path style="fill:#84BD93;" d="M25.98,187.253c-0.259-0.322-0.518-0.645-0.769-0.973C25.462,186.608,25.72,186.931,25.98,187.253z
			"/>
		<path style="fill:#84BD93;" d="M27.998,189.606c-0.28-0.306-0.554-0.617-0.826-0.929C27.445,188.99,27.718,189.3,27.998,189.606z"
			/>
		<path style="fill:#84BD93;" d="M322.809,181.785c-1.728-1.439-2.723-3.575-2.71-5.824c0.013-2.25,1.032-4.375,2.777-5.793
			C329.31,164.939,333,157.196,333,148.926c0-15.087-12.274-27.361-27.361-27.361c-1.575,0-3.188,0.144-4.795,0.429
			c-2.22,0.392-4.496-0.229-6.205-1.694c-1.711-1.466-2.675-3.621-2.626-5.874l0.011-0.397c0-6.831-5.57-12.4-12.416-12.4
			c-2.056,0-4.017,0.487-5.827,1.45c-2.493,1.327-5.517,1.146-7.833-0.47c-2.316-1.615-3.532-4.39-3.15-7.187
			c0.292-2.138,0.44-4.252,0.44-6.283c0-25.457-20.711-46.168-46.169-46.168c-4.429,0-8.837,0.638-13.101,1.897
			c-2.033,0.599-4.227,0.314-6.04-0.789c-1.812-1.103-3.073-2.92-3.475-5.003c-0.587-3.048-1.685-5.89-3.173-8.464
			c-4.047-2.336-8.723-3.66-13.656-3.66c-13.762,0-25.427,10.282-27.136,23.917c-0.292,2.329-1.654,4.387-3.683,5.567
			c-2.029,1.179-4.493,1.343-6.66,0.444c-2.196-0.911-4.522-1.372-6.917-1.372c-9.964,0-18.07,8.106-18.07,18.069
			c0,0.403,0.028,0.868,0.071,1.443c0.159,2.11-0.579,4.189-2.032,5.728c-1.452,1.538-3.452,2.414-5.604,2.355l-0.266-0.009
			c-17.128,0.038-32.09,12.198-35.592,28.941c-0.629,3.007-3.025,5.33-6.052,5.866c-23.533,4.16-40.614,24.547-40.614,48.476
			c0,10.799,3.551,21.091,9.808,29.468c1.766,1.317,3.632,2.524,5.591,3.61c2.2,1.219,3.646,3.459,3.85,5.966
			c1.151,14.072,13.124,25.095,27.259,25.095c6.113,0,12.011-2.064,16.777-5.762c-4.226-3.815-8.677-7.463-13.395-10.906
			c-3.355-2.448-4.09-7.154-1.642-10.509c2.449-3.358,7.153-4.089,10.509-1.642c38.457,28.064,55.655,64.459,63.309,89.476
			c5.336,17.441,6.914,30.309,7.348,41.309h50.354c12.569-87,65.891-105.651,68.212-106.461c3.922-1.367,8.21,0.361,9.578,4.282
			c1.365,3.91-0.689,8.015-4.59,9.396c-0.173,0.065-3.584,1.268-8.678,4.5c5.11,3.455,9.407,4.008,13.088,4.008
			c13.735,0,24.91-11.196,24.91-24.93c0-3.21-0.608-6.355-1.806-9.326c-0.995-2.467-0.613-5.281,1.004-7.392
			c1.618-2.111,4.222-3.217,6.871-2.897c0.495,0.06,0.983,0.089,1.452,0.089c6.846,0,12.416-5.57,12.416-12.416
			C327.292,187.638,325.658,184.156,322.809,181.785z M168.867,260.524c0,3.482-2.381,6.508-5.767,7.316
			c-0.582,0.138-1.163,0.206-1.741,0.206c-2.787,0-5.407-1.556-6.708-4.13c-29.667-58.696-59.3-74.663-59.596-74.818
			c-3.667-1.912-5.12-6.438-3.229-10.116c1.891-3.679,6.378-5.148,10.065-3.283c0.673,0.341,8.861,4.629,20.817,16.392
			c6.211-6.909,13.639-12.009,22.583-14.811c2.648-0.83,5.577-1.441,7.577-1.841v-33.172c0-4.154,3.846-7.52,8-7.52s8,3.367,8,7.52
			V260.524z M255.37,214.143c-42.838,26.876-55.984,70.373-56.112,70.809c-0.949,3.242-3.922,5.413-7.216,5.413
			c-0.354,0.001-0.536-0.024-0.895-0.076c-3.703-0.531-6.28-3.697-6.28-7.438V166.258c0-4.154,3.846-7.521,8-7.521s8,3.367,8,7.521
			v20.733c12,1.216,28.337,8.989,37.205,21.268c3.151-2.359,6.126-4.66,9.631-6.858c3.519-2.204,7.996-1.145,10.205,2.374
			C260.114,207.293,258.888,211.935,255.37,214.143z"/>
		<path style="fill:#84BD93;" d="M24.091,184.749c-0.226-0.32-0.456-0.637-0.674-0.962
			C23.635,184.112,23.865,184.429,24.091,184.749z"/>
		<path style="fill:#84BD93;" d="M32.448,193.904c-0.259-0.22-0.505-0.452-0.759-0.677
			C31.942,193.452,32.189,193.684,32.448,193.904z"/>
		<path style="fill:#84BD93;" d="M19.03,175.733c-0.13-0.304-0.245-0.616-0.369-0.923C18.785,175.117,18.899,175.428,19.03,175.733z
			"/>
		<path style="fill:#84BD93;" d="M22.299,182.026c-0.17-0.277-0.348-0.549-0.512-0.829
			C21.951,181.477,22.129,181.749,22.299,182.026z"/>
		<path style="fill:#84BD93;" d="M17.914,172.874c-0.132-0.37-0.251-0.746-0.375-1.119
			C17.662,172.129,17.781,172.504,17.914,172.874z"/>
		<path style="fill:#84BD93;" d="M16.971,169.933c-0.114-0.397-0.22-0.796-0.324-1.196
			C16.751,169.137,16.857,169.537,16.971,169.933z"/>
		<path style="fill:#84BD93;" d="M20.318,178.509C20.318,178.509,20.317,178.508,20.318,178.509
			C20.317,178.508,20.317,178.509,20.318,178.509z"/>
	</g>
	<path style="fill:#3F2D20;" d="M161.365,134.747c-4.154,0-7.521,3.367-7.521,7.521v33.172c-2.721,0.399-5.417,1.011-8.065,1.841
		c-8.943,2.803-16.86,7.903-23.072,14.811c-11.956-11.763-20.143-16.051-20.816-16.392c-3.687-1.865-8.174-0.397-10.065,3.283
		c-1.891,3.678-0.437,8.203,3.229,10.116c0.296,0.155,29.93,16.122,59.597,74.818c1.301,2.573,3.923,4.129,6.71,4.129
		c0.579,0,1.163-0.068,1.746-0.206c3.386-0.808,5.777-3.834,5.777-7.316V142.268C168.886,138.114,165.519,134.747,161.365,134.747z
		 M150.28,191.633c1.176-0.369,2.368-0.656,3.565-0.907v41.072c-7.302-11.668-14.373-21.072-20.831-28.619
		C137.543,197.756,143.489,193.761,150.28,191.633z"/>
	<path style="fill:#3F2D20;" d="M247.375,201.401c-3.505,2.198-6.807,4.5-9.958,6.859c-8.867-12.28-22.581-20.052-37.859-21.269
		v-20.733c0-4.154-3.367-7.521-7.521-7.521c-4.154,0-7.521,3.367-7.521,7.521v116.594c0,3.741,2.752,6.907,6.455,7.438
		c0.359,0.052,0.717,0.077,1.07,0.076c3.294,0,6.267-2.172,7.216-5.413c0.128-0.437,13.274-43.933,56.112-70.809
		c3.519-2.208,4.581-6.85,2.374-10.368C255.534,200.256,250.893,199.196,247.375,201.401z M199.557,249.649v-47.534
		c10.694,1.207,20.191,6.952,26.236,15.812C214.349,228.484,205.792,239.675,199.557,249.649z"/>
	<path style="fill:#3F2D20;" d="M348.041,148.926c0-23.253-18.816-42.196-42.022-42.4c-3.278-11.496-13.876-19.938-26.411-19.938
		c-0.46,0-0.921,0.012-1.38,0.035c-1.324-32.59-28.251-58.693-61.16-58.693c-3.358,0-6.705,0.276-10.013,0.824
		c-6.268-15.942-21.811-26.872-39.459-26.872c-18.445,0-34.462,11.924-40.169,28.824c-1.394-0.178-2.804-0.267-4.226-0.267
		c-16.54,0-30.286,12.189-32.727,28.056c-19.637,2.68-36.266,16.621-42.229,35.601C20.013,101.316,0,126.758,0,156.35
		c0,22.071,11.342,42.528,29.847,54.283c3.57,19.879,21.177,34.924,41.731,34.924c10.13,0,19.883-3.656,27.511-10.159
		c15.303,16.757,26.528,36.476,33.488,58.929c7.682,24.789,7.004,43.801,6.997,43.976c-0.092,2.05,0.659,4.05,2.078,5.533
		c1.419,1.484,3.382,2.323,5.435,2.323h64.34c3.814,0,7.024-2.855,7.469-6.642c3.962-33.699,15.463-61.676,33.257-80.905
		c1.66-1.794,3.306-3.436,4.915-4.937c7.766,6.475,15.968,9.531,25.378,9.531c22.03,0,39.951-17.921,39.951-39.95
		c0-1.82-0.121-3.626-0.364-5.41c11.681-3.156,20.301-13.846,20.301-26.511c0-5.369-1.555-10.53-4.405-14.924
		C344.425,168.802,348.041,159.125,348.041,148.926z M322.809,181.785c2.85,2.371,4.483,5.852,4.483,9.55
		c0,6.846-5.57,12.415-12.416,12.415c-0.469,0-0.958-0.031-1.452-0.09c-2.649-0.32-5.253,0.783-6.871,2.894
		c-1.617,2.111-1.999,4.92-1.004,7.386c1.198,2.971,1.806,6.106,1.806,9.316c0,13.734-11.174,24.908-24.91,24.908
		c-3.681,0-7.978-0.596-13.088-4.051c5.094-3.231,8.505-4.52,8.678-4.585c3.9-1.381,5.955-5.656,4.59-9.566
		c-1.368-3.921-5.656-5.99-9.578-4.623c-2.321,0.81-55.643,20.369-68.212,105.778h-50.354c-0.435-8.501-2.012-23.186-7.349-40.627
		c-7.654-25.017-24.851-60.73-63.308-88.794c-3.356-2.447-8.06-1.716-10.509,1.642c-2.448,3.355-1.713,8.06,1.642,10.508
		c4.718,3.443,9.17,7.091,13.395,10.906c-4.766,3.698-10.664,5.762-16.777,5.762c-14.135,0-26.108-11.023-27.259-25.095
		c-0.205-2.507-1.65-4.746-3.851-5.966c-15.684-8.689-25.426-25.207-25.426-43.105c0-23.928,17.08-44.316,40.614-48.476
		c3.027-0.536,5.423-2.859,6.052-5.866c3.503-16.743,18.464-28.903,35.592-28.941l0.266,0.009c2.152,0.059,4.152-0.817,5.604-2.355
		c1.453-1.538,2.191-3.618,2.032-5.728c-0.043-0.575-0.072-1.04-0.072-1.443c0-9.963,8.106-18.069,18.071-18.069
		c2.394,0,4.721,0.461,6.916,1.372c2.167,0.899,4.631,0.734,6.66-0.444c2.029-1.18,3.391-3.239,3.683-5.567
		c1.709-13.634,13.374-23.917,27.135-23.917c13.093,0,24.388,9.317,26.857,22.152c0.402,2.083,1.663,3.901,3.475,5.003
		c1.814,1.104,4.007,1.389,6.04,0.789c4.264-1.258,8.671-1.897,13.101-1.897c25.458,0,46.169,20.711,46.169,46.168
		c0,2.031-0.148,4.145-0.44,6.283c-0.382,2.797,0.834,5.572,3.15,7.187c2.316,1.616,5.34,1.797,7.833,0.47
		c1.81-0.963,3.77-1.45,5.827-1.45c6.846,0,12.416,5.569,12.416,12.4l-0.011,0.397c-0.049,2.252,0.915,4.408,2.625,5.874
		c1.71,1.465,3.986,2.086,6.206,1.694c1.607-0.285,3.22-0.429,4.794-0.429c15.087,0,27.361,12.274,27.361,27.361
		c0,8.27-3.69,16.013-10.124,21.242c-1.745,1.419-2.764,3.544-2.777,5.793C320.086,178.21,321.08,180.347,322.809,181.785z"/>
</g>
<g>
</g>
<g>
</g>
<g>
</g>
<g>
</g>
<g>
</g>
<g>
</g>
<g>
</g>
<g>
</g>
<g>
</g>
<g>
</g>
<g>
</g>
<g>
</g>
<g>
</g>
<g>
</g>
<g>
</g>
</svg>
