<?xml version="1.0" encoding="iso-8859-1"?>
<!-- Generator: Adobe Illustrator 19.0.0, SVG Export Plug-In . SVG Version: 6.00 Build 0)  -->
<svg version="1.1" id="Layer_1" xmlns="http://www.w3.org/2000/svg" xmlns:xlink="http://www.w3.org/1999/xlink" x="0px" y="0px"
	 viewBox="0 0 512 512" style="enable-background:new 0 0 512 512;" xml:space="preserve">
<g>
	<path style="fill:#90BC42;" d="M383.923,139.181c80.453,17.548,118.717,75.085,119.608,76.438
		c-33.077-34.114-102.094-43.283-149.256-45.369l-0.722,0.541c-1.308-1.771-2.763-3.485-4.342-5.109l0.586-0.564
		C349.797,165.119,363.319,152.24,383.923,139.181z"/>
	<path style="fill:#90BC42;" d="M162.209,165.119c-1.635,1.635-3.135,3.349-4.488,5.131c-47.151,2.086-116.18,11.255-149.256,45.369
		c0.902-1.353,39.166-58.891,119.608-76.438h0.011C148.688,152.24,162.209,165.119,162.209,165.119z"/>
</g>
<g>
	<path style="fill:#9AD14B;" d="M383.923,139.181c-20.604,13.059-34.125,25.938-34.125,25.938l-0.586,0.564
		c-0.18-0.192-0.361-0.372-0.553-0.564l-13.623-13.634c-3.349-3.349-7.026-6.124-10.928-8.334l0.271-0.474
		c60.875-73.123,159.947-28.306,161.729-27.494C449.501,104.864,410.718,122.175,383.923,139.181z"/>
	<path style="fill:#9AD14B;" d="M128.084,139.181c-26.795-17.006-65.578-34.317-102.184-23.998
		c1.771-0.812,100.854-45.628,161.718,27.494c-4.218,2.278-8.187,5.221-11.774,8.808l-13.634,13.623v0.011
		C162.209,165.119,148.688,152.24,128.084,139.181z"/>
</g>
<path style="fill:#E09B2D;" d="M152.906,224.675c-8.819-17.13-7.432-38.445,4.815-54.425c1.353-1.782,2.853-3.496,4.488-5.131
	v-0.011l13.634-13.623c3.586-3.586,7.556-6.53,11.774-8.808c21.495-11.683,49.339-6.597,65.014,13.973l2.808,3.688l-7.093,9.304
	l-64.326,84.445l-0.237,0.304l-16.397-12.495C161.104,237.114,156.266,231.193,152.906,224.675z"/>
<path style="fill:#F7B239;" d="M305.534,270.822l21.562-16.42l89.869,117.961c7.319,9.631,6.406,23.186-2.143,31.735
	c-8.548,8.56-22.115,9.473-31.723,2.131l-127.649-97.245L305.534,270.822z"/>
<path style="fill:#E09B2D;" d="M406.917,395.112l-127.649-97.245l50.083-38.163l1.13-0.86l-3.384-4.442l-21.562,16.42
	l-50.083,38.163l127.649,97.245c9.608,7.342,23.175,6.428,31.723-2.131c1.317-1.317,2.431-2.764,3.383-4.288
	C414.214,399.253,410.316,397.709,406.917,395.112z"/>
<path style="fill:#F7B239;" d="M327.096,254.402l-21.562,16.42l-50.083,38.163L127.78,406.241c-9.62,7.33-23.175,6.417-31.735-2.143
	c-8.548-8.548-9.462-22.115-2.131-31.735l89.869-117.973l0.237-0.304l64.326-84.445l7.093-9.304l2.808-3.688
	c15.879-20.841,44.241-25.78,65.86-13.499c3.902,2.21,7.578,4.985,10.928,8.334l13.623,13.634c0.192,0.192,0.372,0.372,0.553,0.564
	c1.579,1.624,3.034,3.338,4.342,5.109c16.431,22.036,12.54,53.906-10.059,71.115L327.096,254.402z"/>
<path style="fill:#E09B2D;" d="M134.199,386.262c-8.548-8.548-9.462-22.115-2.131-31.735l89.869-117.973l0.237-0.304l64.326-84.445
	l7.094-9.304l2.808-3.688c0.599-0.786,1.221-1.542,1.855-2.283c-15.085,0.195-30.017,7.007-40.008,20.119l-2.808,3.688l-7.093,9.304
	l-64.326,84.445l-0.237,0.304L93.915,372.363c-7.33,9.62-6.417,23.186,2.131,31.735c8.56,8.56,22.115,9.473,31.735,2.143
	l17.825-13.578C141.409,391.648,137.444,389.507,134.199,386.262z"/>
<g>
	<path style="fill:#FFFFFF;" d="M326.419,227.935c-2.55,0-5.071-1.149-6.735-3.335c-2.831-3.716-2.112-9.023,1.605-11.854
		c6.271-4.775,7.564-13.769,2.881-20.047l-0.087-0.117c-0.344-0.466-0.729-0.917-1.153-1.352l-0.133-0.138l-13.682-13.695
		c-0.943-0.943-1.988-1.742-3.104-2.375c-2.136-1.212-4.584-1.852-7.092-1.852c-4.671,0-8.458-3.787-8.458-8.458
		c0-4.671,3.787-8.458,8.458-8.458c5.431,0,10.77,1.402,15.439,4.054c2.433,1.378,4.697,3.106,6.72,5.129l13.731,13.745
		c0.032,0.032,0.063,0.063,0.094,0.095l0.167,0.173c0.941,0.966,1.821,2.003,2.606,3.065l0.065,0.088
		c10.189,13.665,7.409,33.231-6.207,43.601C330.007,227.371,328.206,227.935,326.419,227.935z"/>
	<path style="fill:#FFFFFF;" d="M333.341,317.572c-2.55,0-5.07-1.148-6.734-3.334l-13.941-18.3
		c-2.831-3.716-2.113-9.023,1.603-11.854c3.714-2.832,9.023-2.115,11.854,1.603l13.941,18.3c2.831,3.716,2.113,9.022-1.603,11.854
		C336.93,317.008,335.128,317.572,333.341,317.572z"/>
</g>
<path style="fill:#333333;" d="M511.096,211.836c-0.151-0.305-0.321-0.598-0.509-0.881c-1.525-2.306-35.225-52.247-104.669-74.601
	c23.181-11.859,51.357-20.458,77.782-13.059c3.654,1.095,7.605-0.392,9.623-3.656c2.063-3.336,1.56-7.654-1.215-10.427
	c-0.763-0.763-1.665-1.368-2.643-1.79c-2.489-1.121-28.377-12.457-61.503-14.657c-43.068-2.857-79.604,10.936-106.077,39.932
	c-8.435-3.53-17.659-5.127-26.989-4.501c-15.124,1.017-29.199,7.757-39.461,18.71c-8.386-8.955-19.345-15.142-31.43-17.622
	c-11.528-2.365-23.447-1.259-34.213,3.058c-26.449-28.755-62.864-42.423-105.755-39.577c-33.126,2.2-59.015,13.536-61.503,14.657
	c-0.979,0.422-1.88,1.026-2.643,1.79c-2.773,2.773-3.265,7.087-1.201,10.424c1.997,3.231,5.903,4.718,9.527,3.683
	c26.451-7.444,54.664,1.163,77.868,13.036C36.638,158.709,2.937,208.652,1.412,210.958c-0.054,0.082-0.108,0.167-0.161,0.254
	c-0.13,0.212-0.249,0.429-0.36,0.65v0.001C0.312,213.026,0,214.323,0,215.643c0,3.923,2.703,7.318,6.521,8.22
	c0.646,0.152,1.296,0.227,1.939,0.227c2.343,0,4.585-0.981,6.18-2.682c22.056-22.656,67.277-37.321,128.242-41.808
	c-3.152,8.075-4.557,16.825-3.959,25.672c1.159,17.145,9.666,32.948,23.339,43.356l9.673,7.368l-84.75,111.246
	c-9.85,12.93-8.611,31.348,2.882,42.841c6.301,6.301,14.682,9.519,23.099,9.519c6.937,0,13.9-2.187,19.741-6.637l122.539-93.353
	l122.52,93.345c5.842,4.458,12.804,6.647,19.744,6.647c8.413,0,16.793-3.219,23.094-9.52c11.491-11.491,12.733-29.908,2.888-42.844
	L338.944,256l9.673-7.369c13.674-10.417,22.179-26.229,23.333-43.38c0.597-8.872-0.819-17.646-3.991-25.737
	c61.42,4.376,107.008,19.031,129.258,41.747c1.6,1.802,3.906,2.843,6.323,2.843c0.644,0,1.297-0.074,1.945-0.228
	c3.817-0.901,6.515-4.309,6.515-8.231C512,214.314,511.683,213.009,511.096,211.836z M426.468,109.619
	c-12.001,3.72-24.384,9.175-36.984,16.335c-18.249,10.37-32.54,21.732-39.952,28.071l-8.519-8.518
	c-1.377-1.377-2.82-2.667-4.31-3.892C359.5,118.026,389.652,107.267,426.468,109.619z M174.792,141.089
	c-1.714,1.374-3.361,2.846-4.929,4.416l-8.006,7.999c-7.568-6.426-21.574-17.454-39.34-27.55
	c-12.6-7.16-24.982-12.616-36.983-16.335C122.083,107.278,152.056,117.862,174.792,141.089z M126.45,148.235
	c7.856,5.144,14.531,10.153,19.569,14.18c-27.119,1.764-57.647,5.839-85.004,14.444C77.901,165.441,99.641,154.573,126.45,148.235z
	 M172.508,235.167c-3.459-2.633-6.444-5.755-8.91-9.224l13.978-13.978c3.303-3.303,3.303-8.658,0-11.961
	c-3.303-3.304-8.659-3.303-11.961,0l-9.162,9.162c-0.312-1.657-0.539-3.336-0.654-5.036c-0.83-12.282,3.687-24.321,12.392-33.031
	c0.082-0.082,0.162-0.165,0.24-0.25l13.391-13.379c2.947-2.946,6.25-5.419,9.838-7.357c17.753-9.651,40.252-5.198,53.119,10.262
	l-62.595,82.165L172.508,235.167z M379.532,337.188l-9.406,9.406c-3.303,3.303-3.303,8.659,0,11.961
	c1.651,1.651,3.816,2.478,5.98,2.478c2.164,0,4.329-0.826,5.98-2.478l7.789-7.789l20.356,26.719c4.741,6.23,4.143,15.1-1.391,20.634
	c-5.536,5.534-14.398,6.13-20.621,1.383l-59.764-45.534l13.728-13.728c3.303-3.303,3.303-8.659,0-11.961
	c-3.303-3.303-8.659-3.303-11.961,0l-15.344,15.344l-45.476-34.648l56.086-42.728L379.532,337.188z M355.072,204.114
	c-0.827,12.281-6.915,23.601-16.706,31.06l-32.081,24.439l-18.521-18.521c-3.302-3.303-8.658-3.303-11.961,0
	c-3.303,3.303-3.303,8.659,0,11.961l16.904,16.905l-96.708,73.674l-15.352-15.352c-3.303-3.303-8.659-3.303-11.961,0
	c-3.303,3.303-3.303,8.659,0,11.961l13.735,13.735l-59.766,45.531c-6.226,4.743-15.095,4.146-20.629-1.388
	c-5.534-5.535-6.132-14.402-1.388-20.629l84.245-110.585l7.395,7.395c1.651,1.652,3.816,2.478,5.98,2.478
	c2.164,0,4.329-0.826,5.98-2.478c3.303-3.303,3.303-8.658,0-11.961l-9.012-9.012l53.984-70.86l13.713,13.713
	c1.651,1.651,3.816,2.478,5.98,2.478c2.164,0,4.329-0.826,5.98-2.478c3.303-3.303,3.303-8.659,0-11.961l-15.33-15.33l5.415-7.108
	c7.459-9.791,18.78-15.88,31.06-16.706c0.959-0.064,1.914-0.096,2.867-0.096c11.271,0,22.127,4.466,30.152,12.491l13.626,13.626
	C351.381,179.797,355.898,191.833,355.072,204.114z M365.983,162.416c5.039-4.027,11.714-9.038,19.57-14.18
	c26.807,6.338,48.547,17.206,65.434,28.624C423.628,168.255,393.101,164.179,365.983,162.416z"/>
<g>
</g>
<g>
</g>
<g>
</g>
<g>
</g>
<g>
</g>
<g>
</g>
<g>
</g>
<g>
</g>
<g>
</g>
<g>
</g>
<g>
</g>
<g>
</g>
<g>
</g>
<g>
</g>
<g>
</g>
</svg>
