<svg id="Capa_1" enable-background="new 0 0 512 512" height="512" viewBox="0 0 512 512" width="512" xmlns="http://www.w3.org/2000/svg"><g><g><g clip-rule="evenodd" fill-rule="evenodd"><path d="m196.001 247.254v62.846h37.5v-86.45c-20.677-13.785-45-54.32-45-75 0-5.922.729-10.99 2.081-15.39-31.748-17.877-17.15-63.76-65.545-40.929l-5.062-8.768c-6.187-10.717-20.019-14.423-30.736-8.236-10.717 6.188-14.424 20.018-8.236 30.736l5.063 8.768c-27.32 15.773-20.247 56.659 10.02 63.075-.001 78.328 60.207 67.345 99.915 69.348z" fill="#aae79a"/><path d="m188.5 148.65c0 20.68 24.323 61.215 45 75v93.951l-15 156.899c-1.57 16.425 13.502 30 30 30h15c16.498 0 31.57-13.576 30-30l-15-156.899v-93.951c20.677-13.785 45-54.32 45-75 0-17.933-6.371-29.446-22.14-38.765 6.961-6.261 11.34-15.336 11.34-25.435 0-18.888-15.312-34.2-34.2-34.2v-20.25c0-12.375-10.125-22.5-22.5-22.5s-22.5 10.125-22.5 22.5v20.25c-18.888 0-34.2 15.312-34.2 34.2 0 10.099 4.379 19.174 11.34 25.435-15.77 9.319-22.14 20.832-22.14 38.765z" fill="#aae79a"/><path d="m278.5 310.101h37.5l-.001-62.846c39.707-2.004 99.915 8.98 99.915-69.348 30.267-6.416 37.34-47.303 10.02-63.075l5.063-8.768c6.188-10.717 2.482-24.548-8.236-30.736-10.717-6.188-24.548-2.482-30.736 8.236l-5.062 8.768c-48.395-22.831-33.797 23.052-65.544 40.929 1.352 4.4 2.081 9.467 2.081 15.39 0 20.68-24.323 61.215-45 75z" fill="#aae79a"/><path d="m278.5 310.101h15v-79.09c21.436-18.444 45-57.128 45-82.361 0-9.744-1.613-18.258-4.949-25.738-3.156 3.902-7.048 7.485-12.132 10.348 1.352 4.4 2.081 9.467 2.081 15.39 0 20.68-24.323 61.215-45 75z" fill="#8edf78"/><path d="m278.5 317.601 15 156.899h15c16.497 0 32.724-13.726 30-30l-22.5-134.399h-37.5z" fill="#aae79a"/><path d="m278.5 317.601 15 156.899h15l-15-157.615v-6.784h-15z" fill="#8edf78"/><path d="m173.5 444.5c-2.724 16.274 13.503 30 30 30h15l15-156.899v-7.5h-37.5z" fill="#aae79a"/><path d="m188.5 148.65c0 20.68 24.323 61.215 45 75v93.951l-15 156.899c-1.57 16.425 13.502 30 30 30h15c1.261 0 2.513-.08 3.75-.234-14.954-1.858-27.701-14.596-26.25-29.766l15-156.899v-93.951c-20.677-13.785-45-48.193-45-67.5s6.37-29.446 22.14-38.765c-6.961-6.261-11.34-10.941-11.34-25.435s15.312-34.2 34.2-34.2v-27.75c0-8.284 4.538-15.559 11.25-19.465-3.315-1.928-7.159-3.035-11.25-3.035-12.375 0-22.5 10.125-22.5 22.5v20.25c-18.888 0-34.2 15.312-34.2 34.2 0 10.099 4.379 19.174 11.34 25.435-15.77 9.319-22.14 20.832-22.14 38.765z" fill="#8edf78"/><path d="m111.085 177.906c-30.267-6.416-37.34-47.303-10.02-63.075l-5.063-8.768c-7.271-12.593-.725-27.878 11.947-32.448-5.986-2.1-12.819-1.689-18.711 1.713-10.717 6.188-14.424 20.018-8.236 30.736l5.063 8.768c-27.32 15.773-20.247 56.659 10.02 63.075 0 59.582 34.838 67.484 68.99 68.737 0-.001-53.99-4.989-53.99-68.738z" fill="#8edf78"/><path d="m173.5 444.5c-2.724 16.274 13.503 30 30 30h15l.087-.908c-13.565-3.311-24.899-15.283-22.587-29.092l22.5-134.399v-70.346h-22.499v70.346z" fill="#8edf78"/></g><g><path d="m263.5 482h-15v-45h15zm0-60h-15v-15h15zm0-334.25h-15v-15h15z" fill="#fff"/></g></g><g><path d="m180.896 445.738 10.012-59.802-14.793-2.477-10.012 59.802c-2.716 16.219 8.865 32.25 26.938 37.287l4.027-14.449c-9.068-2.527-17.818-10.522-16.172-20.361z"/><path d="m374.081 132.489-45 77.943 12.99 7.5 13.272-22.988 30.087-3.587-1.776-14.894-18.945 2.259 22.362-38.733z"/><path d="m263.5 192.749v-26.543l24.263-18.15-8.985-12.011-15.278 11.429v-44.725h-15v44.725l-15.278-11.429-8.985 12.011 24.263 18.15v26.543z"/><path d="m126.57 191.357 30.088 3.587 13.272 22.988 12.99-7.5-45-77.943-12.99 7.5 22.362 38.733-18.946-2.259z"/><path d="m435.861 112.637 1.631-2.824c3.994-6.918 5.05-15 2.971-22.758-2.078-7.757-7.033-14.229-13.951-18.223-14.324-8.271-32.71-3.345-40.981 10.981l-1.709 2.96c-12.875-5.149-22.307-5.685-30.045-1.827-8.343 4.159-12.303 12.265-16.495 20.847-.7 1.433-1.416 2.9-2.173 4.385l13.365 6.81c.795-1.561 1.55-3.104 2.285-4.61 3.177-6.502 5.92-12.118 9.71-14.007 4.273-2.131 12.11-.533 23.295 4.744l6.244 2.945 8.513-14.747c4.136-7.163 13.327-9.626 20.491-5.491 3.448 1.991 5.921 5.228 6.963 9.115s.519 7.927-1.473 11.375l-8.813 15.263 6.495 3.75c11.666 6.735 14.344 18.456 12.96 27.179-1.401 8.833-7.598 19.269-20.785 22.064l-5.944 1.26v6.077c0 27.396-7.752 44.861-23.697 53.393-14.579 7.8-34.845 7.965-52.724 8.11-5.729.047-11.142.091-16.373.355l-7.122.359.001 62.477h-22.5v-75.112c22.077-17.007 45-56.601 45-78.838 0-21.143-8.749-32.781-18.383-40.233 4.887-6.963 7.583-15.331 7.583-23.967 0-20.434-14.773-37.481-34.2-41.024v-13.425c0-16.542-13.458-30-30-30s-30 13.458-30 30v13.425c-19.427 3.542-34.2 20.59-34.2 41.024 0 8.636 2.696 17.004 7.583 23.967-9.634 7.453-18.383 19.091-18.383 40.234 0 22.236 22.923 61.83 45 78.838v75.113h-22.5l.001-62.477-7.122-.359c-5.231-.264-10.644-.308-16.373-.355-17.879-.146-38.144-.31-52.723-8.11-15.946-8.532-23.698-25.997-23.698-53.393v-6.077l-5.944-1.26c-13.188-2.795-19.384-13.231-20.785-22.064-1.384-8.723 1.294-20.443 12.96-27.179l6.495-3.75-8.813-15.263c-4.136-7.163-1.673-16.355 5.49-20.491 7.163-4.134 16.354-1.673 20.491 5.49l8.513 14.747 6.244-2.945c11.117-5.245 18.973-6.753 23.351-4.482 3.952 2.05 6.763 7.803 10.018 14.463.62 1.268 1.251 2.559 1.905 3.86l13.398-6.745c-.629-1.248-1.232-2.485-1.827-3.7-4.051-8.29-8.239-16.862-16.587-21.192-7.76-4.027-17.497-3.58-30.307 1.47l-1.718-2.975c-8.271-14.325-26.654-19.251-40.981-10.981-14.325 8.271-19.251 26.655-10.98 40.981l1.631 2.824c-11.129 9.277-16.458 23.338-14.098 38.218 2.418 15.243 12.619 27.54 26.646 32.705 1.123 30.261 11.465 50.234 31.52 60.964 17.837 9.544 40.065 9.725 59.677 9.884 2.962.024 5.836.047 8.617.102l-.001 54.967-9.908 59.188 14.793 2.477 8.963-53.541h23.618l-14.932 156.186c-.885 9.251 2.239 18.319 8.797 25.533 7.218 7.938 17.935 12.679 28.669 12.679h15c10.733 0 21.451-4.741 28.668-12.681 6.558-7.215 9.683-16.282 8.798-25.533l-8.577-89.721-14.932 1.428 8.577 89.721c.478 4.99-1.286 9.968-4.966 14.016-4.422 4.866-10.99 7.771-17.568 7.771h-15c-6.579 0-13.146-2.905-17.569-7.77-3.679-4.047-5.442-9.025-4.965-14.016l15-156.899.034-98.68-3.34-2.227c-18.688-12.459-41.66-50.373-41.66-68.759 0-17.761 7.378-25.761 18.456-32.309l8.797-5.199-7.598-6.833c-5.628-5.062-8.855-12.3-8.855-19.859 0-14.722 11.978-26.7 26.7-26.7h7.5v-27.75c0-8.271 6.729-15 15-15s15 6.729 15 15v27.75h7.5c14.723 0 26.7 11.978 26.7 26.7 0 7.559-3.228 14.797-8.855 19.859l-7.598 6.833 8.798 5.199c11.077 6.547 18.455 14.547 18.455 32.309 0 18.387-22.972 56.301-41.66 68.759l-3.34 2.226v98.323l5.029 52.606 14.932-1.428-4.927-51.536h23.617l21.451 128.138c1.602 9.564-6.856 17.548-15.627 20.203l4.348 14.356c15.264-4.622 29.121-18.828 26.073-37.036l-22.396-133.784-.001-54.967c2.781-.054 5.655-.078 8.617-.102 19.611-.16 41.84-.34 59.678-9.884 20.054-10.73 30.396-30.704 31.519-60.964 14.027-5.165 24.229-17.462 26.646-32.705 2.36-14.879-2.969-28.941-14.098-38.218z"/></g></g></svg>