<?xml version="1.0" encoding="iso-8859-1"?>
<!-- Generator: Adobe Illustrator 19.0.0, SVG Export Plug-In . SVG Version: 6.00 Build 0)  -->
<svg version="1.1" id="Layer_1" xmlns="http://www.w3.org/2000/svg" xmlns:xlink="http://www.w3.org/1999/xlink" x="0px" y="0px"
	 viewBox="0 0 512 512" style="enable-background:new 0 0 512 512;" xml:space="preserve">
<path style="fill:#8CE16E;" d="M335.448,256c0,219.39-35.57,256-79.448,256s-79.448-36.609-79.448-256S212.121,0,256,0
	S335.448,36.609,335.448,256z"/>
<path style="fill:#7DC86E;" d="M300.138,441.379c-43.879,0-79.448-36.61-79.448-256c0-63.827,3.021-112.132,8.376-148.591
	c1.844-12.554-15.078-18.361-21.453-7.392C188.726,61.892,176.552,127.668,176.552,256c0,219.39,35.57,256,79.448,256
	c23.047,0,43.789-10.168,58.297-51.57c3.329-9.501-3.878-19.08-13.944-19.051C300.281,441.379,300.21,441.379,300.138,441.379z"/>
<path style="fill:#64B464;" d="M212.466,326.621c-4.793,0-8.724-3.828-8.828-8.638c-0.12-5.75-0.224-11.656-0.31-17.725
	c-0.07-4.879,3.828-8.888,8.698-8.957c4.604,0.25,8.888,3.828,8.957,8.698c0.086,6.035,0.19,11.905,0.31,17.603
	c0.104,4.879-3.767,8.914-8.638,9.017C212.586,326.621,212.526,326.621,212.466,326.621z"/>
<g>
	<path style="fill:#7DC86E;" d="M299.534,326.63c-0.061,0-0.12,0-0.19,0c-4.871-0.104-8.741-4.138-8.638-9.017
		c0.12-5.698,0.224-11.569,0.31-17.603c0.061-4.871,4.328-8.509,8.957-8.698c4.871,0.07,8.767,4.077,8.698,8.957
		c-0.086,6.069-0.19,11.975-0.31,17.725C308.258,322.802,304.328,326.63,299.534,326.63z"/>
	<path style="fill:#7DC86E;" d="M256,229.517c-4.879,0-8.828-3.948-8.828-8.828v-8.828c0-4.879,3.948-8.828,8.828-8.828
		c4.879,0,8.828,3.948,8.828,8.828v8.828C264.828,225.569,260.879,229.517,256,229.517z"/>
	<path style="fill:#7DC86E;" d="M291.31,132.414h-0.086c-4.879,0-8.828-3.948-8.828-8.828c0-4.879,3.948-8.828,8.828-8.828
		s8.871,3.948,8.871,8.828C300.095,128.466,296.19,132.414,291.31,132.414z"/>
	<path style="fill:#7DC86E;" d="M238.345,167.724h-0.086c-4.879,0-8.828-3.948-8.828-8.828c0-4.879,3.948-8.828,8.828-8.828
		c4.879,0,8.871,3.948,8.871,8.828C247.129,163.776,243.224,167.724,238.345,167.724z"/>
</g>
<path style="fill:#64B464;" d="M203.121,229.517h-0.086c-4.879,0-8.828-3.948-8.828-8.828s3.948-8.828,8.828-8.828
	s8.871,3.948,8.871,8.828S208,229.517,203.121,229.517z"/>
<g>
	<path style="fill:#7DC86E;" d="M256,114.759h-0.086c-4.879,0-8.828-3.948-8.828-8.828c0-4.879,3.948-8.828,8.828-8.828
		s8.871,3.948,8.871,8.828C264.785,110.81,260.879,114.759,256,114.759z"/>
	<path style="fill:#7DC86E;" d="M282.569,88.276h-0.086c-4.879,0-8.828-3.948-8.828-8.828c0-4.879,3.948-8.828,8.828-8.828
		s8.871,3.948,8.871,8.828C291.353,84.328,287.448,88.276,282.569,88.276z"/>
	<path style="fill:#7DC86E;" d="M282.569,176.552c-4.879,0-8.871-3.948-8.871-8.828s3.905-8.828,8.785-8.828h0.086
		c4.879,0,8.828,3.948,8.828,8.828S287.448,176.552,282.569,176.552z"/>
	<path style="fill:#7DC86E;" d="M300.224,247.172c-4.879,0-8.871-3.948-8.871-8.828c0-4.879,3.905-8.828,8.785-8.828h0.086
		c4.879,0,8.828,3.948,8.828,8.828C309.052,243.224,305.103,247.172,300.224,247.172z"/>
	<path style="fill:#7DC86E;" d="M247.172,70.621h-0.086c-4.879,0-8.828-3.948-8.828-8.828s3.948-8.828,8.828-8.828
		c4.879,0,8.871,3.948,8.871,8.828S252.052,70.621,247.172,70.621z"/>
	<path style="fill:#7DC86E;" d="M256,512c11.379,0,22.188-2.507,31.975-9.98c9.789-24.75,16.408-69.715,19.328-148.589
		c0.181-4.871-3.62-8.966-8.491-9.146c-4.905-0.319-8.974,3.62-9.146,8.491c-3.243,87.551-11.593,139.217-24.836,154.393V264.828
		c0-4.879-3.948-8.828-8.828-8.828c-4.879,0-8.828,3.948-8.828,8.828v242.342c-13.242-15.177-21.593-66.842-24.836-154.393
		c-0.181-4.871-4.285-8.767-9.146-8.491c-4.871,0.181-8.672,4.276-8.491,9.146c2.92,78.874,9.539,123.839,19.328,148.589
		C233.812,509.492,244.621,512,256,512z"/>
</g>
<path style="fill:#64B464;" d="M256,512c11.381,0,22.197-2.502,31.981-9.998c5.321-13.462,9.705-32.917,13.066-60.543
	c-0.237-0.01-0.454-0.081-0.694-0.081c-0.072,0-0.143,0-0.215,0c-5.714,0-11.282-0.643-16.653-2.208
	c-4.385,36.011-10.613,58.78-18.657,67.998v-78.55c-6.428-5.833-12.362-14.069-17.655-25.494v104.044
	c-13.242-15.177-21.593-66.842-24.836-154.393c-0.181-4.871-4.285-8.767-9.146-8.491c-4.871,0.181-8.672,4.276-8.491,9.146
	c2.92,78.874,9.539,123.839,19.328,148.589C233.812,509.492,244.621,512,256,512z"/>
<g>
</g>
<g>
</g>
<g>
</g>
<g>
</g>
<g>
</g>
<g>
</g>
<g>
</g>
<g>
</g>
<g>
</g>
<g>
</g>
<g>
</g>
<g>
</g>
<g>
</g>
<g>
</g>
<g>
</g>
</svg>
