<?xml version="1.0" encoding="iso-8859-1"?>
<!-- Generator: Adobe Illustrator 19.0.0, SVG Export Plug-In . SVG Version: 6.00 Build 0)  -->
<svg version="1.1" id="Capa_1" xmlns="http://www.w3.org/2000/svg" xmlns:xlink="http://www.w3.org/1999/xlink" x="0px" y="0px"
	 viewBox="0 0 512 512" style="enable-background:new 0 0 512 512;" xml:space="preserve">
<g>
	<path style="fill:#46C373;" d="M438.164,162.873c5.413-24.802-1.539-51.752-20.854-71.034c-30.175-30.123-79.099-30.123-109.273,0
		c0,0-60.111,76.125-104.668,71.627c30.394,18.338,62.668,23.877,119.175-20.308c7.112-5.561,17.465-0.354,17.292,8.672
		c-0.386,20.093,1.536,39.726,18.13,73.174c4.215-20.751,9.409-39.008,19.028-53.919c5.211-8.078,17.726-3.494,16.755,6.07
		c-2.928,28.854,0.923,59.89,33.426,96.441C425.838,239.612,428.497,199.357,438.164,162.873z"/>
	<path style="fill:#46C373;" d="M438.75,12.127c-8.76-4.694-19.666-1.49-24.495,7.196l-29.625,53.09
		c11.407,3.363,22.177,9.429,31.34,18.154l30.044-53.484C451.012,28.198,447.735,16.942,438.75,12.127z"/>
</g>
<path style="fill:#E68CBE;" d="M393.747,177.156c0.97-9.564-11.544-14.148-16.755-6.07c-9.619,14.911-14.813,33.168-19.028,53.919
	c-16.594-33.449-18.516-53.081-18.13-73.174c0.173-9.026-10.18-14.233-17.292-8.672c-17.18,13.434-32.117,22.264-45.446,27.543
	l-0.904,0.722c-12.806,21.789-66.92,106.359-165.431,162.656c-26.468,15.126-47.129,49.421-47.129,78.417
	c0,49.257,39.984,86.42,89.133,89.186c171.861,9.671,240.811-201.709,254.62-251.427l0.354-3.246
	C393.165,221.57,391.556,198.751,393.747,177.156z"/>
<path d="M457.227,20.284c-2.135-7.336-7.02-13.363-13.754-16.972c-13.492-7.229-30.52-2.227-37.958,11.151L379.67,60.951
	c-27.606-5.431-57.352,2.501-78.699,23.81c-0.276,0.276-0.539,0.571-0.781,0.877c-15.795,19.975-63.792,71.094-95.818,67.877
	c-4.658-0.481-9.012,2.349-10.491,6.787c-1.479,4.438,0.315,9.308,4.321,11.725c16.033,9.673,33.866,17.063,56.427,14.623
	c-23.565,34.512-72.451,95.098-148.828,138.745c-29.74,16.996-52.167,54.44-52.167,87.099c0,26.218,10.349,50.785,29.142,69.175
	c18.241,17.851,42.898,28.504,69.43,29.997c3.972,0.223,7.917,0.335,11.841,0.335c37.285,0,72.342-10.085,104.358-30.048
	c28.956-18.054,55.582-44.292,79.138-77.985c33.756-48.281,54.016-101.48,64.18-133.321c2.463,3.164,5.104,6.361,7.98,9.595
	c1.938,2.179,4.676,3.355,7.476,3.355c1.255,0,2.522-0.237,3.735-0.725c3.917-1.579,6.421-5.448,6.255-9.668
	c-1.49-37.917,2.298-76.191,10.665-107.771c0.038-0.142,0.072-0.285,0.104-0.429c5.955-27.282-1.37-55.291-19.626-76.05
	l26.422-46.969C458.475,35.327,459.363,27.619,457.227,20.284z M331.149,392.508c-48.74,69.714-108.56,103.091-177.821,99.188
	c-45.434-2.557-79.696-36.607-79.696-79.203c0-25.188,18.882-56.471,42.091-69.734c96.758-55.296,151.335-136.671,167.695-163.923
	c13.473-5.69,28.442-14.634,45.284-27.802c0.161-0.126,0.344-0.268,0.729-0.076c0.414,0.207,0.409,0.479,0.405,0.678
	c-0.448,23.281,2.603,44.418,19.17,77.811c1.899,3.827,6.018,6.03,10.255,5.471c4.236-0.554,7.652-3.738,8.502-7.925
	c3.156-15.539,7.482-33.113,15.71-47.341c-1.576,19.061-0.395,42.529,13.923,69.189
	C390.191,274.466,369.947,337.015,331.149,392.508z M428.438,160.534c-6.536,24.749-10.423,53.269-11.365,82.557
	c-14.631-25.052-15.241-46.556-13.377-64.926c0.917-9.038-4.231-17.13-12.812-20.137c-2.155-0.755-4.34-1.12-6.483-1.12
	c-6.282,0-12.187,3.136-15.813,8.756c-5.579,8.648-9.713,18.23-12.922,27.947c-5.633-17.316-6.063-29.68-5.834-41.589
	c0.155-8.083-4.238-15.346-11.464-18.955c-7.208-3.6-15.633-2.753-21.985,2.212c-36.26,28.354-60.692,34.258-79.803,31.071
	c13.124-6.084,27.327-15.956,42.506-29.567c19.394-17.39,33.814-35.028,36.402-38.252c26.263-25.803,68.654-25.674,94.756,0.384
	C426.464,115.107,433.257,138.127,428.438,160.534z M437.298,32.18l-24.234,43.081c-4.455-3.15-9.134-5.847-13.984-8.064
	l23.915-43.016c2.162-3.889,7.111-5.342,11.031-3.241c1.958,1.049,3.377,2.8,3.998,4.932
	C438.645,28.005,438.387,30.245,437.298,32.18z"/>
<path d="M309.135,359.378c-4.615-3.034-10.815-1.752-13.849,2.864c-28.267,43.004-62.053,71.146-100.418,83.645
	c-5.251,1.711-8.121,7.354-6.411,12.606c1.375,4.222,5.294,6.905,9.506,6.905c1.026,0,2.071-0.16,3.1-0.495
	c42.79-13.94,80.114-44.784,110.936-91.675C315.032,368.611,313.75,362.411,309.135,359.378z"/>
<path d="M321.651,326.234c-2.63,0-5.21,1.07-7.07,2.93c-1.86,1.86-2.93,4.44-2.93,7.07c0,2.64,1.07,5.21,2.93,7.07
	c1.86,1.87,4.44,2.93,7.07,2.93c2.64,0,5.21-1.06,7.07-2.93c1.86-1.86,2.93-4.43,2.93-7.07c0-2.63-1.07-5.21-2.93-7.07
	S324.29,326.234,321.651,326.234z"/>
<g>
</g>
<g>
</g>
<g>
</g>
<g>
</g>
<g>
</g>
<g>
</g>
<g>
</g>
<g>
</g>
<g>
</g>
<g>
</g>
<g>
</g>
<g>
</g>
<g>
</g>
<g>
</g>
<g>
</g>
</svg>
