<?xml version="1.0" encoding="iso-8859-1"?>
<!-- Generator: Adobe Illustrator 19.0.0, SVG Export Plug-In . SVG Version: 6.00 Build 0)  -->
<svg version="1.1" id="Layer_1" xmlns="http://www.w3.org/2000/svg" xmlns:xlink="http://www.w3.org/1999/xlink" x="0px" y="0px"
	 viewBox="0 0 512 512" style="enable-background:new 0 0 512 512;" xml:space="preserve">
<g>
	<path style="fill:#FFE0B2;" d="M500.087,317.2c-45.2-140-188-136.8-221.6-258l1.6,12c-3.2-14-6-28.4-7.2-43.6
		c1.2,11.2,3.2,21.6,5.6,31.2l-6.8-54.4c0-0.8,0-1.6,0-2l0,0V2l-10,2l-22-1.6c0,0.4,0,1.6,0,5.6h-0.4c0,0,0,1.2,0,2.8v0.4
		c0,0,0,0,0-0.4c0-1.6,0-2.8,0-2.8h-0.4l-6.4,51.2l-0.4-0.8c-33.2,121.6-175.6,118.4-220.8,258.4c-39.6,123.2,78,214.8,168.8,160.4
		c0,0,0,0,0.4,0v0.8c-0.4,0.4-0.8,1.6-1.2,1.6c21.6,19.2,48,28,76,32h0.4c28-4,54.4-12.8,76-32c-0.4-0.4,0.4-1.6,0-2
		c0.4,0.4-0.4-0.4,0,0C423.287,532,540.087,440,500.087,317.2z M233.687,61.2l-0.4-1.6c2.8-10,4.8-22,5.6-34.4
		C237.687,37.6,236.087,49.6,233.687,61.2z"/>
	<path style="fill:#FFE0B2;" d="M239.687,2.4V2l-0.4,2h0.4C239.687,3.6,239.687,3.2,239.687,2.4z"/>
</g>
<path d="M122.087,498.8c-25.6,0-50.8-8.8-72.4-26c-35.2-28-64.8-84-41.2-156.8c23.6-73.2,72.4-107.6,120-140.8
	c44-30.8,85.2-60,101.2-117.6c4-14.4,6-30,6.8-46.8c0-2.4,2-4,4-4c2.4,0,4,2,4,4c-0.4,17.6-2.8,33.6-6.8,48.8
	c-16.4,60.8-59.2,90.4-104,122c-46.4,32.4-94,66-116.8,136.8c-22,68.8,5.6,121.6,38.8,148c36,28.8,82.8,32.4,122,9.2
	c2-1.2,4.4-0.4,5.6,1.2c1.2,2,0.4,4.4-1.2,5.6C162.087,493.6,142.087,498.8,122.087,498.8z"/>
<path d="M239.687,12.8L239.687,12.8c-2.4,0-4-2-4-4c0-1.6,0-3.2,0-4.4c0-2.4,1.6-4,4-4c2,0,4,1.6,4,4c0,1.6,0,3.2,0,4.8
	C243.687,11.2,241.687,12.8,239.687,12.8z"/>
<path d="M389.287,499.2c-20,0-40-5.6-58.4-16.4c-2-1.2-2.4-3.6-1.2-5.6s3.6-2.4,5.6-1.2c39.2,23.2,86,19.6,122.4-9.6
	c33.2-26.8,61.2-79.6,38.8-148c-22.8-70.8-70.8-104-117.2-136.4c-45.2-31.6-87.6-61.2-104.4-121.6c-0.4-2,0.8-4.4,2.8-4.8
	s4.4,0.8,4.8,2.8c16,57.6,57.2,86.4,101.2,117.2c47.6,33.2,96.4,67.2,120,140.4c23.2,72.4-6,128.4-41.6,156.8
	C440.487,490,414.887,499.2,389.287,499.2z"/>
<path d="M278.887,63.2c-1.6,0-3.2-1.2-4-2.8c-2.8-10.4-4.8-21.2-6-33.2c-0.4-2,1.2-4,3.6-4.4c2.4-0.4,4,1.2,4.4,3.6
	c1.2,11.2,3.2,22,5.6,31.6c0.4,2-0.8,4.4-2.8,4.8C279.687,63.2,279.287,63.2,278.887,63.2z"/>
<path d="M272.087,21.2c-2,0-3.6-1.6-4-3.6c0-1.2,0-2.8-0.4-4c0-2.4,1.6-4,4-4l0,0c2,0,4,1.6,4,4c0,1.2,0,2.4,0,3.6
	C276.487,18.8,274.887,20.8,272.087,21.2C272.487,21.2,272.487,21.2,272.087,21.2z"/>
<path d="M278.887,63.2c-2,0-3.6-1.2-4-3.2l0,0l-6.8-55.2c-0.4-2,1.2-4,3.6-4.4c2.4-0.4,4,1.2,4.4,3.6l6.8,55.2c0.4,2-1.2,4-3.2,4.4
	C279.287,63.2,278.887,63.2,278.887,63.2z"/>
<path d="M255.687,512h-0.4c-29.6-4.4-56-9.2-78-29.2c-42.4-38-61.6-104-50.8-176.4c4-28.8,21.6-60.4,41.2-96.8
	c22-40,46.8-85.6,59.2-137.6c5.2-20.4,8-40.8,8.4-61.2c0-2.4,2-4,4-4c2.4,0,4,2,4,4c-0.4,20.8-3.6,42-8.8,62.8
	c-12.8,52.8-38,98.8-60,139.2c-19.6,36-36.4,66.8-40.4,94.4c-10,70,8,133.2,48.4,169.2c20.4,18,45.2,23.2,73.2,27.2
	c29.2-4.4,53.2-8.8,73.6-26.8c40.4-36,58.4-99.6,48-170c-4-27.2-21.2-58.4-40.8-94c-22.4-40.4-48-86.8-60.8-140
	c-0.4-2,0.8-4.4,2.8-4.8s4.4,0.8,4.8,2.8c12.8,52.4,38,97.6,60,138c20,36.4,37.6,68,41.6,96.8c10.8,73.2-8.4,139.6-50.4,177.2
	c-22,19.6-48.4,24.8-78,28.8C256.087,512,256.087,512,255.687,512z"/>
<path d="M280.487,75.2c-2,0-3.6-1.2-4-3.2c-3.6-15.2-6.4-30.4-7.6-45.2c-0.4-3.2-0.4-6.4-0.8-9.6c0-1.2,0-2.4-0.4-4c0-2.4,1.6-4,4-4
	l0,0c2,0,4,1.6,4,4c0,1.2,0,2.4,0,3.6c0,3.2,0.4,6.4,0.8,9.6c1.2,14.4,3.6,29.2,7.2,44c0.4,2-0.8,4.4-2.8,4.8
	C280.887,75.2,280.487,75.2,280.487,75.2z"/>
<path d="M239.687,8c-2.4,0-4-1.6-4-4s1.6-4,4-4h32.4l0,0c2.4,0,4,1.6,4,4s-1.6,4-4,4H239.687L239.687,8z"/>
<path d="M236.487,153.2c-0.4,0-0.4,0-0.8,0c-2-0.4-3.6-2.4-3.2-4.8c3.2-18.4,5.6-35.2,7.6-51.6c0.4-2,2.4-3.6,4.4-3.6
	c2,0.4,3.6,2.4,3.6,4.4c-2,16.4-4.4,33.6-7.6,52.4C240.087,152,238.487,153.2,236.487,153.2z"/>
<path d="M210.087,300.4L210.087,300.4c-2.4-0.4-4-2-4-4.4c2.4-26,8-54.4,14.4-87.2l3.2-16.4c0.4-2,2.4-3.6,4.8-3.2
	c2,0.4,3.6,2.4,3.2,4.8l-3.2,16.4c-6.4,32.4-12.4,60.4-14.4,86.4C214.087,298.8,212.487,300.4,210.087,300.4z"/>
<path d="M297.687,428.4c-0.4,0-0.4,0-0.8,0c-2-0.4-3.6-2.4-3.2-4.4c2.4-15.6,4-32.4,4.8-50c0-2.4,2-4,4-4c2.4,0,4,2,4,4
	c-0.8,18-2.4,35.2-5.2,50.8C301.287,426.8,299.687,428.4,297.687,428.4z"/>
<path d="M302.487,309.2c-2,0-4-1.6-4-3.6c-1.6-27.6-7.6-58.4-14.8-93.6l-1.2-5.2c-3.6-17.6-7.2-36-10.8-55.6c-0.4-2,1.2-4.4,3.2-4.8
	s4.4,1.2,4.8,3.2c3.6,19.6,7.2,37.6,10.8,55.2l1.2,5.2c7.2,36,13.6,66.8,15.2,94.8C306.487,307.2,304.887,308.8,302.487,309.2
	L302.487,309.2z"/>
<path d="M271.287,115.2c-2,0-3.6-1.6-4-3.6c-5.6-40.4-8-74.8-8-107.6c0-2.4,1.6-4,4-4l0,0c2.4,0,4,1.6,4,4c0,32.8,2.8,66.8,8,106.8
	c0.4,2-1.2,4.4-3.6,4.4C271.287,115.2,271.287,115.2,271.287,115.2z"/>
<path d="M92.087,467.2c-1.2,0-2.4-0.4-3.2-1.2c-31.6-36.8-42-92.8-27.6-149.6c0.4-2,2.8-3.6,4.8-2.8c2,0.4,3.6,2.8,2.8,4.8
	c-13.6,54.8-4,108,26,142.8c1.6,1.6,1.2,4-0.4,5.6C94.087,467.2,92.887,467.2,92.087,467.2z"/>
<path d="M84.487,269.2c-0.8,0-1.2,0-2-0.4c-2-1.2-2.8-3.6-1.6-5.2c10.4-20.4,23.6-38.4,41.2-57.2c1.6-1.6,4-1.6,5.6,0s1.6,4,0,5.6
	c-17.2,18-30,35.6-40,55.2C87.287,268.4,86.087,269.2,84.487,269.2z"/>
<path d="M451.687,391.6h-0.4c-2-0.4-3.6-2.4-3.6-4.4c2.8-22.4,1.2-45.6-4.8-69.2c-8-32.4-21.2-59.6-40-84c-1.2-1.6-1.2-4.4,0.8-5.6
	c1.6-1.2,4.4-1.2,5.6,0.8c19.6,25.2,32.8,53.6,41.2,86.8c6,24.4,8,48.8,5.2,72C455.687,390.4,453.687,391.6,451.687,391.6z"/>
<g>
</g>
<g>
</g>
<g>
</g>
<g>
</g>
<g>
</g>
<g>
</g>
<g>
</g>
<g>
</g>
<g>
</g>
<g>
</g>
<g>
</g>
<g>
</g>
<g>
</g>
<g>
</g>
<g>
</g>
</svg>
