<?xml version="1.0" encoding="iso-8859-1"?>
<!-- Generator: Adobe Illustrator 19.0.0, SVG Export Plug-In . SVG Version: 6.00 Build 0)  -->
<svg version="1.1" id="Layer_1" xmlns="http://www.w3.org/2000/svg" xmlns:xlink="http://www.w3.org/1999/xlink" x="0px" y="0px"
	 viewBox="0 0 305.271 305.271" style="enable-background:new 0 0 305.271 305.271;" xml:space="preserve">
<g>
	<path style="fill:#CBE5C0;" d="M221.577,189.566c-3.244-3.655-8.765-4.169-12.628-1.175l-37.11,28.76l-3.329-31.072l33.915-34.395
		c2.342-2.375,2.442-6.16,0.227-8.656c-2.215-2.495-5.984-2.846-8.621-0.802L166.13,163.85l-6.487-60.551
		c-0.894-8.346-13.122-8.344-14.016,0l-6.487,60.551l-27.902-21.624c-2.637-2.044-6.407-1.693-8.621,0.802
		c-2.215,2.495-2.115,6.28,0.227,8.656l33.915,34.395l-3.329,31.072l-37.11-28.76c-3.862-2.993-9.384-2.479-12.628,1.175
		c-3.244,3.655-3.098,9.198,0.333,12.678l46.004,46.656l-2.418,22.57c-0.713,14.309,10.697,26.301,25.023,26.301l0,0
		c14.327,0,25.736-11.992,25.023-26.301l-2.418-22.57l46.004-46.656C224.676,198.764,224.821,193.22,221.577,189.566z"/>
	<g>
		<path style="fill:#30BAA1;" d="M281.554,96.502c-3.214-2.391-7.706-2.783-13.136-1.431c1.94-16.863-0.492-28.809-7.894-32.66
			c-4.294-2.233-9.859-1.531-16.252,1.648c-1.753-24.31-11.69-39.12-30.828-25.049c-3.989-16.402-10.469-26.738-19.052-28.122
			c-7.054-1.138-14.659,3.912-22.109,13.69c-5.798-10.84-12.503-17.036-19.647-17.036s-13.849,6.196-19.647,17.036
			c-7.45-9.779-15.055-14.828-22.109-13.69c-8.583,1.384-15.063,11.721-19.052,28.122C72.66,24.918,62.749,39.796,60.999,64.059
			C40.2,53.717,34.143,71.514,36.853,95.071c-32.634-8.129-19.982,47.2,24.998,107.664c22.746,30.576,47.543,53.854,66.283,63.871
			l1.897-17.708l-46.004-46.656c-3.431-3.48-3.576-9.023-0.333-12.678c3.244-3.655,8.765-4.169,12.628-1.175l37.11,28.76
			l3.329-31.072l-33.915-34.395c-2.342-2.376-2.442-6.16-0.227-8.656c2.215-2.495,5.984-2.846,8.621-0.802l27.902,21.624
			l6.487-60.551c0.894-8.346,13.122-8.344,14.016,0l6.487,60.551l27.902-21.624c2.637-2.044,6.407-1.693,8.621,0.802
			s2.115,6.28-0.227,8.656l-33.915,34.395l3.329,31.072l37.11-28.76c3.862-2.993,9.384-2.479,12.628,1.175
			c3.244,3.655,3.098,9.198-0.333,12.678l-46.004,46.656l1.897,17.708c18.74-10.017,43.537-33.295,66.283-63.871
			C279.02,154.88,296.093,107.318,281.554,96.502z"/>
		<path style="fill:#414042;" d="M286.03,90.484L286.03,90.484c-2.102-1.563-5.204-3.118-9.51-3.554
			c0.601-24.128-10.305-35.763-25.918-32.94c-3.214-18.232-11.085-24.752-17.589-26.906c-4.721-1.563-9.753-1.297-15.04,0.784
			c-9.216-26.052-27.658-31.847-44.697-15.693c-12.35-16.178-28.849-16.288-41.282,0C116.355-2.656,97.305-0.273,87.307,27.872
			c-13.609-5.359-28.101,0.623-32.629,26.12c-4.932-0.891-9.413-0.305-13.393,1.766C30.946,61.138,28.464,74.355,28.76,86.93
			c-4.31,0.435-7.417,1.991-9.519,3.555c-12.7,9.447-8.27,31.197-2.318,47.779c7.445,20.741,21.264,45.228,38.911,68.949
			c21.01,28.243,44.681,51.535,64.321,63.463c-0.015,0.14-0.026,0.28-0.033,0.421c-0.448,8.992,2.724,17.536,8.93,24.06
			c6.206,6.523,14.582,10.114,23.585,10.114c9.003,0,17.379-3.592,23.585-10.115c6.206-6.522,9.376-15.067,8.929-24.059
			c-0.007-0.141-0.018-0.281-0.033-0.421c19.64-11.928,43.31-35.218,64.321-63.463c17.646-23.722,31.465-48.208,38.911-68.949
			C294.3,121.681,298.73,99.931,286.03,90.484z M165.353,284.816c-6.917,7.269-18.496,7.294-25.435,0
			c-3.302-3.47-5.011-8.001-4.824-12.778c0.07-0.653,0.518-4.831,2.394-22.34c0.239-2.236-0.538-4.463-2.117-6.064L89.368,196.98
			c-1.557-1.581,0.625-4,2.359-2.661l37.11,28.761c4.283,3.319,10.581,1.13,11.877-4.134c0.197-0.802-0.041,1.016,3.503-32.067
			c0.239-2.236-0.538-4.463-2.117-6.064l-21.664-21.972l14.111,10.936c4.626,3.588,11.427,0.706,12.052-5.129l6.037-56.354
			l6.037,56.354c0.625,5.833,7.421,8.718,12.052,5.129l14.111-10.936l-21.664,21.972c-1.579,1.602-2.356,3.828-2.117,6.064
			c3.543,33.076,3.306,31.263,3.503,32.067c1.294,5.257,7.591,7.457,11.877,4.134l37.109-28.76c1.758-1.362,3.9,1.096,2.361,2.659
			L169.9,243.633c-1.58,1.602-2.356,3.828-2.117,6.064c1.76,16.432,2.324,21.687,2.394,22.34
			C170.363,276.815,168.655,281.345,165.353,284.816z M237.403,198.259c-17.796,23.922-37.315,43.928-54.078,55.686l-0.248-2.311
			l43.509-44.125c6.096-6.183,6.507-16.267,0.602-22.922c-5.899-6.647-15.987-7.43-22.832-2.125l-26.489,20.529l-1.519-14.178
			l31.419-31.864c5.098-5.169,5.316-13.472,0.497-18.9c-4.817-5.428-13.085-6.199-18.825-1.752l-17.282,13.393l-5.055-47.189
			c-0.793-7.411-7.012-13-14.465-13c-7.436,0-13.671,5.572-14.465,12.999l-5.055,47.19l-17.282-13.394
			c-5.737-4.447-14.007-3.676-18.824,1.753c-4.82,5.429-4.602,13.731,0.496,18.899l31.419,31.865l-1.519,14.178l-26.489-20.529
			c-6.983-5.414-17.014-4.432-22.831,2.125c-5.845,6.584-5.581,16.653,0.602,22.922l43.508,44.125l-0.248,2.311
			c-16.765-11.759-36.284-31.765-54.078-55.686c-37.369-50.234-50.419-96.457-36.737-96.457c3.602,0,6.862,2.249,10.67-1.095
			c1.848-1.623,2.783-4.049,2.502-6.493c-1.852-16.101,0.946-23.611,3.904-25.15c1.866-0.97,5.312-0.349,9.452,1.711
			c4.784,2.376,10.437-0.87,10.82-6.176c1.115-15.457,5.119-22.158,8.493-23.275c2.37-0.79,6.072,0.537,10.413,3.729
			c4.299,3.161,10.464,0.935,11.729-4.271c3.808-15.655,9.191-21.883,12.959-22.49c3.74-0.597,9.323,3.447,14.949,10.831
			c3.332,4.375,10.025,3.769,12.579-1.008c4.378-8.186,9.251-13.073,13.034-13.073s8.655,4.888,13.034,13.073
			c2.566,4.797,9.261,5.362,12.579,1.008c5.626-7.385,11.212-11.425,14.949-10.831c3.768,0.608,9.151,6.835,12.958,22.49
			c1.266,5.207,7.43,7.431,11.73,4.271c4.342-3.191,8.042-4.518,10.413-3.729c3.374,1.117,7.378,7.818,8.493,23.275
			c0.383,5.314,6.045,8.547,10.82,6.176c4.14-2.059,7.584-2.681,9.451-1.711c2.959,1.539,5.757,9.05,3.905,25.15
			c-0.598,5.194,4.186,9.402,9.264,8.135c3.15-0.785,5.646-0.723,6.847,0.17C283.968,107.651,276.211,146.091,237.403,198.259z"/>
	</g>
</g>
<g>
</g>
<g>
</g>
<g>
</g>
<g>
</g>
<g>
</g>
<g>
</g>
<g>
</g>
<g>
</g>
<g>
</g>
<g>
</g>
<g>
</g>
<g>
</g>
<g>
</g>
<g>
</g>
<g>
</g>
</svg>
