<?xml version="1.0" encoding="iso-8859-1"?>
<!-- Generator: Adobe Illustrator 19.0.0, SVG Export Plug-In . SVG Version: 6.00 Build 0)  -->
<svg version="1.1" id="Layer_1" xmlns="http://www.w3.org/2000/svg" xmlns:xlink="http://www.w3.org/1999/xlink" x="0px" y="0px"
	 viewBox="0 0 512 512" style="enable-background:new 0 0 512 512;" xml:space="preserve">
<path style="fill:#FFF0BD;" d="M289.154,308.052l26.126,164.083c1.262,17.407-12.52,32.224-29.973,32.224h-59.743
	c-17.453,0-31.235-14.817-29.973-32.224l26.127-164.083H289.154z"/>
<path style="fill:#FFF8E2;" d="M295.568,308.052h-82.047c-12.443,0-22.142-10.782-20.831-23.155l11.776-92.826H304.62l11.776,92.826
	C317.711,297.27,308.01,308.052,295.568,308.052z"/>
<g style="opacity:0.37;">
	<polygon style="fill:#FF9F35;" points="304.621,192.071 204.468,192.071 198.721,242.583 310.368,242.583 	"/>
</g>
<path style="fill:#FF3069;" d="M486.721,177.436C486.721,83.66,383.423,7.64,256,7.64S25.279,83.66,25.279,177.436
	c0,0,60.923,24.821,231.069,24.821C402.668,202.257,486.721,177.436,486.721,177.436z"/>
<g>
	<path style="fill:#FFD6CF;" d="M78.473,190.094c0-27.917,7.119-51.615,21.17-72.703c14.739-22.121,36.339-38.855,64.201-49.739
		c3.93-1.534,8.361,0.407,9.896,4.337c1.535,3.93-0.406,8.36-4.336,9.896c-48.787,19.058-75.754,59.094-75.754,110.556
		L78.473,190.094z"/>
	<path style="fill:#FFD6CF;" d="M197.61,75.093c17.57,13.477,42.74,10.16,56.218-7.412c13.477-17.57,10.16-42.74-7.412-56.217V7.797
		c-19.458,0.586-38.292,2.943-56.217,6.863v4.217C176.721,36.447,180.039,61.616,197.61,75.093z"/>
	<path style="fill:#FFD6CF;" d="M357.57,99.093c1.194,27.344,24.329,48.543,51.672,47.349c27.344-1.194,48.543-24.329,47.349-51.672
		l0.474-0.651c-13.645-17.795-31.522-33.595-52.631-46.664C377.326,48.9,356.383,71.912,357.57,99.093z"/>
	<path style="fill:#FFD6CF;" d="M289.509,130.598c-19.397-19.31-50.775-19.24-70.085,0.158s-19.239,50.775,0.158,70.085v1.009
		c11.647,0.263,23.89,0.407,36.767,0.407c11.494,0,22.602-0.154,33.317-0.436v-1.138
		C308.976,181.286,308.906,149.908,289.509,130.598z"/>
</g>
<g style="opacity:0.13;">
	<polygon style="fill:#FF9F35;" points="289.153,308.052 221.718,308.052 214.95,350.553 295.921,350.553 	"/>
</g>
<g style="opacity:0.28;">
	<path style="fill:#A5173F;" d="M316.536,284.896l-10.608-83.61c115.642-4.578,180.929-23.85,180.929-23.85
		c0-31.618-11.757-61.21-32.207-86.558c-0.032-0.04-0.063-0.079-0.095-0.118c-0.848-1.049-1.711-2.09-2.589-3.124
		c-0.05-0.058-0.099-0.117-0.149-0.175c-0.873-1.027-1.761-2.045-2.664-3.057c-0.05-0.055-0.099-0.111-0.149-0.166
		c-0.913-1.021-1.839-2.034-2.78-3.039c-0.031-0.033-0.061-0.065-0.093-0.098c-3.032-3.233-6.22-6.382-9.543-9.448
		c10.129,19.111,15.693,39.902,15.693,61.652c0,0-58.975,64.376-174.618,68.954l4.296,81.585
		c1.312,12.373-8.392,24.211-20.835,24.211h-5h5.618l0,0l19.099,119.95c1.262,17.407-12.52,32.224-29.973,32.224h-53.246
		l-1.897,11.909c-1.262,17.407,12.52,32.224,29.973,32.224h59.743c17.453,0,31.235-14.817,29.973-32.224l-19.359-121.582l0,0
		l-6.905-42.501h6.552C308.148,308.052,317.848,297.27,316.536,284.896z"/>
</g>
<path d="M423.673,51.219c-4.254-3.13-8.64-6.126-13.147-8.986c-0.926-1.002-2.115-1.749-3.451-2.14C364.59,14.133,311.734,0,256,0
	C192.754,0,133.207,18.19,88.327,51.219C42.744,84.766,17.64,129.59,17.64,177.436c0,3.107,1.88,5.903,4.757,7.074
	c2.215,0.903,49.298,19.473,173.425,24.263l-10.695,75.045c-0.013,0.092-0.024,0.182-0.034,0.273
	c-0.854,8.048,1.761,16.115,7.174,22.133c5.245,5.831,12.682,9.241,20.5,9.448l-24.722,155.262c-0.035,0.216-0.059,0.432-0.075,0.65
	c-0.754,10.406,2.889,20.756,9.995,28.395S215.13,512,225.563,512h59.742c10.433,0,20.493-4.382,27.599-12.021
	c7.107-7.64,10.75-17.99,9.996-28.396c-0.016-0.218-0.041-0.434-0.075-0.65l-24.737-155.361c7.165-0.637,13.886-3.958,18.735-9.348
	c5.412-6.016,8.029-14.084,7.175-22.132c-0.009-0.092-0.021-0.182-0.034-0.274l-10.715-75.185
	c110.384-4.972,172.641-22.986,175.636-23.87c3.247-0.959,5.476-3.941,5.476-7.327C494.359,129.591,469.256,84.766,423.673,51.219z
	 M448.977,96.171c0.418,22.625-17.335,41.647-40.07,42.639c-23.087,1.032-42.698-16.958-43.706-40.048
	c-0.969-22.175,15.563-41.125,37.326-43.488C420.908,66.935,436.64,80.75,448.977,96.171z M241.767,17.527
	c14.2,10.891,16.891,31.306,5.999,45.506c-5.276,6.879-12.915,11.292-21.51,12.424c-8.591,1.134-17.116-1.149-23.996-6.427
	c-14.2-10.891-16.891-31.305-5.999-45.506c0.612-0.798,1.036-1.678,1.292-2.59c13.696-2.705,27.909-4.486,42.509-5.239
	C240.515,16.378,241.08,17,241.767,17.527z M212.627,165.813c-0.025-11.196,4.311-21.732,12.211-29.668
	c7.899-7.935,18.416-12.319,29.613-12.345c0.033,0,0.064,0,0.098,0c11.16,0,21.659,4.335,29.571,12.211
	c7.934,7.899,12.318,18.416,12.344,29.613c0.023,10.731-3.969,20.849-11.254,28.658c-9.334,0.216-18.953,0.334-28.861,0.334
	c-11.301,0-22.11-0.113-32.458-0.321C216.644,186.537,212.651,176.487,212.627,165.813z M301.717,489.572
	c-4.287,4.609-10.116,7.149-16.41,7.149h-59.742c-6.295,0-12.123-2.538-16.41-7.149c-4.219-4.535-6.33-10.413-5.963-16.581
	l25.046-157.299h54.397l25.046,157.299C308.047,479.159,305.936,485.037,301.717,489.572z M305.462,296.005
	c-2.558,2.842-6.071,4.408-9.894,4.408h-82.047c-3.823,0-7.337-1.566-9.894-4.408c-2.529-2.811-3.717-6.423-3.352-10.18
	l10.82-75.928h7.367v39.182c0,4.22,3.421,7.64,7.64,7.64s7.64-3.42,7.64-7.64v-39.182h14.967v39.182c0,4.22,3.421,7.64,7.64,7.64
	c4.219,0,7.64-3.42,7.64-7.64v-39.182h14.968v39.182c0,4.22,3.42,7.64,7.64,7.64s7.64-3.42,7.64-7.64v-39.182h3.758l10.82,75.928
	C309.179,289.581,307.991,293.193,305.462,296.005z M304.449,193.685c4.772-8.486,7.316-18.094,7.293-28.095
	c-0.035-15.278-6.016-29.629-16.844-40.408c-10.796-10.748-25.12-16.662-40.349-16.662c-0.044,0-0.089,0-0.132,0.001
	c-15.278,0.034-29.628,6.016-40.406,16.844c-18.459,18.541-21.533,46.666-9.29,68.42c-47.234-1.57-83.654-5.17-110.806-9.089
	c2.198-48.205,28.796-84.572,75.49-102.811c3.93-1.536,5.871-5.966,4.336-9.896c-1.535-3.93-5.965-5.871-9.896-4.337
	c-27.863,10.885-49.463,27.618-64.201,49.739c-12.534,18.812-19.54,40.624-20.909,64.931c-24.042-4.069-38.727-8.114-45.692-10.3
	c3.041-67.049,62.358-123.917,144.638-146.417c-7.705,19.35-2.041,42.264,15.279,55.55c8.422,6.46,18.517,9.868,28.956,9.868
	c2.101,0,4.218-0.139,6.337-0.418c12.641-1.666,23.877-8.156,31.638-18.273c13.127-17.113,12.832-40.356,0.811-57.01
	c45.739,0.691,88.133,11.439,123.168,29.318c-7.103,3.151-13.551,7.749-18.958,13.65c-10.322,11.265-15.64,25.873-14.973,41.137
	c1.34,30.665,26.713,54.704,57.114,54.702c0.836,0,1.68-0.018,2.525-0.055c24.541-1.072,44.835-17.54,51.962-39.657
	c10.304,17.69,16.412,36.973,17.4,57.187C460.795,176.192,399.436,189.973,304.449,193.685z"/>
<g>
</g>
<g>
</g>
<g>
</g>
<g>
</g>
<g>
</g>
<g>
</g>
<g>
</g>
<g>
</g>
<g>
</g>
<g>
</g>
<g>
</g>
<g>
</g>
<g>
</g>
<g>
</g>
<g>
</g>
</svg>
