<?xml version="1.0" encoding="iso-8859-1"?>
<!-- Generator: Adobe Illustrator 19.0.0, SVG Export Plug-In . SVG Version: 6.00 Build 0)  -->
<svg version="1.1" id="Layer_1" xmlns="http://www.w3.org/2000/svg" xmlns:xlink="http://www.w3.org/1999/xlink" x="0px" y="0px"
	 viewBox="0 0 512 512" style="enable-background:new 0 0 512 512;" xml:space="preserve">
<path style="fill:#CE93D8;" d="M257.642,506.4c-0.4,0-0.8,0-1.2,0C256.842,506.4,257.242,506.4,257.642,506.4z"/>
<g>
	<path style="fill:#7CB342;" d="M276.442,143.2c0-2,0-4-0.4-5.6h3.2C278.442,139.6,277.242,141.6,276.442,143.2z"/>
	<path style="fill:#7CB342;" d="M386.442,37.2c-36.8,3.2-80.8,50.8-107.2,102.8c-1.2,0-2,4.8-2.8,6.8c-9.6,19.2-16.4,38.8-19.6,57.6
		h-0.4l-0.4,2.4c0,0,0.4,0,0.4,0.4s0,0.4,0,0.8l0,0l2,0.4c11.2,6.8,20.4,20.4,24,27.6h2.8c4.4-11.2,10-18.4,16-22.8h1.6
		c0-0.4,0-1.2,0.4-1.6c2-1.2,3.6-2.4,5.6-3.2v-17.2C331.642,102,400.442,36,386.442,37.2z"/>
	<path style="fill:#7CB342;" d="M276.442,145.6L276.442,145.6L276.442,145.6c0-2,0-5.6-0.4-5.6c-4-80-12.4-133.6-20.8-133.6
		c-8.4,0-16.8,53.6-20.8,133.6c0,0,0.8,3.2,0.8,5.6v1.2h-1.2c0,0.4,0.4,0.4,0.4,0.8h-0.4h0.4c9.2,19.6,16,39.2,19.2,57.2l0.4,2.4
		c0.4-0.4,0.8,0.4,1.6,0.4l0,0h0.4C259.242,188,266.442,166,276.442,145.6L276.442,145.6L276.442,145.6z"/>
	<path style="fill:#7CB342;" d="M230.442,140h4.4c0,0-0.4,5.2-0.4,8C232.842,145.2,231.642,140,230.442,140z"/>
</g>
<path style="fill:#CE93D8;" d="M432.042,363.6c-14.8-52-136-125.2-115.6-159.6c0,0-4.8,0.8-8.8,4.4c-8,4.4-17.2,11.6-23.2,27.6
	c-0.4,0-0.8,1.6-1.2,2.8c0,0-0.4-2.8-1.6-2.8c-3.6-8-14-24-26-28l0,0c-0.4,0-0.8,0.4-1.6,0.8c-11.6,6.8-21.2,19.2-24.8,27.2
	c-1.2,0-1.6,2.8-1.6,2.8c-0.4-0.8-0.8-2.8-1.2-2.8c-7.2-20-19.2-26-23.2-29.6c-4-2-7.2-2-7.2-2c20.4,34.4-102.4,107.2-117.2,159.2
	c-24.8,86.4,68.4,143.6,176.8,143.6l-0.8,0.8l0,0c0.4,0,0.4,0,0.4,0h0.4c0.4,0,0.8,0,1.2,0l0,0c0.4,0,0.4,0,0.8,0
	C365.642,508,456.842,449.2,432.042,363.6z"/>
<path style="fill:#7CB342;" d="M254.442,204.8h-0.8c-3.2-18-10-37.2-19.2-56.8h1.2v-2.4c0-2.8-4-5.6-5.2-5.6
	c-26.4-52-68.8-99.6-105.2-102.8c-13.6-1.2,50.8,61.2,78.8,147.2v22.4c4,3.2,16,9.6,23.2,29.6h2.8c3.6-8,13.6-21.6,24.8-28.4
	L254.442,204.8z"/>
<path d="M208.442,213.6c-2,0-3.6-1.2-4-3.2c-1.6-8-3.6-16.4-6.4-24.8c-16.4-52.4-46.8-96.4-65.2-122.8c-13.6-19.2-16.4-24-14-28.4
	c0.4-0.8,2-2.8,5.6-2.4c40.4,3.6,84.4,54.8,109.6,104c1.6,2.8,2.8,5.6,4,8.4c0.8,2,0,4.4-2,5.2c-2,0.8-4.4,0-5.2-2
	c-1.2-2.8-2.4-5.2-4-8c-27.6-53.6-67.6-93.2-99.2-99.2c2.4,4,7.2,11.2,12,17.6c18.4,26.8,49.6,71.2,66,124.8
	c2.8,8.8,4.8,17.2,6.4,25.6c0.4,2-0.8,4.4-3.2,4.8C208.842,213.6,208.442,213.6,208.442,213.6z"/>
<path d="M253.642,208.8c-2,0-3.6-1.6-4-3.2c-2.8-17.2-9.2-37.2-19.2-57.6c-0.8-2,0-4.4,2-5.2c2-0.8,4.4,0,5.2,2
	c10,21.2,16.8,42,19.6,60c0.4,2-1.2,4.4-3.2,4.4C254.042,208.8,254.042,208.8,253.642,208.8z"/>
<path d="M300.842,215.2c-0.4,0-0.4,0-0.8,0c-2-0.4-3.6-2.4-3.2-4.8c1.2-6.8,2.8-13.6,4.8-20.4c16-56.8,48.4-103.6,68-131.6
	c4.8-6.8,9.6-13.6,12-17.6c-31.2,5.6-71.6,45.6-99.2,98.8c-1.2,2-2,3.6-2.8,5.6c-10,20.8-17.2,41.2-20,59.2c-0.4,2-2.4,3.6-4.8,3.2
	c-2-0.4-3.6-2.4-3.2-4.8c3.2-18.8,10.4-40,20.8-61.6c0.8-2,2-4,2.8-6c25.2-49.2,69.2-100.4,109.6-103.6c3.6-0.4,4.8,1.6,5.6,2.4
	c2.4,4.4-0.8,8.8-14,28.4c-19.2,27.6-51.2,74-66.8,129.2c-2,6.4-3.6,13.2-4.8,19.6C304.442,214,302.842,215.2,300.842,215.2z"/>
<path d="M235.642,152c-2.4,0-4-1.6-4-4v-2.4c0-1.2,0-2,0-3.2c0-1.6-0.4-3.2,0-5.2c2-38.8,4.8-72,8.4-96.4
	c5.6-37.6,11.2-40.8,15.6-40.8c4.8,0,10,3.2,16,40.8c3.6,24,6.8,58.4,8.8,96.4c0,1.2,0,2,0,3.2c0,0.8,0,1.6,0,2.4c0,2.4-1.6,4-4,4
	c-2,0-4-1.6-4-4c0-0.8,0-2,0-2.8s0-2,0-2.8c-4-82-12-120.8-16.4-128.8c-4.4,8-12.4,46.8-16.4,128.8c0,1.2,0,2.8,0,4s0,2.4,0,3.6v2.4
	C239.642,150.4,238.042,152,235.642,152z"/>
<path d="M256.042,510.4L256.042,510.4c-72.4,0-136-24.8-166-64.8c-18.4-24.4-23.2-53.2-14.4-83.6c7.2-24.8,36-52.8,64.4-80
	c30.4-29.6,62-60,52.4-76c-0.8-1.2-0.8-3.2,0.4-4.4c0.8-1.2,2.4-2,4-1.6c0.4,0,3.2,0.8,7.2,2.8c6,3.2,17.2,10,24.8,25.2
	c4.4-6.8,13.2-18,23.6-24c0.8-0.4,2.4-1.2,4.4,0h0.4c11.2,3.6,20.4,16.4,25.6,24.4c6.4-12.4,14.8-19.6,21.2-23.6
	c6-4,10.8-5.2,11.2-5.2c1.6-0.4,3.2,0,4,1.6c0.8,1.2,1.2,3.2,0.4,4.4c-9.6,16,22,46.4,52.4,76c28,27.2,57.2,55.2,64.4,80
	c8.8,30.4,3.6,59.2-14.4,83.2c-29.2,39.6-92,64.4-163.2,65.2c-0.4,0-0.8,0-0.8,0C257.242,510.4,256.442,510.4,256.042,510.4z
	 M202.042,211.2c1.6,20.4-25.6,46.8-56.8,76.8c-27.2,26.4-55.6,53.6-62,76.4c-8,28.4-3.6,54,13.2,76.8c28.4,38,89.6,61.6,159.6,61.6
	c0.4,0,0.8,0,0.8,0c0.4,0,0.8-0.4,1.6-0.4c68.8-0.8,128.8-24.4,156.8-62c16.8-22.4,21.2-48,13.2-76.4c-6.4-22.4-34.8-50-62-76.4
	c-30.8-30-58-56.4-56.8-76.8c-0.4,0.4-0.8,0.4-1.6,0.8c-6,3.6-14,10.8-20,23.6l-1.2,2.4c-0.4,1.2-1.6,2-2.4,2.4
	c-1.2,0.4-4,0.4-6-3.2c-8.4-14-16.4-22.4-23.6-25.2l0,0c-10.8,6.8-19.6,20.4-22,24.4c-1.2,2-1.6,2.8-1.6,2.8
	c-0.8,1.2-2.4,1.6-3.6,1.6c-1.6,0-2.8-1.2-3.2-2.4l-0.4-0.8c-0.4-0.8-0.4-1.2-0.8-1.6C216.842,221.6,207.642,214.4,202.042,211.2z"
	/>
<path d="M257.642,509.6c-1.2,0-2-0.4-2.8-1.2c-0.8-0.8-1.2-1.6-1.2-2.8c0-1.2,0.4-2,1.2-2.8c1.6-1.6,4-1.6,5.6,0
	c0.8,0.8,1.2,1.6,1.2,2.8c0,1.2-0.4,2-1.2,2.8C259.642,509.2,258.842,509.6,257.642,509.6z"/>
<path d="M255.642,512h-0.4c-42.8,0-81.6-17.2-106-47.2c-22.8-27.6-30.4-62.8-22.4-101.6c2.4-11.6,8.4-25.2,18.8-41.6
	c1.2-2,3.6-2.4,5.6-1.2c2,1.2,2.4,3.6,1.2,5.6c-9.6,15.2-15.6,28.4-17.6,39.2c-7.6,36.4,0,69.2,20.8,94.8c22.8,28,59.2,44,100,44
	h0.4c2.4,0,4,1.6,4,4S258.042,512,255.642,512z"/>
<path d="M163.242,305.2c-0.8,0-1.6-0.4-2.4-0.8c-1.6-1.2-2.4-3.6-0.8-5.6c4-5.6,8-11.2,12-16.8c10.4-14,20.4-27.6,27.6-40
	c1.2-2,3.6-2.4,5.6-1.6c2,1.2,2.4,3.6,1.6,5.6c-7.6,12.8-17.2,26.4-28,40.8c-4,5.6-8,11.2-12,16.8
	C165.642,304.4,164.442,305.2,163.242,305.2z"/>
<path d="M368.442,336.4c-1.2,0-2.8-0.8-3.6-2c-8.8-15.2-20.4-31.6-32-47.2c-6-8.4-12-16.4-17.2-24c-1.2-2-0.8-4.4,1.2-5.6
	s4.4-0.8,5.6,1.2c5.2,7.6,11.2,15.6,17.2,24c11.6,16,23.6,32.4,32.8,48.4c1.2,2,0.4,4.4-1.6,5.6
	C370.042,336.4,369.242,336.4,368.442,336.4z"/>
<path d="M259.642,512h-1.2c-2.4,0-4-1.6-4-4s1.6-4,4-4c39.2,0,76-16.4,98.8-44c21.2-26,28.4-58.4,20.8-94.8c-0.4-2,0.8-4.4,3.2-4.8
	c2-0.4,4.4,0.8,4.8,3.2c7.6,38-0.4,74-22.8,101.2C339.642,494,300.842,511.6,259.642,512L259.642,512z"/>
<path d="M256.442,510.4c-2.4,0-4-1.6-4-4s2-4,4.4-4c0,0,0,0,0.4,0c2-0.4,4,1.2,4.4,3.6c0.4,2-1.2,4-3.2,4.4
	C257.642,510.4,257.242,510.4,256.442,510.4z"/>
<path d="M255.242,510.4c-2.4,0-4-1.6-4-4s1.6-4,4-4l0,0c2.4,0,4,1.6,4,4S257.642,510.4,255.242,510.4z"/>
<path d="M210.842,483.2c-1.2,0-2.4-0.4-3.2-1.6c-18.8-26.8-27.2-68.8-22.8-114.8c0.4-2,2-4,4.4-3.6c2,0.4,4,2,3.6,4.4
	c-4,44.4,3.6,84.4,21.6,109.6c1.2,2,0.8,4.4-0.8,5.6C212.442,483.2,211.642,483.2,210.842,483.2z"/>
<path d="M196.842,332.4c-0.4,0-0.8,0-1.2,0c-2-0.8-3.2-2.8-2.8-5.2c4.4-14.4,10.4-29.6,16-44c7.2-18.4,13.6-35.6,17.6-50.4
	c0-0.4,0.4-0.8,0.4-1.2v-0.8c0.4-2,2.8-3.6,4.8-2.8c2,0.4,3.6,2.8,2.8,4.8v0.4c0,0.4-0.4,0.8-0.4,1.6c-4,15.2-10.8,32.8-18,51.2
	c-5.6,14.4-11.6,29.6-16,43.6C200.442,331.6,198.842,332.4,196.842,332.4z"/>
<path d="M321.242,426.8c0,0-0.4,0-0.8,0c-2-0.4-3.6-2.4-3.2-4.4c2.8-18.4,3.2-38,0.8-58.8c-2.4-23.2-13.2-50.4-23.6-77.2
	c-7.2-18.4-14-36-18-51.6c-0.4-0.8-0.4-2-0.8-2.8c-0.4-2,0.8-4.4,3.2-4.8c2-0.4,4.4,0.8,4.8,3.2c0,0.8,0.4,2,0.8,2.8
	c3.6,15.2,10.4,32.4,17.6,50.4c10.4,27.2,21.6,55.2,24,79.2c2.4,21.6,2,42-0.8,60.8C324.842,425.2,323.242,426.8,321.242,426.8z"/>
<path d="M257.642,512h-1.6c-2.4,0-4-1.6-4-4s1.6-4,4-4h2c20,0,39.2-17.2,50.8-46c0.8-2,3.2-3.2,5.2-2.4c2,0.8,3.2,3.2,2.4,5.2
	C302.842,492.8,281.242,512,257.642,512z"/>
<path d="M255.642,372c-2.4,0-4-1.6-4-4V248c0-2.4,1.6-4,4-4s4,1.6,4,4v120C259.642,370.4,258.042,372,255.642,372z"/>
<path d="M255.642,512c-2.4,0-4-1.6-4-4v-96c0-2.4,1.6-4,4-4s4,1.6,4,4v96C259.642,510.4,258.042,512,255.642,512z"/>
<g>
</g>
<g>
</g>
<g>
</g>
<g>
</g>
<g>
</g>
<g>
</g>
<g>
</g>
<g>
</g>
<g>
</g>
<g>
</g>
<g>
</g>
<g>
</g>
<g>
</g>
<g>
</g>
<g>
</g>
</svg>
