<?xml version="1.0" encoding="iso-8859-1"?>
<!-- Generator: Adobe Illustrator 18.0.0, SVG Export Plug-In . SVG Version: 6.00 Build 0)  -->
<!DOCTYPE svg PUBLIC "-//W3C//DTD SVG 1.1//EN" "http://www.w3.org/Graphics/SVG/1.1/DTD/svg11.dtd">
<svg version="1.1" id="Capa_1" xmlns="http://www.w3.org/2000/svg" xmlns:xlink="http://www.w3.org/1999/xlink" x="0px" y="0px"
	 viewBox="0 0 377.09 377.09" style="enable-background:new 0 0 377.09 377.09;" xml:space="preserve">
<g>
	<g>
		<path style="fill:#CE593F;" d="M138.121,261.672c-0.006-0.028-0.016-0.07-0.021-0.094
			C138.106,261.606,138.114,261.64,138.121,261.672z"/>
		<path style="fill:#CE593F;" d="M122.448,123.291c0.206,0.007,0.416,0.022,0.624,0.031
			C122.864,123.313,122.655,123.298,122.448,123.291z"/>
		<path style="fill:#CE593F;" d="M127.993,123.81c0.312,0.05,0.621,0.111,0.931,0.169C128.614,123.92,128.305,123.86,127.993,123.81
			z"/>
		<path style="fill:#CE593F;" d="M143.888,134.62c0.152,0.388,0.307,0.775,0.434,1.189
			C144.195,135.395,144.041,135.009,143.888,134.62z"/>
		<path style="fill:#CE593F;" d="M124.29,123.387c0.255,0.018,0.512,0.045,0.769,0.068
			C124.803,123.433,124.546,123.405,124.29,123.387z"/>
		<path style="fill:#CE593F;" d="M126.143,123.557c0.29,0.032,0.58,0.076,0.869,0.115
			C126.722,123.633,126.433,123.59,126.143,123.557z"/>
		<path style="fill:#CE593F;" d="M139.126,265.783c-0.051-0.196-0.096-0.37-0.143-0.554
			C139.03,265.415,139.074,265.585,139.126,265.783z"/>
		<path style="fill:#CE593F;" d="M138.482,263.231c-0.032-0.134-0.063-0.263-0.092-0.383
			C138.419,262.97,138.449,263.094,138.482,263.231z"/>
		<path style="fill:#CE593F;" d="M139.571,267.441c-0.022-0.079-0.04-0.149-0.061-0.227
			C139.531,267.292,139.549,267.361,139.571,267.441z"/>
		<path style="fill:#CE593F;" d="M138.77,264.402c-0.047-0.185-0.089-0.356-0.131-0.525
			C138.682,264.048,138.723,264.214,138.77,264.402z"/>
		<path style="fill:#CE593F;" d="M138.265,262.312c-0.019-0.082-0.04-0.173-0.056-0.245
			C138.226,262.142,138.245,262.224,138.265,262.312z"/>
		<path style="fill:#CE593F;" d="M140.942,129.893c0.247,0.266,0.49,0.537,0.719,0.823
			C141.432,130.43,141.19,130.16,140.942,129.893z"/>
		<path style="fill:#CE593F;" d="M140.445,129.372c-0.255-0.249-0.519-0.485-0.789-0.716
			C139.926,128.887,140.191,129.123,140.445,129.372z"/>
		<path style="fill:#CE593F;" d="M140.285,269.95c-0.072-0.246-0.148-0.503-0.216-0.74
			C140.137,269.448,140.213,269.703,140.285,269.95z"/>
		<path style="fill:#CE593F;" d="M129.83,124.154c0.323,0.07,0.643,0.15,0.964,0.229
			C130.472,124.304,130.154,124.223,129.83,124.154z"/>
		<path style="fill:#CE593F;" d="M143.077,132.871c0.187,0.343,0.374,0.687,0.539,1.054
			C143.451,133.558,143.264,133.215,143.077,132.871z"/>
		<path style="fill:#CE593F;" d="M142.089,131.296c0.219,0.303,0.436,0.609,0.634,0.934
			C142.524,131.905,142.307,131.6,142.089,131.296z"/>
		<path style="fill:#CE593F;" d="M133.399,125.155c0.322,0.114,0.639,0.238,0.955,0.364
			C134.038,125.393,133.722,125.269,133.399,125.155z"/>
		<path style="fill:#CE593F;" d="M131.636,124.599c0.326,0.091,0.647,0.192,0.967,0.294
			C132.282,124.791,131.962,124.69,131.636,124.599z"/>
		<path style="fill:#CE593F;" d="M135.096,125.829c0.317,0.14,0.628,0.289,0.936,0.444
			C135.724,126.119,135.413,125.969,135.096,125.829z"/>
		<path style="fill:#CE593F;" d="M136.715,126.631c0.305,0.168,0.605,0.344,0.899,0.528
			C137.32,126.975,137.021,126.799,136.715,126.631z"/>
		<path style="fill:#CE593F;" d="M138.241,127.571c0.289,0.198,0.573,0.403,0.849,0.618
			C138.814,127.973,138.531,127.769,138.241,127.571z"/>
		<path style="fill:#CE593F;" d="M140.947,272.164c-0.097-0.315-0.194-0.633-0.285-0.937
			C140.753,271.532,140.85,271.848,140.947,272.164z"/>
		<path style="fill:#CE593F;" d="M164.189,320.946c-0.322-0.457-0.631-0.918-0.945-1.377
			C163.558,320.028,163.868,320.488,164.189,320.946z"/>
		<path style="fill:#CE593F;" d="M159.71,314.152c-0.311-0.502-0.62-1.004-0.923-1.506
			C159.091,313.149,159.399,313.65,159.71,314.152z"/>
		<path style="fill:#CE593F;" d="M157.632,310.697c-0.285-0.487-0.571-0.975-0.849-1.462
			C157.061,309.723,157.347,310.209,157.632,310.697z"/>
		<path style="fill:#CE593F;" d="M166.605,324.278c-0.214-0.284-0.415-0.573-0.626-0.858
			C166.19,323.705,166.392,323.993,166.605,324.278z"/>
		<path style="fill:#CE593F;" d="M172.935,332.002c-0.389-0.436-0.78-0.871-1.16-1.312
			C172.156,331.131,172.547,331.565,172.935,332.002z"/>
		<path style="fill:#CE593F;" d="M216.451,345.062c-20.462-19.38-44.309-54.734-41.717-113.111
			c2.579-58.105,5.779-94.521,7.23-109.214c-0.554-0.023-19.37-1.779-22.356,14.206c-0.669,3.584-3.679,5.737-7.324,5.737
			c-0.032,0-0.066,0-0.098,0c-3.603,0-6.706-1.998-7.385-5.545c-0.12-0.626-0.282-0.932-0.454-1.508
			c-4.587-2.226-10.178-2.747-15.164-2.749c-0.897,16.436-1.313,65.191,17.323,137.796c0.032,0.127,0.062,0.291,0.088,0.42
			c0.093,0.46,7.571,36.042,29.928,64.722c4.848,4.944,10.227,9.499,16.223,13.344c13.578,8.709,28.94,13.022,45.769,12.855
			C231.688,357.799,224.037,352.247,216.451,345.062z"/>
		<path style="fill:#CE593F;" d="M175.852,335.155c-0.422-0.438-0.841-0.879-1.255-1.323
			C175.011,334.277,175.43,334.717,175.852,335.155z"/>
		<path style="fill:#CE593F;" d="M155.613,307.135c-0.236-0.43-0.479-0.861-0.71-1.289
			C155.134,306.275,155.376,306.705,155.613,307.135z"/>
		<path style="fill:#CE593F;" d="M170.066,328.652c-0.323-0.392-0.655-0.78-0.972-1.175
			C169.411,327.872,169.742,328.26,170.066,328.652z"/>
		<path style="fill:#CE593F;" d="M161.894,317.57c-0.327-0.496-0.646-0.993-0.966-1.491
			C161.248,316.577,161.567,317.074,161.894,317.57z"/>
		<path style="fill:#CE593F;" d="M143.395,279.618c-0.129-0.367-0.249-0.719-0.372-1.078
			C143.146,278.899,143.266,279.25,143.395,279.618z"/>
		<path style="fill:#CE593F;" d="M145.912,286.368c-0.155-0.395-0.316-0.796-0.466-1.185
			C145.596,285.573,145.756,285.973,145.912,286.368z"/>
		<path style="fill:#CE593F;" d="M144.454,282.559c-0.103-0.278-0.199-0.546-0.299-0.82
			C144.255,282.013,144.352,282.281,144.454,282.559z"/>
		<path style="fill:#CE593F;" d="M142.488,276.974c-0.123-0.366-0.24-0.721-0.357-1.078
			C142.249,276.254,142.365,276.608,142.488,276.974z"/>
		<path style="fill:#CE593F;" d="M141.675,274.49c-0.111-0.345-0.219-0.686-0.324-1.021
			C141.456,273.805,141.564,274.143,141.675,274.49z"/>
		<path style="fill:#CE593F;" d="M147.187,289.527c-0.187-0.451-0.375-0.903-0.555-1.348
			C146.812,288.625,147,289.076,147.187,289.527z"/>
		<path style="fill:#CE593F;" d="M151.531,299.237c-0.223-0.46-0.434-0.915-0.651-1.373
			C151.097,298.322,151.309,298.776,151.531,299.237z"/>
		<path style="fill:#CE593F;" d="M153.273,302.74c-0.187-0.366-0.365-0.728-0.548-1.092
			C152.908,302.013,153.086,302.374,153.273,302.74z"/>
		<path style="fill:#CE593F;" d="M149.982,295.942c-0.221-0.483-0.436-0.96-0.65-1.438
			C149.546,294.982,149.76,295.459,149.982,295.942z"/>
		<path style="fill:#CE593F;" d="M148.538,292.711c-0.208-0.477-0.413-0.952-0.614-1.423
			C148.126,291.759,148.33,292.233,148.538,292.711z"/>
	</g>
	<g>
		<path style="fill:#84BD93;" d="M159.552,76.443c0.056,0.035,0.105,0.076,0.162,0.109
			C159.658,76.519,159.608,76.478,159.552,76.443z"/>
		<path style="fill:#84BD93;" d="M182.89,106.482C180.139,96.086,173,88.65,161.67,84.382c-2.952-1.111-4.896-3.948-4.87-7.103
			c0.002-0.228,0.03-1.41,0.289-3.302c-0.725-1.178-1.143-2.66-1.131-4.107c0.01-1.116,0.563-24.191,26.583-45.191
			c-0.001,0-0.002,0-0.002,0c-0.567,0-1.097-0.983-1.569-1.418c-26.917,16.193-30.473,54.27-30.507,54.667
			c-0.264,3.094-2.402,5.734-5.382,6.606c-12.643,3.699-18.361,14.506-20.945,23.761c-0.775-0.041-1.56-0.062-2.357-0.075
			c13.342,0.221,23.772,4.257,30.392,11.483c5.554-6.535,14.525-12.054,28.152-12.054c0.934,0,1.886,0.03,2.853,0.083
			C183.082,107.316,183.002,106.905,182.89,106.482z"/>
		<path style="fill:#84BD93;" d="M158.62,75.767c0.027,0.023,0.052,0.05,0.079,0.073C158.672,75.817,158.648,75.79,158.62,75.767z"
			/>
		<path style="fill:#84BD93;" d="M157.811,74.966c-0.002-0.002-0.003-0.004-0.005-0.007
			C157.808,74.962,157.809,74.964,157.811,74.966z"/>
	</g>
	<path style="fill:#3F2D20;" d="M266.766,359.084c-0.201-0.061-20.308-6.319-39.973-24.943
		c-26.452-25.054-38.912-59.21-37.034-101.522c3.276-73.773,23.975-152.214-18.018-167.172c1.807-7.506,8.002-22.494,29.2-34.861
		c1.866-1.089,3.173-2.926,3.59-5.044c0.416-2.119-0.098-4.315-1.411-6.028C188.159,0,182.908,0,180.384,0
		c-1.379,0-2.689,0.308-3.896,0.917c-30.641,15.451-39.084,50.557-41.204,63.577c-41.88,17.917-34.829,110.752-11.931,200.053
		c1.001,4.824,14.788,67.413,61.199,97.237c15.865,10.193,33.596,15.309,52.965,15.307c9.228,0,18.831-1.161,28.775-3.488
		c3.313-0.774,5.692-3.676,5.804-7.077C272.206,363.125,270.021,360.073,266.766,359.084z M137.967,260.985
		c-18.636-72.605-18.22-121.29-17.323-137.726c9.769,0.005,21.875,2.518,24.157,14.435c0.679,3.547,3.783,6.106,7.385,6.106
		c0.032,0,0.066,0,0.098-0.001c3.645-0.047,6.655-2.713,7.324-6.297c2.985-15.984,21.801-14.79,22.356-14.766
		c-1.451,14.693-4.651,51.11-7.23,109.214c-2.592,58.377,21.255,93.731,41.717,113.111c7.586,7.185,15.237,12.741,22.063,16.957
		c-16.829,0.166-32.191-4.141-45.769-12.851c-41.889-26.866-54.568-87.198-54.689-87.798
		C138.029,261.241,138,261.113,137.967,260.985z M149.622,70.687c0.034-0.397,3.59-38.417,30.507-54.611
		c1.54,1.421,3.646,3.661,5.876,6.241c-29.453,20.813-30.035,46.5-30.046,47.665c-0.026,3.154,1.918,5.991,4.87,7.103
		c11.33,4.267,18.469,11.703,21.22,22.099c0.822,3.108,1.139,6.068,1.213,8.552c-0.996-0.056-1.976-0.084-2.938-0.084
		c-13.626,0-22.598,5.521-28.152,12.055c-6.62-7.227-17.05-11.258-30.392-11.48c1.442-9.879,6.282-26.23,22.46-30.962
		C147.219,76.393,149.357,73.781,149.622,70.687z"/>
</g>
<g>
</g>
<g>
</g>
<g>
</g>
<g>
</g>
<g>
</g>
<g>
</g>
<g>
</g>
<g>
</g>
<g>
</g>
<g>
</g>
<g>
</g>
<g>
</g>
<g>
</g>
<g>
</g>
<g>
</g>
</svg>
