<?xml version="1.0" encoding="iso-8859-1"?>
<!-- Generator: Adobe Illustrator 18.0.0, SVG Export Plug-In . SVG Version: 6.00 Build 0)  -->
<!DOCTYPE svg PUBLIC "-//W3C//DTD SVG 1.1//EN" "http://www.w3.org/Graphics/SVG/1.1/DTD/svg11.dtd">
<svg version="1.1" id="Capa_1" xmlns="http://www.w3.org/2000/svg" xmlns:xlink="http://www.w3.org/1999/xlink" x="0px" y="0px"
	 viewBox="0 0 52.854 52.854" style="enable-background:new 0 0 52.854 52.854;" xml:space="preserve">
<g>
	<path style="fill:#A46F3E;" d="M44.282,36.698c-1.129,7.649-10.681,12.576-21.335,11.003C12.293,46.129,4.571,38.654,5.7,31.005
		c0.678-4.595,2.771-7.552,8.239-7.882c5.269-0.318,12.417,2.843,16.672,3.471C41.265,28.166,45.411,29.049,44.282,36.698z"/>
	<path style="fill:#994530;" d="M52.521,18.292c-1.957-7.48-6.118-6.668-16.537-3.942c-4.16,1.089-11.975,0.98-16.699,3.336
		c-2.883,1.438-4.328,3.258-4.796,5.425c5.208-0.085,12.013,2.875,16.122,3.482c9.047,1.335,13.385,2.189,13.802,7.094
		C50.549,29.855,53.977,23.856,52.521,18.292z"/>
	<path style="fill:#6A3311;" d="M14.204,23.07c0.468-2.167,1.913-3.987,4.796-5.425c1.522-0.759,3.367-1.261,5.305-1.631
		c-3.087-3.104-6.882-7.873-10.795-9.897C8.645,3.601,5.333,5.07,2.398,8.67c-4.325,5.305-2.613,14.039,3.625,20.695
		c0.929-3.652,3.129-5.954,7.916-6.243c0.859-0.052,1.772-0.004,2.71,0.103C15.809,23.12,14.987,23.057,14.204,23.07z"/>
	<path style="fill:#6A3311;" d="M12.999,36.793c-0.448,0-0.855-0.303-0.969-0.757l-1-4c-0.134-0.536,0.192-1.079,0.728-1.213
		c0.536-0.133,1.079,0.192,1.213,0.728l1,4c0.134,0.536-0.192,1.079-0.728,1.213C13.161,36.784,13.08,36.793,12.999,36.793z"/>
	<path style="fill:#6A3311;" d="M34.999,23.793c-0.448,0-0.855-0.303-0.969-0.757l-1-4c-0.134-0.536,0.192-1.079,0.728-1.213
		c0.537-0.133,1.079,0.192,1.213,0.728l1,4c0.134,0.536-0.192,1.079-0.728,1.213C35.161,23.784,35.08,23.793,34.999,23.793z"/>
	<path style="fill:#6A3311;" d="M26.575,44.793c-0.323,0-0.639-0.156-0.832-0.444c-0.307-0.458-0.184-1.08,0.275-1.387l3.426-2.294
		c0.458-0.306,1.08-0.184,1.387,0.275c0.307,0.458,0.184,1.08-0.275,1.387l-3.426,2.294C26.96,44.738,26.766,44.793,26.575,44.793z"
		/>
	<path style="fill:#A46F3E;" d="M9.001,13.793c-0.323,0-0.639-0.156-0.832-0.444c-0.307-0.458-0.184-1.08,0.275-1.387l3.426-2.294
		c0.458-0.307,1.08-0.184,1.387,0.275c0.307,0.458,0.184,1.08-0.275,1.387l-3.426,2.294C9.386,13.738,9.192,13.793,9.001,13.793z"/>
	<path style="fill:#6A3311;" d="M29.275,34.486c-0.087,0-0.177-0.012-0.265-0.036l-3.976-1.092c-0.533-0.146-0.846-0.697-0.7-1.229
		c0.146-0.532,0.696-0.849,1.229-0.7l3.976,1.092c0.533,0.146,0.846,0.697,0.7,1.229C30.117,34.194,29.714,34.486,29.275,34.486z"/>
	<path style="fill:#A46F3E;" d="M8.486,20.993c-0.183,0-0.367-0.05-0.533-0.154l-3.487-2.2C4,18.344,3.859,17.727,4.154,17.259
		c0.294-0.466,0.914-0.606,1.379-0.312l3.487,2.2c0.467,0.295,0.607,0.912,0.312,1.379C9.143,20.828,8.818,20.993,8.486,20.993z"/>
	<path style="fill:#6A3311;" d="M45.001,26.564c-0.272,0-0.543-0.11-0.741-0.328c-0.371-0.409-0.34-1.042,0.069-1.413l3.053-2.771
		c0.409-0.371,1.041-0.34,1.413,0.069c0.371,0.409,0.34,1.042-0.069,1.413l-3.053,2.771C45.481,26.478,45.24,26.564,45.001,26.564z"
		/>
</g>
<g>
</g>
<g>
</g>
<g>
</g>
<g>
</g>
<g>
</g>
<g>
</g>
<g>
</g>
<g>
</g>
<g>
</g>
<g>
</g>
<g>
</g>
<g>
</g>
<g>
</g>
<g>
</g>
<g>
</g>
</svg>
