<svg height="511pt" viewBox="-21 0 511 511.99829" width="511pt" xmlns="http://www.w3.org/2000/svg"><path d="m213.761719 118.925781-5.421875-30.761719c-4.207032-23.859374-10.78125-47.238281-19.625-69.792968-2.972656-7.585938-10.882813-12.027344-18.910156-10.609375-8.027344 1.414062-13.941407 8.292969-14.140626 16.441406-.597656 24.214844 1.222657 48.433594 5.429688 72.292969l5.425781 30.761718c7.78125 44.148438-174.972656 86.6875-157.292969 186.953126 15.472657 87.738281 104.582032 118.429687 231.546876 96.039062 126.96875-22.386719 200.207031-81.703125 184.734374-169.441406-17.679687-100.269532-203.960937-77.734375-211.746093-121.882813zm0 0" fill="#deb48c"/><g fill="#d19169"><path d="m290.730469 188.832031c-.25 0-.5-.011719-.753907-.039062-10.664062-1.066407-30.832031-3.984375-46.046874-11.558594-3.710938-1.84375-5.222657-6.347656-3.375-10.054687 1.84375-3.710938 6.34375-5.222657 10.054687-3.375 13.570313 6.75 33.09375 9.285156 40.859375 10.0625 4.125.414062 7.128906 4.089843 6.71875 8.210937-.386719 3.867187-3.648438 6.753906-7.457031 6.753906zm0 0"/><path d="m119.34375 176.910156c-50.40625 32.464844-121.449219 73.015625-110.117188 137.296875 15.472657 87.738281 104.582032 118.429688 231.546876 96.042969 12.96875-2.289062 25.371093-4.964844 37.179687-8.015625-175.625-15.765625-184.761719-139.261719-158.609375-225.324219zm0 0"/><path d="m308.019531 352.535156c-3.695312 0-6.914062-2.730468-7.421875-6.492187-.558594-4.105469 2.320313-7.886719 6.421875-8.441407 8.539063-1.15625 40.160157-14.539062 48.152344-18.574218 3.695313-1.863282 8.207031-.382813 10.074219 3.3125 1.867187 3.699218.382812 8.210937-3.316406 10.078125-5.886719 2.972656-40.921876 18.425781-52.894532 20.046875-.339844.046875-.679687.070312-1.015625.070312zm0 0"/></g><path d="m164.175781 301.351562c-2.523437-14.308593-19.136719-23.34375-37.105469-20.175781-17.972656 3.167969-30.496093 17.335938-27.972656 31.648438 2.523438 14.3125 19.136719 23.34375 37.109375 20.175781 17.96875-3.167969 30.492188-17.335938 27.96875-31.648438zm0 0" fill="#fff"/><path d="m275.507812 281.707031c2.519532 14.308594 19.132813 23.34375 37.105469 20.175781 17.96875-3.167968 30.492188-17.339843 27.96875-31.648437-2.519531-14.3125-19.132812-23.34375-37.105469-20.175781-17.96875 3.167968-30.492187 17.335937-27.96875 31.648437zm0 0" fill="#fff"/><path d="m220.488281 295.199219c-13.023437 2.296875-25.4375-6.398438-27.734375-19.417969l-3.019531-17.140625c-.628906-3.554687 1.746094-6.941406 5.300781-7.570313l34.277344-6.042968c3.554688-.628906 6.945312 1.746094 7.570312 5.300781l3.023438 17.140625c2.292969 13.019531-6.398438 25.433594-19.417969 27.730469zm0 0" fill="#495059"/><path d="m340.347656 428.628906-14.304687-14.308594c-4.8125-4.8125-4.8125-12.617187 0-17.425781l101.160156-101.164062c4.8125-4.8125 12.617187-4.8125 17.429687 0l14.308594 14.308593c4.808594 4.808594 4.808594 12.613282 0 17.425782l-101.164062 101.164062c-4.8125 4.8125-12.617188 4.8125-17.429688 0zm0 0" fill="#f8eed1"/><path d="m394.167969 328.761719-68.128907 68.128906c-4.8125 4.8125-4.8125 12.617187 0 17.429687l14.308594 14.308594c4.8125 4.808594 12.617188 4.808594 17.425782 0l36.898437-36.898437c-8.269531-11.28125-6.992187-38.273438-.503906-62.96875zm0 0" fill="#edd8a4"/><path d="m331.472656 445.605469-19.015625-6.921875c-6.394531-2.328125-9.695312-9.398438-7.367187-15.792969l48.933594-134.441406c2.328124-6.394531 9.398437-9.691407 15.792968-7.363281l19.015625 6.921874c6.394531 2.328126 9.691407 9.398438 7.363281 15.792969l-48.929687 134.4375c-2.328125 6.394531-9.398437 9.691407-15.792969 7.367188zm0 0" fill="#f8eed1"/><path d="m130.007812 381.683594c-6.285156 0-24.625-1.089844-38.203124-4.320313-4.027344-.960937-6.515626-5.003906-5.558594-9.035156.960937-4.027344 5.003906-6.519531 9.035156-5.558594 11.46875 2.730469 28.542969 3.914063 34.722656 3.914063 4.144532 0 7.5 3.355468 7.5 7.5 0 4.140625-3.355468 7.5-7.496094 7.5zm0 0" fill="#deb48c"/><path d="m81.007812 245.171875c-2.109374 0-4.207031-.886719-5.691406-2.613281-2.699218-3.140625-2.339844-7.875.800782-10.574219 6.574218-5.652344 17.457031-11.203125 24.785156-13.972656 3.875-1.464844 8.203125.492187 9.667968 4.363281 1.464844 3.875-.492187 8.203125-4.367187 9.667969-6.265625 2.367187-15.574219 7.246093-20.3125 11.316406-1.414063 1.21875-3.152344 1.8125-4.882813 1.8125zm0 0" fill="#deb48c"/><path d="m297.183594 253.847656c.433594 0 .871094-.039062 1.3125-.117187 4.078125-.71875 6.804687-4.609375 6.085937-8.6875l-2.464843-13.964844c-.71875-4.082031-4.605469-6.804687-8.6875-6.085937-4.082032.71875-6.804688 4.609374-6.085938 8.6875l2.464844 13.96875c.640625 3.640624 3.804687 6.199218 7.375 6.199218zm-98.886719 43.527344c5.347656 3.742188 11.574219 5.695312 17.964844 5.695312 1.835937 0 3.683593-.160156 5.527343-.488281 17.070313-3.007812 28.511719-19.347656 25.5-36.417969l-3.019531-17.140624c-.652343-3.691407-2.703125-6.910157-5.773437-9.058594-3.070313-2.152344-6.796875-2.980469-10.484375-2.324219l-34.28125 6.042969c-3.691407.652344-6.910157 2.699218-9.058594 5.769531s-2.976563 6.796875-2.324219 10.488281l3.019532 17.140625c1.460937 8.269531 6.050781 15.476563 12.929687 20.292969zm31.367187-44.796875 2.855469 16.1875c1.574219 8.929687-4.410156 17.472656-13.335937 19.046875-4.324219.761719-8.6875-.207031-12.285156-2.726562-3.597657-2.515626-5.996094-6.285157-6.757813-10.609376l-2.855469-16.1875zm234.578126 52.15625-14.308594-14.308594c-3.742188-3.746093-8.722656-5.808593-14.015625-5.808593-.933594 0-1.855469.089843-2.765625.214843 2.59375-14.394531 2.519531-29.566406-.257813-45.328125-5.167969-29.304687-23.570312-51.441406-56.257812-67.6875-27.167969-13.5-59.890625-20.769531-88.761719-27.1875-31.703125-7.042968-64.492188-14.328125-66.726562-27.007812l-5.421876-30.761719c-4.285156-24.292969-11.023437-48.257813-20.027343-71.226563-4.261719-10.871093-15.699219-17.289062-27.195313-15.257812-11.5 2.023438-20.050781 11.96875-20.339844 23.640625-.070312 2.824219-.105468 5.683594-.113281 8.492187-.003906 4.144532 3.347657 7.507813 7.488281 7.515626h.015626c4.136718 0 7.492187-3.351563 7.496093-7.488282.007813-2.695312.042969-5.441406.109375-8.152344.113282-4.558593 3.453125-8.445312 7.945313-9.238281 4.492187-.789062 8.964843 1.71875 10.628906 5.964844 8.640625 22.042969 15.105469 45.042969 19.21875 68.355469l5.421875 30.761718c3.976562 22.542969 36.75 29.828126 78.246094 39.046876 55.132812 12.25 123.742187 27.496093 133.5 82.835937 3.539062 20.078125 2.164062 38.957031-4.0625 56.15625l-12.367188 12.371094 1.550782-4.269531c1.8125-4.976563 1.578124-10.359376-.660157-15.160157-2.238281-4.796875-6.210937-8.4375-11.1875-10.25l-19.011719-6.917969c-10.273437-3.738281-21.671874 1.578126-25.410156 11.847657l-35.75 98.222656c-21.273437 7.796875-45.386718 14.105469-71.753906 18.753906-62.226562 10.972657-115.3125 8.789063-153.523438-6.3125-38.933593-15.386719-62.261718-43.527343-69.332031-83.644531-9.757812-55.339844 49.5-93.132812 97.113281-123.5 35.839844-22.855469 64.148438-40.910156 60.175782-63.453125l-5.425782-30.761719c-1.644531-9.339844-2.933593-18.859375-3.828124-28.296875-.390626-4.121093-4.058594-7.144531-8.175782-6.757812-4.125.390625-7.148437 4.050781-6.757812 8.175781.933594 9.832031 2.277344 19.753906 3.992187 29.480469l5.421875 30.765625c2.238282 12.675781-26.078125 30.734375-53.464844 48.199218-24.933593 15.902344-53.195312 33.925782-74.109374 55.90625-25.160157 26.441407-34.878907 53.542969-29.714844 82.847657 7.929687 44.953125 35.105468 77.800781 78.59375 94.988281 24.214844 9.570312 52.875 14.359375 85.699218 14.359375 21.144532 0 44.035157-2.011719 68.546876-5.992187l1.222656 6.953124c-1.714844 6.867188-10.402344 14.054688-18.835938 21.015626-8.792968 7.261718-17.886718 14.765624-22.867187 24.277343-1.921875 3.667969-.503907 8.199219 3.167969 10.121094 1.109374.582031 2.296874.859375 3.472656.859375 2.699218 0 5.308594-1.464844 6.648437-4.023438 3.578125-6.828124 11.480469-13.355468 19.128907-19.667968 4.496093-3.710938 9.046874-7.484375 13-11.511719l.347656 1.960937 10.042968 56.949219c.640626 3.636719 3.804688 6.199219 7.375 6.199219.433594 0 .871094-.039062 1.3125-.117188 4.078126-.71875 6.800782-4.609374 6.082032-8.6875l-6.601563-37.4375c5.09375 2.433594 10.660157 4.417969 16.160157 6.371094 9.339843 3.316406 19.003906 6.746094 24.695312 11.9375 1.441406 1.3125 3.25 1.960938 5.054688 1.960938 2.035156 0 4.0625-.824219 5.542968-2.445313 2.789063-3.0625 2.570313-7.808593-.488281-10.597656-7.933594-7.234375-19.042969-11.175781-29.789063-14.992187-10.308593-3.65625-20.929687-7.4375-24.890624-13.304688l-3.511719-19.910156v-.007813l-1.5-8.496093c19.722656-3.761719 38.191406-8.453126 55.164062-14.007813l-6.570312 18.054687c-3.738281 10.273438 1.574219 21.667969 11.847656 25.40625l19.015625 6.921876c2.230469.8125 4.511719 1.195312 6.757812 1.195312 8.097657 0 15.722657-5.003906 18.648438-13.042969l.730469-2.003906c3.007812-.945313 5.761719-2.597656 8.035156-4.867187l24.675781-24.679688c2.929688-2.929688 2.929688-7.675781 0-10.605469-2.925781-2.925781-7.675781-2.925781-10.605468 0l-11.78125 11.78125 24.183593-66.441406 42.953125-42.953125c.914063-.914062 2.125-1.414062 3.414063-1.414062 1.285156 0 2.496093.5 3.410156 1.410156l14.304687 14.3125c1.882813 1.878906 1.882813 4.9375 0 6.820312l-51.710937 51.710938c-2.929687 2.929687-2.929687 7.675781 0 10.609375 1.464844 1.460937 3.382813 2.195312 5.304687 2.195312 1.917969 0 3.839844-.734375 5.300782-2.195312l51.714844-51.714844c3.742187-3.742187 5.804687-8.722656 5.804687-14.015625s-2.058594-10.273438-5.804687-14.015625zm-75.09375-3.5-46.6875 128.273437c-.003907.015626-.007813.03125-.015626.042969l-2.226562 6.121094c-.910156 2.5-3.683594 3.792969-6.183594 2.882813l-19.011718-6.917969c-2.5-.910157-3.792969-3.683594-2.882813-6.183594l48.929687-134.4375c.910157-2.5 3.6875-3.792969 6.183594-2.882813l19.015625 6.917969c1.207031.441407 2.175781 1.328125 2.71875 2.496094s.601563 2.476563.160157 3.6875zm-261.214844-47.058594c-4.082032.71875-6.804688 4.605469-6.085938 8.683594l2.460938 13.96875c.644531 3.640625 3.808594 6.199219 7.378906 6.199219.433594 0 .871094-.035156 1.3125-.113282 4.078125-.71875 6.800781-4.609374 6.082031-8.691406l-2.460937-13.964844c-.71875-4.078124-4.605469-6.804687-8.6875-6.082031zm0 0"/></svg>