<?xml version="1.0" encoding="iso-8859-1"?>
<!-- Generator: Adobe Illustrator 19.0.0, SVG Export Plug-In . SVG Version: 6.00 Build 0)  -->
<svg xmlns="http://www.w3.org/2000/svg" xmlns:xlink="http://www.w3.org/1999/xlink" version="1.1" id="Layer_1" x="0px" y="0px" viewBox="0 0 505.454 505.454" style="enable-background:new 0 0 505.454 505.454;" xml:space="preserve" width="512" height="512">
<g>
	<g>
		<path style="fill:#70D65B;" d="M403.285,65.655c0.497,0.153,0.994,0.306,1.491,0.459c46.466,14.295,71.408,64.932,53.988,110.32    c-46.365,120.802-129.972,227.184-241.495,302.274c-62.64,42.176-148.256,11.674-170.46-60.503    c-0.243-0.791-0.487-1.583-0.73-2.374c-16.799-54.606,10.053-112.838,62.175-136.234c79.797-35.818,149.961-96.472,198.149-176.91    C326.279,69.509,366.318,54.282,403.285,65.655z"/>
		<path style="fill:#58B741;" d="M90.987,478.207c-20.201-13.729-36.246-34.196-44.177-59.998c-0.246-0.793-0.484-1.579-0.73-2.372    c-16.796-54.614,10.058-112.843,62.174-136.238c79.798-35.818,149.967-96.469,198.152-176.913    c19.878-33.172,59.914-48.403,96.883-37.025c0.498,0.147,0.989,0.302,1.495,0.456c20.938,6.436,37.502,20.264,47.792,37.656    c-5.58-3.292-11.645-5.987-18.123-7.987c-0.505-0.154-0.997-0.309-1.495-0.456c-36.969-11.378-77.005,3.853-96.883,37.025    C287.889,212.8,217.721,273.451,137.922,309.268c-52.116,23.394-78.97,81.623-62.174,136.238c0.246,0.793,0.484,1.579,0.73,2.372    C79.911,459.018,84.852,469.167,90.987,478.207z"/>
		<path style="fill:#4AA032;" d="M355.192,65.21l57.709-57.709l50.192,27.934l-5.316,78.704l-31.729,15.966l-3.032-5.197    c-9.466-16.227-28.89-23.759-46.821-18.156l-13.261,4.144L355.192,65.21z"/>
	</g>
	<path d="M465.374,112.973l1.352-20.013c0.279-4.133-2.845-7.709-6.978-7.988c-4.147-0.281-7.709,2.846-7.988,6.978l-1.176,17.414   l-21.618,10.878c-11.471-18.75-33.935-27.231-55.005-20.647l-5.065,1.583l-5.661-33.401l50.967-50.967l41.088,22.868l-1.334,19.755   c-0.279,4.133,2.845,7.709,6.978,7.988c4.132,0.285,7.709-2.845,7.988-6.978l1.655-24.501c0.196-2.897-1.298-5.647-3.835-7.059   L416.549,0.947c-2.929-1.63-6.581-1.12-8.951,1.25L375,34.796c-12.973,5.069-28.698,7.432-43.297,6.654   c1.96-5.969,1.897-12.132-0.313-17.871c-3.474-9.021-11.765-15.765-21.123-17.181c-8.104-1.228-15.672,1.76-20.756,8.202   c-6.8,8.625-6.084,16.021-4.286,20.706c2.598,6.772,9.158,12.238,18.933,15.957c-4.32,2.777-10.073,5.724-17.724,8.572   c-3.882,1.445-5.857,5.763-4.412,9.646c1.124,3.02,3.986,4.885,7.03,4.885c0.869,0,1.753-0.152,2.616-0.473   c13.528-5.036,23.912-11.151,30.942-18.214c10.258,1.341,21.136,1.227,31.741-0.233l-3.153,3.153   c-21.516,6.702-39.66,20.914-51.227,40.234c-40.372,67.384-97.722,122.57-165.851,159.591c-3.64,1.978-4.986,6.531-3.009,10.171   c1.359,2.502,3.936,3.92,6.597,3.92c1.209,0,2.437-0.293,3.574-0.912c70.484-38.301,129.807-95.378,171.557-165.064   c8.5-14.198,21.255-25.093,36.44-31.33l5.852,34.531c-9.992,19.999-26.236,43.721-45.995,67.107   c-2.673,3.164-2.275,7.896,0.889,10.569c1.408,1.19,3.127,1.771,4.836,1.771c2.132,0,4.25-0.904,5.733-2.66   c20.287-24.011,37.084-48.522,47.627-69.427l10.212-3.191c14.685-4.591,30.353,1.487,38.105,14.776l1.191,2.042   c-5.489,13.719-13.085,31.279-24.089,50.394c-2.066,3.589-0.832,8.175,2.758,10.242c1.179,0.679,2.465,1.001,3.735,1.001   c2.595,0,5.119-1.349,6.507-3.76c11.675-20.279,19.628-38.783,25.328-53.084l21.612-10.875c4.851,16.082,4.267,33.24-1.818,49.101   c-22.96,59.815-54.983,115.765-95.181,166.295c-40.723,51.191-89.003,95.753-143.5,132.449   c-27.799,18.715-61.896,23.03-93.543,11.836c-31.766-11.233-55.662-36.136-65.589-68.409c-0.234-0.756-0.468-1.512-0.703-2.286   c-15.578-50.655,9.389-105.335,58.077-127.191c3.779-1.696,5.467-6.135,3.771-9.914c-1.696-3.779-6.135-5.469-9.914-3.771   c-55.58,24.949-84.07,87.408-66.279,145.26c0.235,0.774,0.477,1.555,0.738,2.398c11.311,36.771,38.61,65.221,74.898,78.055   c13.227,4.677,26.822,6.985,40.309,6.984c23.396-0.001,46.455-6.949,66.613-20.52c55.771-37.554,105.182-83.161,146.861-135.553   c41.151-51.729,73.937-109.013,97.446-170.259C473.992,157.685,473.824,134.274,465.374,112.973z M316.38,39.323   c-10.256-2.441-15.971-6.318-17.15-9.391c-0.587-1.532,0.106-3.566,2.059-6.043c1.448-1.835,3.281-2.76,5.462-2.76   c0.412,0,0.836,0.033,1.272,0.099c3.995,0.604,7.848,3.788,9.37,7.741C318.643,32.218,318.287,35.743,316.38,39.323z"/>
</g>















</svg>
