<?xml version="1.0" standalone="no"?>
<!DOCTYPE svg PUBLIC "-//W3C//DTD SVG 20010904//EN"
 "http://www.w3.org/TR/2001/REC-SVG-20010904/DTD/svg10.dtd">
<svg version="1.0" xmlns="http://www.w3.org/2000/svg"
 width="512.000000pt" height="512.000000pt" viewBox="0 0 512.000000 512.000000"
 preserveAspectRatio="xMidYMid meet">
<metadata>
Created by potrace 1.11, written by Peter Selinger 2001-2013
</metadata>
<g transform="translate(0.000000,512.000000) scale(0.100000,-0.100000)"
fill="#000000" stroke="none">
<path d="M1980 4985 c-91 -30 -192 -64 -225 -76 -58 -20 -81 -27 -98 -28 -19
-2 -57 -56 -57 -80 0 -16 21 -56 54 -101 30 -41 52 -79 49 -85 -4 -5 -3 -7 2
-3 4 4 23 -13 42 -38 20 -25 31 -49 27 -53 -5 -5 -94 -37 -197 -71 -263 -88
-265 -92 -122 -286 52 -71 121 -165 153 -209 32 -44 101 -136 152 -205 51 -68
97 -135 103 -147 6 -13 13 -23 17 -23 9 0 97 -135 143 -220 111 -204 200 -508
224 -765 14 -160 -1 -474 -26 -525 -24 -49 -102 -193 -111 -205 -5 -5 -17 -26
-27 -45 -11 -19 -32 -57 -48 -85 -15 -27 -46 -84 -68 -125 -22 -41 -45 -84
-53 -96 -12 -20 -49 -123 -60 -169 -13 -52 -11 -234 3 -300 18 -87 71 -202
125 -274 42 -57 60 -75 135 -138 l43 -35 0 -192 c0 -215 5 -232 70 -242 28 -5
40 -1 63 20 l27 25 0 154 0 155 43 -10 c23 -6 58 -13 77 -17 l35 -6 5 -183 c5
-181 5 -183 30 -202 34 -27 72 -25 104 5 l26 24 0 176 c0 132 3 176 13 179 6
2 42 10 79 18 l67 15 3 -159 c3 -154 4 -161 27 -179 32 -26 73 -24 105 6 l26
24 0 193 0 194 68 59 c166 145 252 337 250 554 -2 147 -29 227 -155 454 -114
208 -181 385 -212 562 -6 33 -14 71 -17 85 -10 47 -12 355 -3 425 13 100 14
111 37 205 38 157 115 343 200 480 25 41 49 77 52 80 4 3 26 33 49 68 25 37
47 60 53 56 6 -4 8 -3 4 4 -6 9 91 146 357 505 119 161 120 163 113 201 -4 19
-16 40 -29 48 -12 8 -101 41 -197 73 -96 31 -179 61 -183 65 -5 4 32 63 82
131 50 67 91 131 91 141 0 11 -7 32 -15 48 -13 25 -35 35 -212 95 -109 36
-202 67 -208 69 -5 1 -36 11 -68 20 -32 10 -69 15 -82 12 -25 -6 -75 -74 -265
-358 -58 -86 -108 -156 -112 -155 -3 1 -57 79 -119 172 -63 94 -116 172 -119
175 -3 3 -28 38 -55 78 -51 75 -70 92 -102 92 -10 -1 -92 -25 -183 -55z"/>
</g>
</svg>
